{"glyphs":{"0":{"ha":771,"x_min":33,"x_max":824,"o":"m 817 722 q 808 602 824 671 q 759 457 792 533 q 679 304 726 381 q 575 163 632 228 q 438 40 504 82 q 313 -1 371 -1 q 207 22 254 -1 q 125 83 160 46 q 69 163 90 119 q 43 243 49 206 q 57 397 33 310 q 133 581 81 483 q 240 742 182 669 q 356 865 299 814 q 462 942 413 915 q 542 969 511 969 q 601 946 582 969 q 626 895 621 922 q 627 849 632 868 q 614 838 622 829 q 335 619 492 838 q 263 507 299 569 q 201 381 228 444 q 159 258 174 317 q 150 158 144 200 q 233 71 163 71 q 301 90 267 71 q 367 138 335 108 q 429 205 399 168 q 485 278 460 242 q 529 344 510 314 q 560 393 549 375 q 658 603 626 507 q 679 764 690 700 q 697 780 678 775 q 742 781 717 785 q 790 763 767 776 q 817 722 813 749 z "},"1":{"ha":424,"x_min":-1,"x_max":593,"o":"m 592 900 q 592 878 593 888 q 585 856 592 868 q 567 825 579 843 q 535 778 556 807 q 463 674 506 736 q 374 540 421 613 q 280 390 326 467 q 196 240 233 313 q 135 106 158 168 q 113 6 113 44 q 96 0 113 -3 q 58 17 79 3 q 19 56 38 31 q 0 117 1 81 q 9 163 -1 133 q 38 229 19 192 q 78 308 56 267 q 122 389 100 349 q 177 483 147 433 q 237 581 207 533 q 294 672 267 629 q 340 744 321 714 q 346 753 342 747 q 356 768 350 758 q 283 773 314 763 q 229 800 251 783 q 202 839 196 824 q 235 851 208 854 q 283 849 256 849 q 340 856 310 849 q 401 879 369 863 q 464 925 433 896 q 491 961 479 947 q 508 975 503 975 q 561 951 535 975 q 592 900 588 928 z "},"2":{"ha":829,"x_min":-1,"x_max":846,"o":"m 785 281 q 810 271 806 294 q 804 208 814 247 q 773 128 794 169 q 719 64 751 86 q 653 42 700 50 q 526 29 607 33 q 417 22 481 26 q 290 13 353 17 q 176 5 228 8 q 106 0 125 1 q 96 -1 103 -1 q 66 10 82 -1 q 37 39 50 22 q 14 74 24 56 q 3 108 4 93 q 27 160 -1 136 q 125 224 56 183 q 222 284 171 250 q 324 357 272 318 q 425 437 375 396 q 519 518 475 478 q 619 617 574 568 q 697 710 664 667 q 747 790 729 754 q 760 851 764 826 q 741 872 757 863 q 690 881 725 881 q 567 866 625 881 q 461 829 510 851 q 374 779 413 807 q 308 726 335 751 q 267 679 282 700 q 253 649 253 658 q 241 640 253 635 q 215 659 229 644 q 188 694 200 674 q 176 735 176 715 q 183 768 176 750 q 207 806 190 786 q 278 867 233 836 q 376 921 322 897 q 488 960 429 944 q 604 975 547 975 q 686 957 643 975 q 765 908 729 939 q 823 840 800 878 q 846 760 846 801 q 808 636 846 708 q 699 484 771 564 q 521 321 626 404 q 281 165 415 238 q 276 164 278 165 q 271 161 274 163 q 344 163 308 163 q 417 164 379 163 q 500 167 456 165 q 600 172 544 168 q 654 182 629 174 q 699 200 679 190 q 735 220 719 210 q 760 238 750 231 q 771 249 768 243 q 775 260 774 254 q 778 272 776 267 q 785 281 779 276 z "},"3":{"ha":794,"x_min":1,"x_max":813,"o":"m 746 336 q 723 253 744 294 q 663 175 701 211 q 569 106 624 138 q 455 50 515 74 q 332 13 394 26 q 213 0 269 0 q 126 10 165 0 q 60 40 88 21 q 17 85 32 58 q 3 142 1 111 q 36 218 3 176 l 38 219 q 49 224 44 224 q 57 225 53 225 q 69 217 67 225 q 71 207 72 210 q 69 193 71 201 q 65 178 68 185 q 76 156 67 167 q 101 139 86 146 q 134 128 115 132 q 171 124 153 124 q 367 165 271 124 q 554 275 463 207 q 610 332 589 300 q 633 385 632 364 q 579 429 633 413 q 467 446 539 446 q 406 444 426 446 q 371 440 385 443 q 342 444 360 439 q 308 458 325 449 q 279 480 292 468 q 267 504 267 492 q 267 515 267 510 q 276 527 268 521 q 302 542 285 533 q 353 567 319 551 l 378 578 q 468 624 413 596 q 578 682 524 651 q 672 743 632 713 q 715 799 713 774 q 715 815 717 807 q 708 830 714 824 q 688 840 701 836 q 650 844 674 844 q 517 827 574 844 q 422 785 460 810 q 365 737 385 761 q 343 699 346 713 q 330 689 340 685 q 308 708 319 693 q 288 743 296 722 q 285 783 281 764 q 297 816 288 799 q 328 853 307 833 q 675 974 457 974 q 732 960 706 974 q 777 919 758 946 q 804 856 796 893 q 808 772 813 818 q 780 710 806 742 q 718 649 754 679 q 640 592 682 619 q 560 545 597 565 q 497 512 524 525 q 464 497 469 499 q 635 478 576 497 q 725 417 694 458 q 746 336 746 385 z "},"4":{"ha":788,"x_min":31,"x_max":890,"o":"m 769 432 q 779 443 774 440 q 787 442 783 446 q 790 421 790 438 q 783 382 790 404 q 756 340 775 360 q 704 306 738 319 q 619 293 671 293 q 592 293 610 293 q 551 292 574 293 q 485 145 511 214 q 458 32 458 76 l 458 7 l 456 6 q 438 0 450 0 q 403 12 419 0 q 375 41 388 24 q 356 77 363 58 q 349 111 349 96 q 365 230 349 189 q 388 282 382 271 q 297 274 333 278 q 237 266 261 269 q 198 260 213 263 q 174 254 183 257 q 148 249 160 251 q 113 247 136 247 q 101 249 107 247 q 86 260 94 251 l 85 260 l 83 261 q 58 309 68 292 q 42 335 47 326 l 33 351 q 44 386 31 371 q 60 399 50 394 q 267 560 165 475 q 454 722 368 644 q 608 863 540 800 q 718 961 676 926 q 733 973 729 971 q 739 975 736 975 q 796 960 769 975 q 842 928 822 946 q 874 892 863 910 q 888 869 886 875 q 864 809 890 853 q 779 672 838 765 q 754 633 772 661 q 712 567 736 606 q 659 481 688 528 q 601 382 631 433 q 663 389 633 385 q 717 399 693 393 q 755 414 740 406 q 769 432 769 422 m 439 379 q 463 421 444 390 q 504 493 481 451 q 555 582 528 535 q 607 673 582 629 q 651 751 632 717 q 679 801 671 785 q 613 735 657 781 q 506 629 568 689 q 367 503 444 569 q 203 378 290 438 q 262 378 224 378 q 338 379 300 379 q 406 379 376 379 q 439 379 435 379 z "},"5":{"ha":817,"x_min":-26,"x_max":868,"o":"m 858 982 q 868 960 865 978 q 862 919 868 943 q 844 872 856 894 q 815 831 832 849 q 778 810 799 814 q 728 808 760 806 q 656 814 697 810 q 567 824 615 818 q 469 835 519 831 l 326 604 q 422 624 375 615 q 496 633 468 633 q 652 592 588 633 q 729 456 717 550 q 646 196 749 321 q 557 117 610 153 q 445 54 504 81 q 327 13 386 28 q 218 -3 268 -3 q 127 10 169 -3 q 53 47 85 24 q 0 104 21 71 q -26 178 -21 138 q -26 192 -26 181 q -25 217 -26 203 q -20 245 -24 231 q -8 268 -17 260 q 14 281 4 281 q 28 272 22 281 q 36 257 35 264 q 78 165 43 204 q 176 125 113 125 q 250 132 215 125 q 307 149 285 139 q 420 213 363 168 q 522 313 478 257 q 592 426 567 368 q 613 532 618 485 q 586 564 610 557 q 524 571 563 571 q 415 556 467 571 q 328 528 364 540 q 292 515 307 521 q 267 510 278 510 l 265 510 l 263 510 q 199 560 219 529 q 175 615 179 590 q 194 663 174 626 q 247 748 215 699 q 314 851 278 797 q 379 951 350 906 l 382 957 l 388 957 q 408 951 396 957 q 510 938 457 940 q 615 938 563 935 q 715 947 667 940 q 801 961 763 954 q 824 975 814 965 q 835 982 831 979 q 847 986 840 985 q 858 982 850 989 z "},"6":{"ha":689,"x_min":1,"x_max":792,"o":"m 661 974 q 739 963 711 974 q 779 937 767 953 q 791 902 792 921 q 783 867 790 883 q 767 841 776 851 q 751 831 757 831 q 742 837 746 831 q 733 851 738 843 q 721 865 728 858 q 704 871 714 871 q 550 829 622 871 q 428 740 486 789 q 333 647 371 690 q 381 669 356 660 q 433 678 406 678 q 504 664 468 678 q 572 626 540 650 q 625 570 603 603 q 651 499 647 538 q 650 417 657 461 q 626 327 643 372 q 584 238 610 282 q 525 158 558 194 q 482 114 510 140 q 417 63 454 88 q 337 19 381 38 q 246 1 293 1 q 165 21 208 1 q 85 72 122 40 q 13 219 28 124 q 34 399 1 304 q 124 584 67 494 q 251 749 181 674 q 388 869 322 824 q 460 915 419 892 q 550 954 501 939 q 661 974 606 974 m 464 603 q 358 567 415 603 q 246 464 300 531 q 147 299 181 386 q 121 144 113 211 q 143 102 124 121 q 193 83 163 83 q 296 121 239 83 q 410 226 353 158 q 467 307 442 265 q 510 389 493 349 q 533 466 526 429 q 536 532 540 503 q 515 586 532 569 q 464 603 497 603 z "},"7":{"ha":604,"x_min":39,"x_max":803,"o":"m 313 307 q 249 217 279 261 q 196 133 219 172 q 157 62 172 94 q 138 6 142 29 q 120 0 136 -3 q 85 17 104 3 q 53 56 67 31 q 42 117 39 81 q 58 162 43 132 q 98 229 74 192 q 151 308 122 267 q 210 389 181 349 q 321 519 225 408 q 606 811 417 629 q 501 799 557 804 q 390 789 444 793 q 276 785 318 783 q 218 797 235 786 q 172 851 190 814 q 145 926 153 889 q 142 986 138 963 q 165 1000 147 1010 q 171 992 169 997 q 173 981 172 986 q 176 969 174 975 q 185 960 178 964 q 207 945 193 954 q 239 927 221 936 q 278 912 257 918 q 325 908 300 906 q 434 919 386 913 q 524 933 482 926 q 602 945 565 939 q 676 954 639 951 q 743 947 718 957 q 781 919 768 936 q 799 884 794 903 q 801 851 803 865 l 800 851 q 792 822 800 836 q 771 793 783 807 q 744 766 758 779 q 719 743 731 753 q 513 540 613 644 q 313 307 413 436 z "},"8":{"ha":722,"x_min":1,"x_max":776,"o":"m 776 801 q 758 714 776 753 q 710 644 739 675 q 648 590 682 613 q 585 553 614 568 q 633 484 614 524 q 658 401 653 444 q 596 201 671 301 q 513 118 560 156 q 415 53 465 81 q 316 12 365 26 q 229 -3 267 -3 q 149 19 189 -3 q 76 74 108 40 q 22 147 43 107 q 1 225 1 188 q 28 334 1 281 q 97 433 56 388 q 185 513 138 478 q 276 569 233 549 q 241 619 256 590 q 222 681 226 649 q 239 763 219 719 q 296 846 258 806 q 431 941 354 907 q 588 975 508 975 q 653 960 619 975 q 715 922 688 946 q 759 867 742 899 q 776 801 776 835 m 493 267 q 549 336 521 294 q 582 429 578 378 q 521 503 578 497 q 444 494 489 507 q 350 456 399 481 q 255 398 301 432 q 172 326 208 364 q 96 175 96 246 q 114 136 99 146 q 157 124 129 126 q 235 129 192 119 q 325 158 279 139 q 414 205 371 176 q 493 267 457 233 m 425 615 q 509 645 463 624 q 596 697 556 667 q 663 762 636 726 q 685 833 689 797 q 633 872 678 872 q 542 858 588 872 q 457 820 497 844 q 384 763 417 796 q 332 692 351 731 q 323 660 324 672 q 324 640 322 649 q 340 618 326 626 q 375 610 354 610 q 395 610 381 610 q 425 615 410 611 z "},"9":{"ha":733,"x_min":4,"x_max":792,"o":"m 135 0 q 56 10 85 0 q 16 37 28 21 q 5 72 4 53 q 12 106 6 90 q 28 133 18 122 q 44 143 38 143 q 53 137 49 143 q 63 123 57 131 q 74 109 68 115 q 92 103 81 103 q 169 113 131 103 q 244 144 208 124 q 367 234 310 183 q 463 326 424 285 q 415 306 440 315 q 363 297 390 297 q 291 310 328 297 q 223 348 254 324 q 169 405 192 372 q 142 476 147 438 q 143 558 136 514 q 167 648 150 603 q 210 737 185 693 q 269 817 236 781 q 313 862 285 835 q 377 914 340 889 q 458 957 414 939 q 550 975 501 975 q 631 956 588 975 q 713 903 674 936 q 758 841 740 879 q 783 757 776 803 q 779 638 792 700 q 739 513 767 575 q 673 390 711 450 q 590 277 635 331 q 499 179 546 224 q 410 104 453 135 q 335 58 378 81 q 244 18 293 35 q 190 4 218 8 q 135 0 163 0 m 332 371 q 438 407 381 371 q 550 510 496 443 q 608 592 582 549 q 650 677 633 635 q 674 759 667 719 q 676 831 681 799 q 653 874 672 854 q 603 893 633 893 q 499 856 556 893 q 386 749 442 818 q 327 667 353 708 q 285 585 301 625 q 260 508 268 544 q 257 440 253 471 q 281 388 264 404 q 332 371 297 371 z "},"\u0000":{"ha":0,"x_min":0,"x_max":0,"o":""},"\r":{"ha":450,"x_min":0,"x_max":0,"o":""}," ":{"ha":450,"x_min":0,"x_max":0,"o":""},"r":{"ha":601,"x_min":111,"x_max":828,"o":"m 785 486 q 802 501 792 497 q 819 500 813 504 q 827 485 826 496 q 817 457 828 474 q 782 408 810 446 q 714 319 754 369 q 625 212 674 268 q 528 108 576 156 q 435 31 479 61 q 358 0 390 0 q 293 15 318 0 q 254 54 268 31 q 235 108 240 78 q 229 165 229 138 q 248 235 229 194 q 294 323 267 276 q 351 419 321 369 q 403 518 381 469 q 324 492 372 506 q 219 479 276 479 q 185 485 204 479 q 150 509 167 490 q 122 563 133 528 q 111 656 111 597 q 138 805 111 736 q 206 923 165 874 q 291 1000 246 972 q 372 1028 336 1028 q 439 1004 411 1028 q 467 938 467 981 q 458 889 467 917 q 436 831 450 861 q 405 769 422 801 q 369 708 388 738 q 274 564 326 639 q 369 614 325 590 q 442 651 407 633 q 489 676 478 669 q 517 694 503 685 q 547 689 531 703 q 577 665 556 682 q 615 624 599 647 q 637 572 632 600 q 618 518 642 544 q 614 513 615 515 q 610 508 613 511 q 561 443 592 485 q 497 353 531 401 q 433 255 464 304 q 385 165 403 206 q 369 98 368 124 q 400 72 369 72 l 400 71 q 460 110 415 71 q 562 209 506 149 q 678 343 618 269 q 785 486 739 417 m 217 661 q 220 628 217 642 q 229 604 224 614 q 243 585 235 593 q 301 691 272 640 q 350 781 331 742 q 375 842 369 819 q 363 865 381 865 q 319 843 344 865 q 272 789 294 821 q 233 722 249 757 q 217 661 217 686 z "},"M":{"ha":1157,"x_min":-301,"x_max":1536,"o":"m 501 1367 q 390 1346 456 1367 q 251 1288 324 1325 q 108 1201 179 1251 q -19 1090 38 1150 q -110 963 -75 1031 q -146 825 -146 894 q -103 736 -146 767 q 6 706 -61 706 q 75 717 44 706 q 119 760 106 729 q 125 806 131 783 q 108 845 119 828 q 86 874 97 863 q 76 888 75 885 q 93 903 81 900 q 117 899 106 906 q 129 892 128 893 q 138 882 132 888 q 154 856 144 875 q 163 815 161 840 q 149 756 164 789 q 72 678 125 706 q -46 651 19 651 q -153 668 -106 651 q -233 713 -200 685 q -284 778 -267 740 q -301 860 -301 817 q -268 988 -301 922 q -177 1115 -235 1053 q -42 1231 -119 1176 q 127 1327 36 1286 q 317 1392 218 1368 q 514 1415 415 1415 q 638 1385 592 1415 q 709 1314 685 1356 q 741 1227 733 1272 q 749 1153 749 1182 q 715 1028 749 1100 q 633 879 682 957 q 525 724 583 801 q 417 582 467 647 q 335 471 368 517 q 301 410 301 425 q 572 688 450 565 q 676 790 624 739 q 772 879 728 840 q 847 942 815 918 q 892 967 879 967 q 939 953 917 967 q 978 922 961 940 q 1006 881 996 903 q 1017 844 1017 860 q 1008 813 1017 832 q 983 768 999 793 q 949 716 968 743 q 910 663 929 689 q 804 528 864 600 q 654 330 725 428 q 542 151 583 232 q 587 198 557 167 q 656 269 617 229 q 742 356 696 310 q 836 451 788 403 q 1023 634 954 569 q 1127 728 1092 699 q 1174 763 1163 758 q 1189 768 1185 768 q 1231 756 1211 768 q 1266 728 1251 744 q 1290 692 1281 711 q 1299 660 1299 674 q 1271 597 1299 638 q 1200 500 1243 557 q 1130 408 1168 457 q 1059 303 1092 358 q 1004 188 1026 249 q 982 60 982 126 q 1008 -91 982 -22 q 1075 -210 1033 -160 q 1169 -288 1117 -260 q 1276 -317 1222 -317 q 1379 -290 1340 -317 q 1441 -231 1418 -264 q 1474 -172 1464 -199 q 1488 -146 1483 -146 q 1528 -164 1514 -146 q 1535 -185 1533 -174 q 1535 -206 1536 -196 q 1533 -224 1535 -217 q 1531 -231 1531 -231 q 1519 -253 1531 -232 q 1479 -300 1507 -274 q 1408 -346 1454 -324 q 1288 -368 1361 -368 q 1135 -337 1213 -368 q 993 -248 1057 -307 q 888 -103 929 -189 q 847 92 847 -18 q 863 212 847 154 q 901 319 878 269 q 953 412 925 369 q 1006 488 981 454 q 1069 567 1038 532 q 1121 624 1100 601 q 1045 562 1092 603 q 942 467 999 521 q 824 351 886 414 q 703 226 763 289 q 592 105 644 164 q 503 -1 540 46 q 447 6 472 -4 q 409 38 426 14 q 392 110 392 61 q 411 192 392 143 q 463 299 431 242 q 537 417 496 356 q 621 538 578 479 q 850 828 721 675 q 787 799 829 828 q 690 722 744 771 q 574 610 636 674 q 449 478 511 547 q 331 338 388 408 q 230 206 274 268 q 160 92 186 143 q 133 14 133 42 q 114 -4 133 -1 q 70 5 94 -7 q 26 46 46 17 q 7 125 7 75 q 54 326 7 218 q 172 547 101 435 q 324 768 242 658 q 477 973 407 878 q 594 1143 547 1068 q 642 1261 642 1218 q 605 1335 642 1303 q 500 1367 568 1367 l 501 1367 z "},"-":{"ha":954,"x_min":268,"x_max":933,"o":"m 858 404 q 915 389 899 404 q 932 364 932 374 q 898 340 933 350 q 806 322 863 329 q 683 309 750 314 q 553 301 615 304 q 442 297 490 299 q 376 294 394 296 q 326 315 349 294 q 290 359 304 335 q 272 403 275 383 q 281 424 268 424 q 313 422 283 424 q 388 417 342 419 q 492 410 433 414 q 615 405 551 407 q 742 402 679 403 q 858 404 804 401 z "},"e":{"ha":494,"x_min":49,"x_max":733,"o":"m 689 485 q 707 499 697 496 q 724 499 717 503 q 733 483 732 494 q 722 456 733 472 q 685 406 715 444 q 608 317 654 368 q 507 210 563 267 q 394 108 451 154 q 281 31 336 61 q 182 0 226 0 q 115 22 144 3 q 69 73 90 39 q 49 172 49 107 q 74 298 49 235 q 138 419 99 361 q 226 526 178 476 q 322 614 275 576 q 408 672 368 651 q 472 693 449 693 q 503 687 486 693 q 534 664 519 681 q 559 617 549 647 q 569 536 569 586 q 547 463 569 503 q 490 384 525 424 q 413 307 456 344 q 330 240 371 269 q 255 194 289 211 q 203 176 221 176 q 186 129 190 150 q 190 97 183 111 q 224 83 196 83 q 318 120 258 83 q 445 215 378 157 q 578 344 513 272 q 689 485 643 415 m 458 521 q 435 508 450 521 q 402 475 419 496 q 365 428 385 454 q 325 375 344 401 q 226 229 279 310 q 349 322 297 271 q 431 417 400 372 q 468 491 461 461 q 458 521 475 521 z "},"B":{"ha":1033,"x_min":-167,"x_max":1276,"o":"m 874 194 q 947 394 929 307 q 956 468 956 432 q 942 532 956 504 q 901 577 929 560 q 822 594 872 594 q 726 572 781 594 q 622 522 671 550 q 506 450 565 490 q 475 500 485 475 q 466 547 467 522 q 489 594 465 571 q 552 645 504 610 q 664 729 600 681 q 799 836 728 778 q 931 953 869 894 q 1033 1069 992 1013 q 1081 1172 1075 1125 q 1037 1281 1090 1250 q 881 1313 983 1313 q 735 1285 811 1313 q 579 1212 658 1258 q 422 1106 500 1165 q 272 981 343 1046 q 138 851 200 917 q 31 727 76 785 q -43 625 -15 669 q -74 557 -71 581 q -61 527 -78 529 q -15 541 -44 525 q 52 589 14 557 q 133 660 90 621 q 217 742 175 699 q 294 825 258 785 q 317 863 310 844 q 326 895 324 881 q 332 919 329 910 q 342 928 335 928 q 397 914 371 928 q 442 878 422 900 q 472 828 461 856 q 483 772 483 800 q 458 694 483 744 q 393 583 432 644 q 309 453 354 521 q 225 323 264 386 q 160 207 186 260 q 135 122 135 154 q 117 89 135 96 q 75 94 99 82 q 30 137 51 106 q 0 217 8 168 q 8 294 -6 250 q 45 386 21 338 q 101 486 69 435 q 167 588 133 538 q 106 538 138 563 q 44 495 75 514 q -15 465 14 476 q -69 454 -44 454 q -112 464 -93 454 q -143 489 -131 474 q -161 524 -156 504 q -164 564 -167 543 q -115 683 -160 604 q 3 856 -71 761 q 174 1051 76 951 q 385 1233 272 1151 q 622 1367 499 1315 q 871 1419 746 1419 q 1016 1394 951 1419 q 1124 1326 1081 1369 q 1188 1224 1168 1282 q 1200 1099 1208 1165 q 1173 1018 1194 1060 q 1121 935 1151 976 q 1054 856 1090 894 q 983 785 1018 818 q 919 728 949 753 q 874 692 890 704 q 931 665 892 685 q 1006 606 969 644 q 1066 506 1042 567 q 1079 358 1090 446 q 1067 300 1075 329 q 1171 410 1124 346 q 1203 453 1188 432 q 1232 494 1218 474 q 1250 509 1240 506 q 1267 508 1260 513 q 1276 493 1275 504 q 1265 465 1276 482 q 1242 435 1258 457 q 1203 381 1226 413 q 1128 299 1171 339 q 1042 224 1086 258 q 974 89 1015 158 q 881 -47 932 19 q 770 -172 829 -112 q 649 -276 711 -231 q 525 -349 588 -321 q 404 -379 463 -376 l 406 -379 l 397 -379 l 392 -379 q 295 -339 321 -375 q 278 -249 269 -303 q 316 -175 282 -214 q 401 -96 350 -136 q 516 -16 453 -56 q 644 61 579 24 q 769 133 708 99 q 874 194 829 167 m 321 857 q 308 842 314 850 q 294 825 301 833 q 299 831 296 828 q 303 836 301 833 q 307 842 304 839 q 321 857 313 849 m 363 -296 q 450 -262 394 -296 q 567 -174 506 -228 q 690 -51 629 -119 q 793 86 750 17 q 706 33 754 63 q 610 -27 658 4 q 514 -90 561 -58 q 430 -153 467 -122 q 369 -212 393 -185 q 342 -261 344 -239 q 343 -285 339 -275 q 363 -296 347 -296 z "},"k":{"ha":688,"x_min":14,"x_max":951,"o":"m 907 486 q 925 500 915 497 q 942 499 935 503 q 951 484 950 494 q 940 457 951 474 q 906 408 933 446 q 838 318 878 369 q 750 211 799 267 q 653 108 701 156 q 559 31 604 61 q 479 0 514 0 q 401 38 439 0 q 333 131 363 76 q 285 243 303 185 q 267 340 267 301 q 213 249 239 296 q 167 159 188 201 q 133 83 146 117 q 121 32 121 50 q 104 6 121 11 q 67 10 88 0 q 31 46 47 21 q 14 111 14 71 q 49 249 14 167 q 138 426 85 332 q 253 621 190 521 q 368 811 315 721 q 456 975 421 901 q 492 1092 492 1049 q 511 1108 492 1110 q 555 1087 531 1106 q 599 1035 579 1068 q 618 957 618 1001 q 587 868 618 929 q 507 727 556 807 q 401 557 458 647 q 290 381 343 467 q 306 372 297 376 q 325 368 315 368 q 378 385 343 368 q 456 431 414 403 q 543 496 499 460 q 624 570 588 532 q 684 644 661 608 q 707 708 707 681 q 719 738 707 733 q 744 730 731 743 q 770 685 758 717 q 782 603 782 653 q 753 505 782 554 q 669 416 724 456 q 537 351 614 376 q 364 326 460 326 l 358 326 q 374 267 363 310 q 404 181 386 225 q 446 103 422 138 q 499 69 469 69 q 580 108 529 69 q 688 208 631 147 q 803 342 744 268 q 907 486 861 417 z "},"S":{"ha":924,"x_min":-262,"x_max":1078,"o":"m 904 465 q 879 580 904 528 q 814 674 854 632 q 723 747 774 715 q 620 801 672 779 q 519 833 568 822 q 436 843 471 843 q 335 837 383 843 q 250 822 288 831 q 185 808 213 814 q 147 801 158 801 q 130 827 136 801 q 120 889 124 853 q 116 965 117 925 q 115 1035 115 1006 q 154 1102 115 1063 q 282 1179 193 1142 q 513 1244 371 1217 q 861 1274 654 1271 q 885 1355 875 1310 q 890 1442 896 1400 q 881 1471 888 1458 q 869 1492 874 1483 q 869 1506 865 1501 q 892 1514 872 1511 q 940 1506 911 1517 q 998 1475 969 1496 q 1048 1424 1026 1454 q 1074 1357 1069 1393 q 1067 1284 1078 1321 q 1040 1211 1057 1247 q 1004 1140 1024 1175 q 971 1071 985 1104 q 963 1013 956 1038 q 981 970 971 988 q 990 943 990 953 q 957 929 989 933 q 927 935 943 926 q 897 958 911 944 q 869 986 882 971 q 849 1013 857 1001 q 581 1005 679 1011 q 433 990 483 999 q 356 968 375 981 q 661 889 526 950 q 774 825 718 863 q 872 735 829 788 q 942 612 915 682 q 968 453 968 542 q 937 265 968 360 q 850 81 906 169 q 718 -87 794 -8 q 553 -224 642 -165 q 366 -315 464 -282 q 168 -349 268 -349 q 32 -324 93 -349 q -77 -258 -29 -299 q -160 -165 -125 -218 q -217 -56 -194 -112 q -251 55 -240 0 q -262 156 -262 110 q -222 306 -262 224 q -110 460 -182 388 q 60 581 -39 532 q 275 629 158 629 q 410 610 353 629 q 507 560 467 590 q 572 494 547 531 q 611 424 597 458 q 630 363 625 390 q 635 322 635 335 q 628 288 635 303 q 612 265 621 274 q 596 253 603 256 q 589 260 589 251 q 576 296 589 268 q 525 354 564 324 q 416 409 486 385 q 229 433 346 433 q 31 401 113 433 q -101 325 -50 369 q -175 233 -151 281 q -199 156 -199 186 q -178 76 -199 125 q -112 -20 -158 26 q 9 -100 -65 -67 q 192 -133 83 -133 q 378 -105 288 -133 q 547 -28 468 -76 q 692 81 626 19 q 804 208 757 142 q 878 342 851 275 q 904 465 904 408 z "},"c":{"ha":511,"x_min":71,"x_max":756,"o":"m 257 0 q 169 18 204 0 q 112 68 133 36 q 81 142 90 100 q 71 232 71 183 q 89 311 71 264 q 136 410 107 358 q 202 513 165 461 q 277 605 239 564 q 351 672 315 646 q 415 697 388 697 q 441 689 431 697 q 458 671 451 681 q 469 646 465 660 q 479 660 469 650 q 500 681 489 669 q 521 703 511 692 q 531 726 531 715 q 540 733 531 736 q 560 715 549 731 q 581 672 572 700 q 590 603 590 644 q 576 517 590 544 q 543 469 561 489 q 510 424 525 449 q 496 346 496 399 q 436 370 458 346 q 403 424 414 394 q 385 501 389 458 q 303 397 339 453 q 247 288 272 349 q 222 160 222 226 q 246 92 222 111 q 297 72 269 72 q 335 91 308 72 q 397 141 361 110 q 474 214 432 172 q 559 303 517 256 q 641 399 601 350 q 711 494 681 449 q 729 509 719 506 q 747 508 739 513 q 755 493 754 504 q 744 465 756 482 q 707 415 738 454 q 633 325 676 376 q 537 216 589 274 q 433 110 485 158 q 335 31 381 63 q 257 0 289 0 z "},"C":{"ha":854,"x_min":-58,"x_max":1238,"o":"m 1060 481 q 1080 497 1068 493 q 1099 495 1092 500 q 1108 478 1107 490 q 1096 447 1108 465 q 915 183 1028 300 q 805 86 867 133 q 666 2 743 39 q 495 -58 589 -35 q 292 -81 401 -81 q 147 -54 214 -81 q 32 27 79 -28 q -37 167 -15 82 q -42 369 -58 251 q 44 626 -25 485 q 76 685 57 651 q 110 740 96 718 q 168 831 133 785 q 243 928 201 879 q 331 1025 285 976 q 424 1114 376 1072 q 519 1188 471 1156 q 708 1292 619 1258 q 875 1325 797 1325 q 985 1299 943 1325 q 1050 1236 1028 1274 q 1070 1299 1061 1265 q 1086 1368 1079 1333 q 1058 1426 1064 1400 q 1053 1464 1053 1451 q 1066 1497 1053 1483 q 1093 1508 1079 1510 l 1097 1508 q 1133 1495 1113 1508 q 1174 1458 1154 1482 q 1212 1401 1194 1433 q 1236 1332 1229 1369 q 1238 1313 1238 1324 q 1238 1290 1238 1303 q 1236 1258 1238 1276 q 1219 1183 1232 1219 q 1189 1110 1206 1146 q 1153 1040 1172 1075 q 1121 972 1135 1006 q 1108 904 1104 935 q 1119 852 1113 874 q 1124 819 1125 831 q 1094 807 1122 807 q 1062 828 1078 807 q 1032 875 1046 849 q 1001 944 1017 906 q 992 976 996 960 q 985 1008 988 990 q 982 1043 982 1025 q 983 1060 982 1051 q 986 1078 985 1068 q 962 1121 983 1106 q 917 1136 940 1136 q 806 1108 871 1136 q 650 1024 740 1079 q 591 981 626 1008 q 507 911 556 954 q 379 776 435 847 q 358 749 368 763 q 338 721 349 735 q 327 704 333 714 q 313 683 321 694 q 298 660 306 671 q 285 639 290 649 q 232 548 258 596 q 183 450 206 500 q 142 351 160 400 q 118 258 125 301 l 115 228 q 117 115 107 161 q 151 38 126 68 q 211 -7 175 7 q 292 -21 247 -21 q 483 1 396 -21 q 644 58 571 22 q 778 138 718 93 q 883 229 838 182 q 1060 481 990 339 z "},"l":{"ha":406,"x_min":56,"x_max":692,"o":"m 176 0 q 114 17 138 0 q 77 60 90 35 q 60 115 64 85 q 56 169 56 144 q 77 253 56 199 q 134 376 99 307 q 215 527 169 446 q 307 692 260 608 q 399 856 354 775 q 480 1007 444 938 q 537 1130 515 1076 q 558 1211 558 1183 q 579 1225 558 1226 q 625 1205 600 1224 q 671 1151 650 1186 q 692 1063 692 1115 q 666 980 692 1036 q 599 849 640 924 q 506 688 557 775 q 403 515 454 601 q 308 349 353 429 q 234 208 263 269 q 199 109 206 146 q 218 72 193 72 q 279 113 233 72 q 383 215 325 153 q 503 351 442 276 q 611 494 565 425 q 628 509 618 506 q 646 508 639 513 q 653 493 653 504 q 643 465 654 482 q 608 415 636 454 q 538 325 579 376 q 446 216 496 274 q 347 110 396 158 q 253 31 297 63 q 176 0 208 0 z "},"m":{"ha":997,"x_min":7,"x_max":1240,"o":"m 761 0 q 694 44 721 0 q 668 167 668 88 q 678 218 668 189 q 703 280 688 247 q 740 347 719 313 q 783 414 761 381 q 899 575 833 490 q 851 545 890 575 q 759 472 811 515 q 655 376 707 428 q 569 282 603 325 q 522 206 547 249 q 476 123 497 163 q 440 51 454 83 q 426 10 426 19 q 414 3 426 -4 q 385 32 401 10 q 357 88 369 54 q 344 161 344 121 q 354 213 344 183 q 380 275 364 242 q 417 343 396 308 q 460 411 438 378 q 576 575 511 489 q 526 538 565 575 q 433 443 486 500 q 322 317 381 386 q 215 186 264 249 q 133 75 165 124 q 101 10 101 26 q 87 -1 101 -4 q 54 22 72 3 q 22 72 36 40 q 7 144 7 103 q 28 215 7 172 q 79 308 49 258 q 147 411 110 357 q 214 517 183 465 q 265 616 244 569 q 286 697 286 663 q 301 715 286 715 q 335 696 317 714 q 370 642 354 678 q 386 553 386 606 q 376 501 386 528 q 356 451 367 474 q 326 401 342 426 q 474 549 407 483 q 531 603 503 576 q 585 650 560 629 q 628 684 610 671 q 656 697 647 697 q 690 685 674 697 q 719 653 707 674 q 739 608 732 633 q 746 558 746 583 q 735 522 746 544 q 708 471 725 500 q 774 535 733 496 q 854 610 814 574 q 929 672 894 646 q 978 697 964 697 q 1010 685 996 697 q 1034 653 1024 674 q 1050 608 1044 633 q 1056 558 1056 583 q 1031 498 1056 542 q 971 399 1007 454 q 895 283 935 343 q 825 174 856 224 q 781 92 794 124 q 782 60 767 60 q 856 101 806 60 q 966 208 906 143 q 1089 349 1026 272 q 1197 494 1151 425 q 1215 509 1204 506 q 1232 508 1225 513 q 1240 493 1239 504 q 1229 465 1240 482 q 1195 415 1222 454 q 1128 325 1168 376 q 1041 216 1089 274 q 944 110 993 158 q 847 31 894 63 q 761 0 799 0 z "},"n":{"ha":664,"x_min":8,"x_max":907,"o":"m 435 0 q 367 49 394 0 q 340 176 340 97 q 349 227 340 199 q 373 287 358 256 q 406 351 388 318 q 443 417 424 385 q 546 571 489 490 q 497 536 535 571 q 410 449 460 501 q 307 332 361 396 q 208 209 253 268 q 133 105 163 150 q 103 43 103 60 q 88 1 103 4 q 56 18 74 -1 q 23 74 38 38 q 8 153 8 111 q 28 222 8 181 q 79 313 49 264 q 146 414 110 361 q 213 517 182 467 q 263 613 243 567 q 283 693 283 658 q 299 710 283 711 q 334 692 315 710 q 369 638 353 674 q 385 550 385 601 q 377 503 385 524 q 361 468 369 483 q 338 436 350 451 q 469 564 408 508 q 522 611 496 588 q 570 653 547 635 q 611 682 593 671 q 638 693 629 693 q 670 681 656 693 q 694 649 685 669 q 710 604 704 629 q 715 554 715 579 q 692 495 715 538 q 633 399 668 453 q 560 287 599 344 q 493 181 522 229 q 451 102 464 133 q 454 71 438 71 q 535 111 485 71 q 644 213 586 151 q 760 350 701 275 q 864 494 818 425 q 881 509 871 506 q 899 508 892 513 q 906 493 906 504 q 896 465 907 482 q 861 415 889 454 q 794 325 833 376 q 706 216 754 274 q 609 110 658 158 q 515 31 560 63 q 435 0 469 0 z "},"N":{"ha":788,"x_min":-308,"x_max":1260,"o":"m 501 122 q 516 229 501 175 q 554 335 531 283 q 609 437 578 388 q 672 529 640 486 q 844 724 749 631 q 781 695 824 724 q 685 618 739 667 q 568 506 631 569 q 444 374 506 443 q 325 234 382 304 q 225 101 268 164 q 156 -12 182 39 q 129 -90 129 -62 q 109 -108 129 -106 q 65 -99 89 -111 q 22 -58 42 -87 q 1 21 1 -29 q 49 222 1 114 q 167 442 96 331 q 319 663 238 554 q 472 867 401 772 q 590 1038 543 963 q 638 1156 638 1113 q 601 1231 638 1199 q 496 1263 564 1263 q 384 1242 450 1263 q 246 1184 318 1221 q 102 1097 174 1147 q -26 985 31 1046 q -117 858 -82 925 q -153 719 -153 790 q -110 631 -153 663 q -1 600 -68 600 q 68 613 38 600 q 114 656 99 625 q 119 700 125 678 q 101 740 113 722 q 79 769 90 758 q 69 783 68 781 q 88 799 76 797 q 111 794 97 800 q 122 788 117 792 q 132 778 124 788 q 147 751 140 769 q 156 710 154 736 q 143 651 158 685 q 66 574 119 601 q -53 547 13 547 q -160 564 -112 547 q -240 608 -207 581 q -291 674 -274 636 q -308 756 -308 713 q -275 883 -308 818 q -184 1010 -242 949 q -47 1127 -126 1072 q 123 1223 32 1182 q 313 1288 214 1264 q 510 1311 411 1311 q 634 1281 588 1311 q 705 1210 681 1251 q 737 1123 729 1168 q 744 1047 744 1078 q 715 930 744 994 q 642 798 686 865 q 548 665 599 731 q 453 545 497 600 q 381 451 410 490 q 351 397 351 411 q 594 629 483 526 q 689 715 642 672 q 776 790 736 757 q 845 842 815 822 q 888 863 875 863 q 929 843 913 863 q 957 797 946 824 q 973 742 968 769 q 978 699 978 715 q 953 639 978 676 q 892 552 929 601 q 813 445 856 503 q 734 326 771 388 q 673 203 697 265 q 649 85 649 142 q 667 -112 649 -15 q 722 -287 686 -210 q 813 -412 758 -364 q 939 -460 868 -460 q 1057 -432 1011 -460 q 1129 -371 1103 -404 q 1175 -281 1160 -332 q 1182 -257 1176 -268 q 1198 -240 1188 -247 q 1229 -232 1208 -232 q 1251 -244 1246 -232 q 1258 -271 1257 -256 q 1256 -310 1260 -287 q 1193 -415 1233 -369 q 1100 -487 1158 -456 q 953 -519 1042 -519 q 783 -471 864 -519 q 639 -337 701 -422 q 539 -134 576 -251 q 501 122 501 -17 z "},"i":{"ha":410,"x_min":51,"x_max":649,"o":"m 464 729 q 437 740 451 729 q 410 771 422 750 q 390 822 397 792 q 386 889 382 851 q 401 953 389 926 q 429 994 414 979 q 461 1017 444 1010 q 490 1024 478 1024 q 524 1016 503 1024 q 567 996 546 1008 q 602 967 588 983 q 615 933 617 951 q 606 903 614 915 q 585 879 597 892 q 557 849 572 867 q 525 804 542 832 q 500 761 508 776 q 486 739 492 746 q 476 731 481 732 q 464 729 472 729 m 604 492 q 622 506 613 503 q 640 504 632 508 q 648 489 647 500 q 638 461 649 478 q 602 412 631 450 q 533 323 574 374 q 444 215 493 272 q 347 111 396 158 q 254 33 299 64 q 178 3 210 3 q 113 22 138 3 q 74 69 88 40 q 56 131 60 97 q 54 192 51 164 q 82 278 57 229 q 140 385 107 328 q 209 503 174 442 q 269 628 244 565 q 275 649 274 638 q 279 669 276 660 q 288 683 282 678 q 306 689 293 689 q 335 678 318 689 q 365 648 351 668 q 388 597 379 628 q 392 526 396 567 q 365 455 389 499 q 310 361 342 411 q 247 260 279 311 q 197 168 215 210 q 181 101 179 126 q 219 75 183 75 q 280 114 235 75 q 381 213 325 153 q 498 347 438 274 q 604 492 558 421 z "},"o":{"ha":608,"x_min":69,"x_max":843,"o":"m 553 167 q 524 172 538 167 q 503 185 511 178 q 488 167 494 174 q 482 161 485 165 q 476 154 479 158 q 468 144 472 150 q 360 51 418 92 q 243 3 301 11 q 239 1 242 1 q 232 0 233 1 l 218 0 q 172 7 197 0 q 123 33 146 14 q 85 85 100 51 q 69 175 69 119 q 90 300 69 238 q 144 419 110 363 q 222 526 178 476 q 312 613 265 576 q 404 671 358 650 q 488 692 450 692 q 588 659 546 692 q 656 582 629 626 q 647 564 660 575 q 588 553 635 553 q 474 516 531 553 q 368 424 417 479 q 283 306 319 369 q 226 187 246 242 q 209 95 207 132 q 242 58 211 58 q 313 83 272 58 q 389 140 353 108 q 475 222 432 176 q 468 246 471 232 q 464 272 465 257 q 463 307 463 288 q 484 378 463 349 q 531 416 506 407 q 578 410 557 425 q 600 353 600 396 q 582 301 600 333 q 531 225 564 269 q 542 219 533 222 q 557 215 551 215 q 607 234 582 215 q 661 288 632 253 q 724 374 690 324 q 800 489 758 425 q 817 503 807 500 q 835 503 828 507 q 842 488 842 499 q 832 460 843 476 q 810 423 825 449 q 774 365 796 397 q 726 298 753 333 q 672 233 700 263 q 613 185 643 204 q 553 167 582 167 z "},"b":{"ha":719,"x_min":10,"x_max":953,"o":"m 908 489 q 927 503 917 500 q 944 501 938 506 q 952 486 951 497 q 942 458 953 475 q 903 408 935 447 q 824 318 872 369 q 715 210 776 267 q 584 107 653 154 q 442 28 515 60 q 300 -3 369 -3 l 301 0 q 254 13 275 1 q 216 41 233 24 q 184 78 199 58 q 157 119 169 99 q 147 96 153 111 q 133 65 140 81 q 122 36 126 49 q 117 19 117 24 q 100 -1 117 -1 q 63 17 83 0 q 26 63 43 33 q 10 126 10 92 q 49 239 10 163 q 149 413 89 315 q 278 621 208 511 q 407 833 347 731 q 506 1019 467 935 q 546 1151 546 1104 q 567 1158 546 1163 q 613 1134 588 1153 q 658 1083 638 1115 q 679 1007 679 1050 q 664 950 679 986 q 625 869 649 914 q 572 774 601 825 q 511 676 542 724 q 585 692 549 692 q 631 688 606 692 q 680 667 657 683 q 718 620 703 651 q 733 533 733 589 q 720 433 733 483 q 684 333 707 382 q 630 238 661 283 q 564 154 599 193 q 659 225 610 185 q 754 309 708 265 q 840 399 800 353 q 908 489 879 444 m 224 154 q 351 190 292 154 q 459 278 411 225 q 540 394 507 332 q 588 509 574 456 q 597 598 603 563 q 561 633 592 633 q 506 611 542 633 q 435 561 471 589 q 388 494 408 524 q 353 443 368 464 q 322 400 336 418 q 271 319 296 360 q 224 244 249 285 q 181 165 200 203 q 224 154 196 154 z "},"d":{"ha":728,"x_min":14,"x_max":1031,"o":"m 529 72 q 590 111 544 72 q 692 210 635 150 q 810 344 750 271 q 917 486 871 417 q 935 501 925 497 q 952 500 944 504 q 960 485 960 496 q 950 457 961 474 q 915 408 943 446 q 845 319 886 369 q 755 212 804 268 q 657 108 706 156 q 564 31 608 61 q 488 0 519 0 q 440 9 463 0 q 399 39 417 18 q 371 94 382 60 q 360 179 360 129 q 283 89 319 128 q 217 28 251 56 q 161 0 183 0 q 113 9 139 0 q 65 39 88 18 q 28 92 43 60 q 14 172 14 125 q 39 276 14 219 q 105 391 64 333 q 197 502 146 449 q 301 597 249 556 q 400 664 353 639 q 481 689 447 689 q 542 676 517 689 q 582 647 567 663 q 608 607 599 629 q 760 860 693 744 q 816 958 789 908 q 865 1049 843 1007 q 899 1124 886 1092 q 913 1171 913 1156 q 931 1193 913 1188 q 972 1185 950 1199 q 1012 1135 993 1172 q 1031 1032 1031 1099 q 1005 944 1031 1001 q 938 815 979 888 q 846 658 897 742 q 743 492 794 575 q 645 334 692 410 q 567 200 599 258 q 523 107 535 142 q 529 72 511 72 m 185 68 q 247 106 206 68 q 338 199 289 143 q 435 322 386 256 q 519 444 485 388 q 567 538 554 500 q 558 575 581 575 q 506 549 542 575 q 428 482 471 524 q 341 387 386 440 q 258 278 296 333 q 197 172 221 224 q 174 79 174 119 q 175 74 174 76 q 185 68 178 68 z "},"f":{"ha":499,"x_min":-125,"x_max":742,"o":"m 699 494 q 717 509 707 506 q 733 508 726 513 q 741 493 740 504 q 731 465 742 482 q 703 428 724 456 q 651 364 682 400 q 581 288 621 328 q 499 210 542 247 q 411 145 456 174 q 324 106 367 117 q 269 -17 299 47 q 208 -142 240 -81 q 144 -260 176 -204 q 80 -359 111 -317 q 21 -426 49 -401 q -29 -451 -7 -451 q -94 -426 -74 -451 q -120 -361 -115 -401 q -118 -269 -125 -321 q -99 -164 -111 -217 q -45 -8 -86 -107 q 56 213 -4 90 q 116 343 72 261 q 217 523 160 425 q 334 726 274 621 q 446 924 394 831 q 530 1092 497 1018 q 563 1200 563 1165 q 583 1213 563 1214 q 629 1192 604 1211 q 675 1138 654 1174 q 696 1051 696 1103 q 663 951 696 1019 q 580 796 631 883 q 468 610 529 708 q 350 421 407 513 l 382 394 q 396 351 392 375 q 393 299 400 326 q 380 251 389 279 q 357 189 371 224 l 354 182 q 420 215 379 189 q 509 282 461 242 q 607 376 557 322 q 699 494 657 431 m 17 -326 q 64 -287 35 -326 q 128 -186 93 -247 q 197 -49 163 -125 q 261 99 232 26 q 227 111 242 101 q 201 133 213 121 q 119 -43 157 40 q 56 -190 82 -126 q 19 -290 31 -253 q 17 -326 8 -326 m 293 185 q 326 309 318 260 q 314 358 335 358 q 253 236 282 297 q 268 206 258 219 q 293 185 278 192 z "},"g":{"ha":697,"x_min":-282,"x_max":932,"o":"m 889 486 q 906 501 896 497 q 924 500 917 504 q 931 485 931 496 q 921 457 932 474 q 887 413 914 447 q 820 331 860 378 q 733 233 781 285 q 636 134 685 181 q 541 52 588 88 q 460 6 494 17 l 457 1 l 426 -51 q 303 -231 369 -143 q 162 -385 236 -318 q 8 -494 88 -453 q -151 -535 -71 -535 q -194 -526 -172 -535 q -234 -501 -215 -518 q -265 -458 -253 -483 q -281 -399 -278 -432 q -261 -359 -282 -382 q -206 -310 -240 -336 q -126 -258 -171 -285 q -35 -206 -82 -231 q 217 -82 75 -146 q 242 -50 228 -69 q 270 -6 256 -31 q 301 47 285 19 q 332 100 317 74 q 404 233 367 163 q 307 118 353 168 q 267 75 288 96 q 229 38 247 54 q 197 13 211 22 q 172 3 182 3 q 129 15 153 3 q 84 47 106 26 q 47 98 63 68 q 28 165 31 128 q 45 260 24 206 q 103 374 67 315 q 188 490 140 432 q 288 593 236 547 q 388 667 339 639 q 476 694 438 694 q 533 672 507 694 q 576 622 560 649 q 599 572 593 594 q 593 549 604 549 q 526 528 563 549 q 449 475 489 508 q 371 399 410 442 q 299 312 332 356 q 239 225 265 268 q 198 149 213 182 q 183 95 183 115 q 201 75 182 75 q 235 99 210 75 q 292 158 260 122 q 359 238 324 194 q 422 319 394 281 q 467 385 450 357 q 479 419 483 413 q 488 429 472 429 q 524 417 503 429 q 564 382 544 406 q 586 321 583 358 q 567 226 589 288 q 504 86 546 165 q 584 148 535 106 q 688 246 633 190 q 795 364 742 301 q 889 486 849 426 m -196 -446 q -142 -433 -171 -446 q -82 -399 -112 -419 q -22 -351 -51 -378 q 36 -296 8 -324 q 167 -146 101 -229 q -40 -258 50 -207 q -116 -303 -79 -281 q -182 -346 -153 -326 q -228 -381 -211 -365 q -244 -407 -246 -397 q -228 -435 -242 -425 q -196 -446 -215 -446 z "},"h":{"ha":742,"x_min":-1,"x_max":974,"o":"m 506 0 q 447 19 472 0 q 407 68 422 39 q 384 132 392 97 q 376 197 376 167 q 385 236 376 213 q 408 289 393 260 q 440 349 422 318 q 476 413 457 381 q 576 568 521 485 q 346 344 447 450 q 262 253 303 300 q 188 164 221 207 q 136 85 156 121 q 117 24 117 49 q 98 2 117 3 q 58 16 79 1 q 17 57 36 31 q -1 118 -1 83 q 22 195 -1 144 q 82 313 44 246 q 167 457 119 379 q 266 615 215 535 q 365 774 317 696 q 450 921 413 853 q 510 1042 488 989 q 533 1124 533 1094 q 550 1128 533 1133 q 588 1105 567 1124 q 625 1054 608 1086 q 642 979 642 1022 q 626 919 642 957 q 586 835 611 882 q 529 735 561 788 q 464 632 497 683 q 288 374 386 511 q 460 532 382 463 q 526 590 493 561 q 589 640 560 618 q 640 676 618 663 q 674 690 663 690 q 709 677 694 690 q 733 642 724 664 q 746 595 742 621 q 750 544 750 569 q 726 486 750 528 q 668 392 701 444 q 599 283 635 339 q 542 180 564 226 q 517 103 519 133 q 547 72 514 72 q 607 111 563 72 q 708 210 651 150 q 824 344 764 271 q 931 486 885 417 q 949 501 939 497 q 965 500 958 504 q 973 485 972 496 q 963 457 974 474 q 928 408 956 446 q 860 319 900 369 q 771 212 819 268 q 674 108 722 156 q 581 31 625 61 q 506 0 538 0 z "},"j":{"ha":385,"x_min":-576,"x_max":625,"o":"m 582 494 q 599 509 589 506 q 617 508 610 513 q 624 493 624 504 q 614 465 625 482 q 580 420 607 454 q 514 340 553 386 q 427 242 475 294 q 331 144 379 190 q 235 62 282 97 q 154 14 189 26 l 151 10 l 132 -22 q 8 -202 75 -115 q -132 -356 -58 -289 q -285 -465 -206 -424 q -444 -506 -364 -506 q -487 -497 -465 -506 q -528 -472 -510 -489 q -560 -428 -547 -454 q -575 -369 -572 -403 q -556 -331 -576 -353 q -500 -283 -535 -308 q -421 -230 -465 -257 q -329 -178 -376 -203 q -78 -54 -219 -118 q -51 -16 -67 -42 q -16 44 -35 10 q 23 117 3 78 q 63 196 43 157 q 158 396 108 288 q 210 519 185 457 q 247 640 236 582 q 250 660 250 650 q 252 679 250 671 q 260 692 254 688 q 278 697 265 697 q 308 688 290 697 q 342 658 325 678 q 371 609 358 639 q 388 539 383 579 q 371 438 392 499 q 319 312 350 376 q 256 189 289 247 q 201 97 222 131 q 281 160 232 118 q 384 258 331 203 q 490 374 438 313 q 582 494 543 436 m -490 -418 q -435 -405 -465 -418 q -376 -371 -406 -392 q -315 -323 -346 -350 q -257 -268 -285 -296 q -126 -118 -192 -201 q -335 -229 -243 -178 q -411 -274 -374 -251 q -477 -316 -449 -296 q -523 -353 -506 -336 q -539 -378 -540 -369 q -523 -408 -536 -397 q -490 -418 -510 -418 m 424 740 q 396 751 413 740 q 363 782 379 761 q 335 833 347 803 q 318 900 322 863 q 323 964 315 938 q 343 1006 331 990 q 371 1028 356 1021 q 399 1035 386 1035 q 433 1027 411 1035 q 478 1007 456 1019 q 519 978 501 994 q 539 944 538 963 q 534 915 540 926 q 517 890 528 903 q 494 861 507 878 q 471 817 482 844 q 454 773 460 789 q 444 750 449 757 q 436 742 440 743 q 424 740 432 740 z "},"p":{"ha":718,"x_min":-167,"x_max":957,"o":"m 913 494 q 931 509 921 506 q 948 508 940 513 q 956 493 956 504 q 946 465 957 482 q 902 413 936 451 q 820 333 868 375 q 717 252 772 290 q 608 199 661 214 l 601 189 q 535 115 569 150 q 461 55 500 81 q 381 15 422 29 q 294 0 339 0 q 245 8 263 0 q 219 26 228 15 q 210 46 211 36 q 208 60 208 56 q 242 118 208 92 q 318 164 276 144 q 429 203 367 186 q 518 365 479 289 q 551 431 535 397 q 580 496 567 465 q 601 551 593 526 q 608 593 608 576 q 601 624 608 608 q 572 639 594 639 q 500 601 543 639 q 406 503 457 564 q 301 362 356 442 q 193 197 246 282 q 92 28 140 113 q 9 -125 44 -56 q -48 -244 -26 -194 q -69 -308 -69 -293 q -85 -326 -69 -329 q -118 -305 -100 -324 q -151 -256 -136 -286 q -167 -192 -167 -225 q -133 -84 -167 -156 q -47 77 -99 -12 q 63 265 4 167 q 174 452 122 363 q 259 613 225 542 q 293 722 293 685 l 293 760 q 315 776 293 769 q 361 774 336 783 q 408 731 386 764 q 429 628 429 697 q 427 601 429 613 q 422 581 425 589 q 417 564 419 571 q 479 629 446 600 q 543 674 507 653 q 617 694 579 694 q 678 681 654 694 q 717 645 703 667 q 736 598 731 624 q 742 549 742 572 q 739 492 742 524 q 727 423 736 460 q 701 346 718 386 q 654 263 683 306 q 785 352 714 294 q 913 494 856 410 m 296 76 q 301 60 296 64 q 314 61 306 57 q 333 75 322 65 q 354 96 343 85 q 413 165 379 122 q 354 135 379 150 q 314 106 332 121 q 296 76 296 90 z "},"q":{"ha":636,"x_min":0,"x_max":872,"o":"m 829 494 q 847 509 836 506 q 864 508 857 513 q 872 493 871 504 q 861 465 872 482 q 825 415 854 454 q 754 321 796 375 q 663 206 713 267 q 562 93 613 146 q 465 3 511 40 q 385 -39 418 -33 l 385 -40 q 293 -194 336 -118 q 218 -332 250 -269 q 168 -439 186 -394 q 150 -499 150 -483 q 134 -522 150 -519 q 99 -511 118 -524 q 65 -473 81 -499 q 50 -414 50 -447 q 71 -337 50 -387 q 126 -222 92 -286 q 203 -83 160 -157 q 292 67 246 -8 q 329 131 311 99 q 363 188 347 163 q 396 242 379 217 q 282 121 335 174 q 237 76 260 97 q 193 38 214 54 q 156 10 172 21 q 131 0 140 0 q 89 13 111 0 q 47 50 67 26 q 13 105 26 74 q 0 174 0 136 q 26 268 0 214 q 93 380 51 322 q 188 494 135 438 q 297 594 242 550 q 403 667 351 639 q 493 694 454 694 q 549 673 524 694 q 588 626 574 651 q 606 578 603 600 q 599 557 610 557 q 458 521 528 557 q 327 431 388 485 q 219 315 267 378 q 148 198 172 251 q 126 108 124 144 q 167 72 128 72 q 203 97 175 72 q 267 158 231 121 q 344 240 304 196 q 417 324 385 285 q 469 392 450 364 q 486 428 489 421 q 494 438 481 438 q 524 426 507 438 q 557 390 542 414 q 572 329 572 367 q 536 215 572 290 q 438 43 500 139 q 516 113 467 63 q 621 227 565 163 q 732 363 676 292 q 829 494 788 433 z "},"u":{"ha":703,"x_min":11,"x_max":933,"o":"m 463 0 q 399 26 425 0 q 362 89 374 53 q 353 165 350 125 q 378 232 357 204 q 285 115 331 167 q 244 72 265 93 q 203 35 224 51 q 163 10 182 19 q 128 0 143 0 q 84 8 106 0 q 46 35 63 17 q 20 81 29 53 q 14 149 11 108 q 35 213 15 172 q 83 301 54 253 q 144 404 111 350 q 205 510 176 458 q 253 606 233 561 q 275 685 272 651 q 297 694 276 697 q 340 675 317 692 q 381 628 363 658 q 396 557 399 599 q 368 481 393 529 q 308 378 343 433 q 237 265 274 322 q 174 162 200 208 q 138 86 147 115 q 153 57 129 57 q 199 92 161 57 q 288 185 236 128 q 397 312 339 242 q 503 452 454 382 q 586 584 553 522 q 622 686 619 646 q 642 693 624 699 q 683 669 661 688 q 722 617 706 650 q 736 543 739 585 q 710 468 735 515 q 651 367 685 421 q 582 257 618 313 q 519 157 546 201 q 484 84 493 113 q 496 56 475 56 q 531 74 507 56 q 589 126 556 93 q 662 201 622 158 q 742 292 701 244 q 822 390 783 340 q 890 486 860 439 q 908 500 897 497 q 925 499 918 503 q 933 484 932 494 q 922 457 933 474 q 887 408 915 446 q 818 318 858 369 q 729 211 778 267 q 632 108 681 156 q 539 31 583 61 q 463 0 494 0 z "},"v":{"ha":651,"x_min":53,"x_max":835,"o":"m 254 682 q 278 695 254 694 q 332 681 303 696 q 385 637 361 667 q 410 558 410 607 q 388 480 410 526 q 336 383 367 433 q 272 283 306 333 q 215 194 239 233 q 181 130 190 154 q 190 106 172 106 q 253 142 208 106 q 353 235 297 178 q 468 367 408 293 q 577 515 528 440 q 658 660 626 590 q 690 782 690 731 q 669 874 690 838 q 624 932 649 911 q 558 969 594 957 q 553 965 557 967 q 529 963 544 963 q 503 969 513 963 q 495 983 494 975 q 507 998 496 992 q 542 1004 518 1004 q 614 987 565 1004 q 712 932 663 969 q 798 836 761 894 q 835 697 835 778 q 794 576 835 643 q 691 440 753 510 q 556 303 629 371 q 417 182 482 236 q 304 91 351 128 q 247 44 257 54 q 217 15 233 31 q 171 0 200 0 q 117 19 139 0 q 81 65 94 38 q 60 125 67 93 q 53 183 53 157 q 67 244 53 208 q 105 323 82 281 q 153 412 128 365 q 202 505 179 458 q 240 597 225 551 q 254 682 254 642 z "},"w":{"ha":829,"x_min":56,"x_max":985,"o":"m 56 149 q 70 213 56 174 q 108 301 85 253 q 156 401 131 349 q 205 507 182 454 q 242 608 228 560 q 257 697 257 657 q 279 708 257 710 q 328 689 301 706 q 378 640 356 672 q 400 558 400 607 q 378 476 400 526 q 324 371 356 426 q 258 259 292 315 q 201 158 225 203 q 172 85 178 114 q 192 57 167 57 q 226 75 201 57 q 280 122 250 93 q 342 185 310 150 q 401 251 375 219 q 413 304 404 267 q 440 381 422 342 q 483 451 457 421 q 547 482 510 482 q 593 419 601 482 q 567 349 588 382 q 522 292 546 315 q 461 239 494 263 q 460 146 456 186 q 475 83 463 111 q 518 54 488 54 q 600 99 560 54 q 676 214 640 143 q 742 372 713 285 q 794 544 772 460 q 828 702 815 629 q 840 818 840 775 q 819 922 840 883 q 774 982 799 961 q 708 1017 744 1007 q 696 1010 703 1013 q 678 1006 689 1007 q 651 1004 668 1004 q 631 1012 635 1004 q 631 1029 626 1019 q 651 1047 636 1039 q 690 1054 667 1054 q 763 1035 714 1054 q 862 977 813 1017 q 948 876 911 938 q 985 729 985 815 q 962 581 985 661 q 902 419 939 500 q 817 262 865 338 q 720 128 769 186 q 624 35 671 69 q 540 0 576 0 q 472 15 499 0 q 428 56 444 31 q 404 112 411 81 q 396 175 397 143 q 342 115 372 146 q 283 58 313 83 q 224 16 253 32 q 172 0 194 0 q 131 8 151 0 q 93 35 110 17 q 66 81 76 53 q 56 149 56 110 m 546 440 q 513 419 526 440 q 489 372 500 397 q 468 306 476 343 q 496 326 476 306 q 533 373 515 347 q 557 419 550 399 q 546 440 564 440 z "},"x":{"ha":838,"x_min":96,"x_max":1076,"o":"m 631 81 q 694 119 647 81 q 801 219 742 158 q 924 352 861 279 q 1032 494 986 425 q 1050 509 1040 506 q 1067 508 1060 513 q 1076 493 1075 504 q 1065 465 1076 482 q 1028 415 1057 454 q 956 325 999 376 q 863 216 914 274 q 763 110 813 158 q 667 31 713 63 q 590 0 622 0 q 496 18 532 0 q 440 69 460 36 q 414 145 421 101 q 406 240 407 189 q 321 183 363 211 q 246 129 279 156 q 192 76 213 103 q 171 19 171 49 q 159 0 171 0 q 133 13 147 0 q 108 49 119 26 q 96 94 96 71 q 125 178 96 138 q 200 254 154 218 q 302 323 246 290 q 414 385 358 356 q 419 506 414 447 q 428 621 425 564 q 415 646 428 644 q 383 633 403 647 q 339 596 363 619 q 293 546 315 572 q 252 495 271 519 q 224 458 233 471 q 205 443 215 446 q 188 444 194 440 q 178 458 181 449 q 186 482 176 468 q 238 551 211 517 q 294 615 265 586 q 352 664 322 643 q 413 693 382 685 q 433 695 424 696 q 443 694 442 694 q 485 678 461 692 q 530 639 508 665 q 566 571 551 613 q 581 467 581 529 q 697 519 640 494 q 799 567 754 544 q 872 612 844 590 q 900 654 900 633 q 898 674 900 664 q 898 691 896 683 q 908 703 900 699 q 938 708 917 708 q 948 689 947 708 q 940 646 949 669 q 897 582 929 615 q 816 513 864 549 q 710 438 768 476 q 589 360 651 399 q 589 252 590 303 q 590 163 588 201 q 600 103 592 125 q 631 81 608 81 z "},"y":{"ha":649,"x_min":-333,"x_max":882,"o":"m 839 494 q 856 509 846 506 q 874 508 867 513 q 881 493 881 504 q 871 465 882 482 q 838 421 864 454 q 772 342 811 388 q 685 244 732 296 q 589 145 638 192 q 494 63 540 99 q 414 15 449 28 l 410 10 l 393 -17 q 250 -208 326 -117 q 93 -369 174 -299 q -51 -483 18 -440 q -201 -526 -119 -526 q -244 -518 -222 -526 q -284 -492 -265 -510 q -316 -449 -303 -475 q -332 -389 -329 -424 q -312 -350 -333 -372 q -257 -302 -292 -328 q -178 -249 -222 -276 q -86 -197 -133 -222 q 165 -74 24 -137 q 194 -36 178 -60 q 228 15 210 -12 q 189 1 204 1 q 144 10 168 1 q 101 36 121 18 q 66 82 81 54 q 47 149 51 110 q 60 214 44 174 q 100 302 76 254 q 152 403 124 350 q 204 508 181 457 q 242 605 228 560 q 254 683 257 650 q 270 692 253 696 q 310 672 288 689 q 351 623 332 654 q 375 550 371 592 q 359 475 378 522 q 313 373 340 428 q 254 263 285 318 q 203 161 224 207 q 176 87 182 115 q 192 58 169 58 q 253 94 215 58 q 331 188 290 131 q 413 316 372 244 q 487 458 454 388 q 538 592 519 529 q 553 694 556 654 q 567 698 551 704 q 601 672 582 692 q 636 620 619 651 q 657 549 653 589 q 647 476 658 521 q 610 374 635 431 q 551 249 586 317 q 471 106 515 181 q 551 172 504 129 q 650 267 599 214 q 751 380 701 321 q 839 494 801 439 m -247 -437 q -192 -424 -222 -437 q -133 -390 -162 -411 q -72 -342 -103 -369 q -14 -287 -42 -315 q 117 -137 51 -221 q -92 -249 0 -197 q -168 -293 -131 -271 q -234 -335 -206 -315 q -280 -372 -262 -356 q -296 -397 -297 -389 q -280 -427 -293 -417 q -247 -437 -267 -437 z "},"z":{"ha":707,"x_min":71,"x_max":1018,"o":"m 179 3 l 146 3 q 95 11 119 3 q 71 51 71 19 q 119 156 71 100 q 239 267 167 211 q 395 374 311 322 q 551 466 479 425 q 672 534 624 507 q 719 568 719 561 q 653 565 688 567 q 588 564 624 564 q 515 564 551 564 q 426 568 458 564 q 381 581 394 572 q 351 611 361 593 q 313 570 333 593 q 274 525 293 547 q 239 483 254 503 q 215 453 224 464 q 197 437 207 440 q 178 438 186 433 q 169 451 171 442 q 178 476 168 461 q 255 576 214 529 q 335 656 296 622 q 333 669 333 663 q 333 683 333 676 q 348 738 333 724 q 379 750 363 753 q 409 731 396 747 q 419 692 422 714 q 438 690 429 690 q 458 690 447 690 q 622 697 551 690 q 750 703 692 703 q 801 690 783 703 q 828 659 819 676 q 838 623 836 642 q 840 593 840 604 q 805 544 840 575 q 714 473 769 513 q 591 388 658 433 q 458 299 524 343 q 336 213 392 254 q 250 138 281 171 q 280 138 258 138 q 331 138 301 138 q 393 140 360 139 q 460 140 426 140 q 632 143 538 142 q 685 171 647 143 q 773 246 724 199 q 876 356 822 293 q 975 489 929 419 q 992 503 982 500 q 1010 503 1003 507 q 1017 488 1017 499 q 1007 460 1018 476 q 972 410 1000 449 q 903 321 943 372 q 813 214 863 269 q 715 111 764 158 q 622 33 667 64 q 546 3 578 3 l 179 3 z "},"A":{"ha":840,"x_min":-779,"x_max":1226,"o":"m 1176 -268 q 1184 -236 1176 -246 q 1201 -227 1192 -226 q 1219 -238 1211 -228 q 1226 -265 1226 -249 q 1215 -303 1226 -282 q 1178 -344 1204 -325 q 1108 -375 1153 -362 q 997 -387 1064 -387 q 839 -358 907 -387 q 722 -281 771 -329 q 639 -169 672 -232 q 586 -39 606 -107 q 559 97 567 29 q 551 221 551 164 q 566 381 551 307 q 600 511 581 456 q 650 631 622 576 l 618 628 q 501 601 560 614 q 385 574 443 588 q 312 499 358 546 q 204 400 265 453 q 70 292 143 347 q -81 194 -3 238 q -240 122 -158 150 q -397 94 -321 94 q -559 128 -487 94 q -679 221 -631 163 q -753 358 -728 279 q -779 524 -779 436 q -740 708 -779 621 q -635 871 -701 796 q -481 1006 -568 946 q -299 1109 -394 1067 q -105 1174 -203 1151 q 82 1197 -7 1197 q 217 1161 163 1197 q 303 1077 271 1125 q 349 983 336 1029 q 363 917 363 938 q 356 890 363 896 q 340 886 349 885 q 319 896 331 888 q 268 964 304 933 q 179 1010 236 989 q 26 1032 122 1032 q -168 1008 -74 1032 q -346 943 -262 983 q -499 851 -429 903 q -620 742 -569 799 q -699 628 -671 685 q -726 522 -726 571 q -692 383 -722 444 q -658 332 -679 357 q -608 288 -637 307 q -537 256 -578 268 q -443 244 -497 244 q -272 276 -362 244 q -97 352 -182 307 q 60 446 -12 397 q 181 531 133 494 q 85 512 128 519 q 10 500 42 504 q -139 509 -79 489 q -235 565 -199 529 q -290 641 -272 600 q -311 711 -307 682 q -310 748 -315 740 q -299 753 -306 756 q -279 736 -290 749 q -231 697 -276 714 q -118 670 -185 679 q 26 660 -51 661 q 171 667 104 658 q 285 681 232 674 q 379 693 339 688 l 389 701 q 621 939 518 831 q 706 1032 664 985 q 781 1119 749 1079 q 834 1192 814 1160 q 854 1239 854 1224 q 881 1244 854 1254 q 940 1206 907 1235 q 999 1133 972 1178 q 1025 1038 1025 1089 q 1012 995 1025 1026 q 979 924 999 964 q 938 843 960 885 q 899 769 915 801 l 1058 796 q 1100 803 1088 800 q 1117 808 1113 806 q 1121 813 1121 811 q 1128 815 1121 815 q 1142 810 1139 818 q 1146 792 1146 803 q 1119 758 1146 772 q 1031 728 1093 744 q 982 715 1008 721 q 926 701 958 708 q 856 685 894 694 l 839 651 q 765 465 797 558 q 738 381 751 425 q 715 293 725 338 q 698 206 704 249 q 692 124 692 163 q 724 -99 692 -7 q 801 -251 756 -192 q 897 -337 847 -310 q 981 -364 946 -364 l 1015 -365 q 1069 -358 1040 -365 q 1121 -339 1097 -351 q 1160 -308 1144 -326 q 1176 -268 1176 -290 m 696 739 q 719 784 704 757 q 750 842 733 811 q 785 907 767 874 q 824 972 804 940 q 917 1129 867 1047 l 519 713 l 633 731 l 696 739 z "},"D":{"ha":889,"x_min":-601,"x_max":1094,"o":"m -210 -356 q -383 -329 -308 -356 q -506 -260 -457 -303 q -578 -163 -556 -218 q -596 -50 -601 -108 q -558 78 -592 13 q -471 206 -525 144 q -343 324 -417 268 q -184 426 -269 381 q -4 501 -99 471 q 188 544 90 532 q 249 643 225 604 q 285 708 272 682 q 304 753 299 735 q 311 792 310 772 q 333 821 314 825 q 372 791 351 817 q 407 728 392 765 q 419 658 422 690 q 417 638 418 646 q 410 617 415 629 q 392 587 404 606 q 360 536 381 568 q 444 496 411 524 q 497 435 478 468 q 522 367 515 401 q 528 311 529 333 q 519 274 525 283 q 508 266 514 265 q 499 276 503 267 q 496 293 494 285 q 481 328 497 310 q 435 361 465 346 q 365 388 406 376 q 279 401 325 399 q 213 299 243 346 q 160 210 183 251 q 124 130 138 168 q 107 57 110 92 q 85 21 104 19 q 44 45 65 22 q 7 103 24 68 q -7 169 -10 139 q 7 231 -4 203 q 33 284 18 258 q 64 335 47 310 q 94 389 81 360 q -102 315 -7 364 q -272 202 -197 265 q -394 64 -347 139 q -447 -89 -442 -11 q -441 -175 -451 -133 q -403 -249 -431 -217 q -333 -299 -376 -281 q -225 -318 -289 -318 q 5 -272 -107 -318 q 219 -149 117 -226 q 414 28 322 -72 q 585 240 506 129 q 727 463 664 350 q 836 676 790 576 q 908 857 882 776 q 938 985 935 938 q 908 1050 942 1032 q 819 1065 875 1068 q 690 1043 764 1063 q 540 994 617 1024 q 390 928 464 964 q 256 856 315 892 q 160 790 197 821 q 122 740 124 760 q 124 724 121 729 q 128 708 128 718 q 107 702 126 693 q 65 733 88 711 q 23 783 42 754 q 6 838 4 813 q 35 885 7 854 q 115 952 64 915 q 235 1027 165 989 q 385 1096 304 1065 q 556 1147 467 1126 q 739 1167 646 1167 q 913 1135 843 1167 q 1023 1060 982 1104 q 1079 969 1064 1017 q 1093 892 1094 922 q 1053 706 1086 806 q 965 502 1021 606 q 835 294 910 399 q 669 95 760 190 q 475 -83 579 0 q 259 -226 371 -165 q 28 -321 147 -286 q -210 -356 -90 -356 z "},"E":{"ha":931,"x_min":0,"x_max":1358,"o":"m 514 -162 q 405 -153 463 -162 q 290 -122 347 -143 q 181 -64 233 -100 q 88 25 128 -28 q 24 149 47 78 q 0 311 0 219 q 39 475 0 403 q 140 602 78 547 q 281 696 203 657 q 437 759 360 735 q 583 794 514 783 q 696 806 651 806 q 653 865 671 831 q 623 936 636 894 q 610 1032 610 978 q 649 1153 610 1094 q 751 1257 688 1213 q 898 1328 815 1301 q 1068 1356 981 1356 q 1213 1333 1157 1356 q 1301 1281 1269 1311 q 1346 1222 1333 1251 q 1358 1178 1358 1192 q 1353 1156 1358 1163 q 1340 1149 1347 1150 q 1326 1151 1332 1147 q 1321 1160 1321 1154 q 1269 1210 1303 1188 q 1192 1244 1240 1229 q 1067 1260 1143 1260 q 945 1231 997 1260 q 858 1162 893 1201 q 806 1081 824 1122 q 789 1014 789 1039 q 801 920 789 957 q 833 859 814 883 q 873 822 851 835 q 913 802 894 810 q 944 790 932 794 q 957 781 957 786 q 956 760 957 771 q 941 741 954 750 q 896 726 928 732 q 803 721 864 721 q 565 685 669 721 q 390 588 461 649 q 282 449 319 528 q 244 282 244 369 q 262 147 244 211 q 313 32 279 82 q 397 -47 347 -18 q 508 -76 446 -76 q 585 -72 557 -76 q 626 -60 613 -67 q 644 -43 642 -53 q 640 -31 642 -40 q 638 -8 639 -24 q 638 33 638 7 q 648 78 638 60 q 671 111 658 97 q 704 138 686 126 q 699 97 697 121 q 706 53 700 74 q 721 1 711 28 q 761 28 743 13 q 789 63 776 42 q 801 115 801 85 q 790 159 801 146 q 767 178 779 172 q 733 181 751 183 q 749 204 739 193 q 771 220 757 213 q 806 228 785 228 q 875 199 846 228 q 904 103 904 169 q 891 46 904 74 q 857 -6 878 18 q 811 -50 836 -29 q 763 -86 786 -71 q 853 -197 803 -149 q 957 -276 903 -244 q 1065 -319 1011 -307 q 1167 -322 1118 -332 q 1205 -308 1190 -317 q 1228 -292 1219 -300 q 1242 -272 1238 -282 q 1233 -246 1232 -261 q 1240 -222 1233 -231 q 1254 -217 1246 -214 q 1268 -247 1263 -221 q 1267 -303 1274 -275 q 1239 -356 1260 -331 q 1183 -402 1218 -382 q 1093 -433 1147 -422 q 978 -425 1035 -446 q 868 -362 921 -404 q 769 -259 815 -319 q 686 -131 722 -199 q 639 -147 665 -140 q 584 -158 615 -154 q 514 -162 553 -162 z "},"F":{"ha":722,"x_min":-606,"x_max":1396,"o":"m 1319 1201 q 1377 1125 1358 1165 q 1390 1047 1396 1085 q 1347 981 1382 1008 q 1263 939 1313 954 q 1156 919 1214 924 q 1044 921 1099 915 q 924 943 985 928 q 815 979 864 958 q 794 989 804 983 q 775 999 785 994 q 744 943 763 975 q 706 877 726 911 q 667 810 686 843 q 632 753 647 778 l 628 746 l 665 736 q 685 729 669 735 q 726 717 701 724 q 783 706 751 711 q 849 701 814 701 q 881 706 872 701 q 888 707 883 706 q 903 710 896 710 q 921 701 915 710 q 923 688 922 697 q 916 665 924 678 q 888 637 908 653 q 824 604 867 621 q 790 597 808 600 q 749 594 772 594 q 699 595 715 594 q 669 598 683 596 q 635 606 656 600 q 574 622 615 611 l 551 626 l 547 622 q 431 433 489 531 q 328 251 374 336 q 254 100 282 165 q 228 6 226 35 q 214 -10 229 -11 q 179 9 199 -8 q 143 59 160 26 q 124 139 126 92 q 126 187 122 164 q 139 236 129 210 q 165 297 149 263 q 208 378 182 331 l 322 567 q 356 618 336 592 l 360 625 l 347 626 q 344 629 346 626 q 341 636 343 632 q 336 647 339 640 q 335 682 329 664 q 356 717 342 700 q 390 747 369 733 q 432 769 410 761 q 460 776 444 775 l 461 778 l 464 781 q 483 804 475 796 q 501 828 490 813 q 543 890 522 857 q 583 957 564 924 q 618 1020 601 990 q 646 1071 635 1050 q 598 1095 640 1074 q 489 1146 556 1117 q 338 1209 422 1175 q 165 1272 253 1243 q -9 1320 76 1301 q -164 1339 -94 1339 q -410 1277 -321 1339 q -506 1103 -499 1215 q -479 999 -508 1042 q -418 929 -450 956 q -308 867 -372 892 q -190 842 -244 842 q -57 879 -107 842 q -6 981 -7 917 q -35 1063 0 1033 q -88 1087 -60 1082 q -129 1092 -117 1092 l -131 1092 q -92 1132 -124 1119 q -26 1144 -61 1144 q 61 1129 18 1144 q 135 1090 104 1114 q 181 996 183 1050 q 147 897 178 946 q 65 809 117 847 q -60 747 13 771 q -217 722 -132 722 q -352 747 -285 722 q -476 818 -419 772 q -572 937 -539 869 q -601 1075 -606 1004 q -565 1215 -597 1146 q -471 1338 -532 1283 q -322 1424 -410 1392 q -119 1457 -233 1457 q 20 1442 -57 1457 q 181 1404 97 1428 q 347 1351 264 1381 q 504 1294 431 1322 q 636 1240 578 1265 q 728 1200 694 1215 q 763 1224 732 1206 q 844 1261 793 1243 q 963 1291 894 1279 q 1110 1293 1031 1303 q 1225 1264 1171 1288 q 1319 1201 1279 1240 m 1326 1104 q 1315 1153 1338 1128 q 1243 1200 1292 1179 q 1190 1218 1219 1211 q 1136 1226 1160 1225 q 1035 1220 1083 1232 q 951 1190 988 1208 q 893 1157 915 1172 q 871 1142 871 1142 l 868 1136 l 874 1133 q 935 1106 904 1121 q 1000 1081 967 1092 q 1068 1062 1033 1069 q 1143 1054 1103 1054 q 1206 1057 1175 1054 q 1263 1066 1238 1060 q 1305 1082 1288 1072 q 1326 1104 1322 1092 z "},"G":{"ha":950,"x_min":-156,"x_max":1222,"o":"m 1028 1297 q 1145 1267 1104 1297 q 1204 1197 1186 1238 q 1222 1113 1222 1156 q 1215 1046 1222 1071 q 1158 942 1203 992 q 1053 849 1114 892 q 923 770 993 806 q 786 710 853 735 q 665 669 738 690 q 524 632 593 649 q 356 593 443 611 q 299 518 328 558 q 243 437 269 478 q 197 355 217 396 q 167 276 176 314 l 157 253 q 151 141 139 185 q 199 75 164 97 q 285 49 233 53 q 394 56 336 44 q 514 92 453 67 q 628 151 575 117 q 724 226 682 185 q 788 314 767 268 q 797 335 793 325 q 803 357 800 346 q 806 358 804 357 q 837 482 825 426 q 843 576 849 538 q 833 597 839 589 q 826 612 828 606 q 828 623 824 618 q 849 632 832 628 q 885 631 865 636 q 922 606 904 625 q 956 556 940 588 q 979 476 971 524 q 969 376 985 444 q 921 215 954 307 q 840 13 888 122 q 731 -208 792 -96 q 601 -426 671 -319 q 454 -621 531 -533 q 297 -771 378 -708 q 135 -856 217 -833 q 83 -859 110 -862 q 34 -840 57 -856 q -7 -798 11 -825 q -32 -729 -25 -771 q -12 -672 -36 -708 q 52 -592 11 -636 q 147 -497 93 -547 q 258 -399 201 -447 q 564 -153 392 -283 q 591 -108 575 -136 q 626 -44 607 -81 q 667 35 646 -8 q 708 124 688 78 q 550 42 636 74 q 379 3 464 11 q 219 10 294 -6 q 92 69 143 25 q 22 188 42 114 q 32 372 3 263 q 70 472 43 419 q 138 582 97 524 l 117 581 q -53 619 18 588 q -142 717 -124 651 q -143 812 -156 768 q -108 888 -131 856 q -58 937 -85 919 q -17 954 -32 954 q -6 948 -1 954 q -19 929 -10 942 q -37 899 -28 917 q -39 857 -46 881 q 39 760 -24 800 q 194 699 101 719 q 228 744 210 721 q 265 790 246 767 q 453 989 346 893 q 557 1081 506 1039 q 661 1157 608 1122 q 861 1263 774 1229 q 1028 1297 949 1297 m 82 -758 q 150 -724 114 -750 q 222 -660 186 -697 q 294 -578 258 -622 q 361 -487 329 -533 q 510 -251 436 -381 q 258 -465 368 -368 q 167 -549 211 -507 q 88 -626 122 -590 q 34 -687 54 -661 q 17 -725 14 -714 q 40 -757 21 -749 q 82 -758 58 -765 m 1115 1029 q 1101 1083 1124 1064 q 1051 1103 1079 1103 q 768 986 957 1103 q 702 944 743 972 q 608 874 661 917 q 531 803 567 839 q 463 733 494 767 q 438 704 450 718 q 413 676 426 690 q 604 703 507 679 q 794 765 701 728 q 885 810 833 781 q 986 878 938 840 q 1071 955 1035 915 q 1115 1029 1107 994 z "},"H":{"ha":975,"x_min":-240,"x_max":1263,"o":"m 1231 703 q 1256 689 1250 703 q 1253 664 1263 675 q 1200 620 1235 642 q 1122 581 1165 599 q 1031 552 1079 564 q 935 539 982 540 q 856 402 896 476 q 783 256 815 328 q 729 122 750 183 q 708 24 708 60 q 688 -3 708 -4 q 644 19 668 -3 q 599 82 619 42 q 579 174 579 122 q 593 247 579 204 q 628 339 607 290 q 674 438 649 388 q 721 535 699 489 q 560 527 646 532 q 386 511 474 522 q 295 353 342 438 q 211 192 249 269 q 149 51 174 114 q 125 -42 125 -11 q 103 -65 125 -62 q 56 -51 82 -68 q 9 3 31 -35 q -12 101 -12 42 q 3 166 -12 124 q 44 260 19 208 q 97 366 68 311 q 153 469 126 421 q 49 461 96 465 q -31 451 3 457 q -84 434 -65 444 q -103 406 -103 424 q -118 380 -103 382 q -151 390 -133 378 q -185 422 -169 401 q -200 468 -200 443 q -165 555 -200 525 q -67 600 -129 585 q 76 622 -6 615 q 249 638 157 628 q 351 809 296 717 q 460 994 406 901 q 564 1177 514 1088 q 653 1342 614 1267 q 715 1471 692 1417 q 738 1549 738 1525 q 717 1613 735 1585 q 667 1656 701 1636 q 567 1676 632 1676 q 431 1645 504 1676 q 286 1560 358 1614 q 147 1433 214 1506 q 33 1276 81 1360 q -39 1101 -15 1192 q -51 922 -62 1011 q -40 866 -49 897 q -12 807 -31 835 q 37 760 7 779 q 111 742 67 742 q 185 759 154 742 q 236 793 217 776 q 265 817 256 810 q 274 804 274 825 q 255 759 274 779 q 206 724 236 739 q 140 701 176 710 q 71 693 104 693 q -2 703 43 693 q -93 744 -47 714 q -176 829 -139 774 q -225 975 -212 885 q -207 1201 -240 1097 q -108 1390 -174 1306 q 44 1538 -43 1474 q 224 1644 132 1601 q 404 1710 317 1688 q 557 1732 492 1732 q 681 1715 621 1732 q 789 1665 742 1699 q 865 1580 836 1631 q 894 1461 894 1529 l 893 1472 q 879 1390 897 1443 q 828 1267 861 1336 q 750 1118 794 1199 q 656 953 706 1038 q 557 788 607 869 q 463 635 507 706 q 629 633 557 636 q 771 632 701 631 q 876 813 828 740 q 957 938 924 886 q 1006 1024 990 989 q 1018 1092 1022 1060 q 1035 1099 1017 1103 q 1077 1078 1054 1096 q 1119 1027 1100 1060 q 1139 947 1139 994 q 1137 892 1139 914 q 1122 842 1135 871 q 1078 765 1108 813 q 993 632 1049 718 q 1104 646 1063 635 q 1171 669 1146 657 q 1208 692 1196 682 q 1231 703 1221 703 z "},"I":{"ha":733,"x_min":-349,"x_max":1008,"o":"m 40 779 q 20 774 40 765 q -24 806 0 783 q -70 856 -49 828 q -94 908 -92 885 q -71 965 -97 925 q 4 1055 -44 1004 q 120 1160 53 1106 q 267 1258 188 1214 q 438 1332 347 1303 q 621 1361 528 1361 q 745 1344 690 1361 q 841 1300 800 1326 q 911 1241 882 1274 q 959 1178 940 1208 q 987 1122 978 1147 q 997 1086 996 1097 q 982 913 1008 1007 q 901 719 956 819 q 771 519 847 619 q 606 325 694 418 q 423 151 518 232 q 237 10 328 71 q 63 -84 146 -50 q -83 -118 -19 -118 q -220 -99 -168 -118 q -301 -53 -272 -81 q -339 6 -329 -26 q -348 66 -349 39 q -340 112 -347 93 q -329 131 -333 131 q -319 108 -322 131 q -308 57 -315 85 q -288 6 -301 29 q -249 -17 -275 -17 q -71 25 -164 -17 q 117 137 22 67 q 302 299 211 207 q 475 491 393 390 q 626 695 557 592 q 742 891 694 799 q 815 1059 790 983 q 833 1179 839 1135 q 789 1240 826 1226 q 694 1242 751 1253 q 565 1200 636 1231 q 420 1128 493 1169 q 278 1039 347 1086 q 153 948 208 992 q 66 868 99 904 q 33 813 33 832 q 37 794 33 800 q 40 779 40 789 z "},"J":{"ha":782,"x_min":-353,"x_max":992,"o":"m 608 1346 q 757 1312 688 1346 q 878 1224 826 1278 q 961 1102 931 1169 q 992 968 992 1035 q 957 784 992 889 q 863 562 922 679 q 726 322 804 444 q 562 82 649 199 q 384 -138 475 -35 q 209 -319 293 -242 q 53 -441 125 -396 q -69 -486 -19 -486 q -226 -465 -169 -486 q -311 -414 -283 -443 q -346 -355 -339 -385 q -353 -308 -353 -325 q -317 -169 -353 -246 q -222 -10 -282 -93 q -83 158 -162 72 q 88 324 -3 243 q 272 480 178 406 q 456 613 367 554 q 623 713 544 672 q 758 769 701 754 q 801 885 782 826 q 832 995 818 935 q 846 1110 846 1056 q 838 1166 846 1139 q 813 1214 829 1193 q 774 1248 797 1235 q 722 1261 751 1261 q 593 1238 664 1261 q 446 1175 522 1214 q 290 1085 369 1136 q 138 981 211 1035 q 0 875 64 928 q -112 778 -64 822 q -187 705 -160 735 q -215 665 -215 675 q -212 652 -215 658 q -208 641 -210 646 q -208 633 -206 636 q -218 629 -210 629 q -272 642 -247 629 q -314 674 -296 654 q -342 716 -332 693 q -353 758 -353 739 q -324 811 -353 776 q -244 891 -294 846 q -127 987 -194 936 q 17 1088 -60 1038 q 174 1185 93 1139 q 333 1267 254 1232 q 482 1324 411 1303 q 608 1346 553 1346 m -211 -372 q -99 -328 -164 -372 q 41 -211 -33 -283 q 193 -47 115 -139 q 346 142 271 46 q 713 657 521 368 q 443 522 572 608 q 203 333 314 436 q 3 124 93 231 q -152 -75 -87 17 q -251 -231 -217 -167 q -286 -310 -286 -294 q -279 -346 -286 -333 q -261 -365 -272 -358 q -237 -372 -250 -371 q -211 -372 -224 -372 z "},"K":{"ha":869,"x_min":-454,"x_max":1906,"o":"m 19 193 q 46 331 19 257 q 115 483 72 404 q 214 642 158 561 q 327 800 269 722 q 440 950 385 878 q 539 1083 496 1022 q 608 1190 582 1143 q 635 1265 635 1238 q 622 1314 635 1294 q 590 1344 608 1333 q 549 1358 571 1354 q 510 1363 528 1363 q 351 1330 438 1363 q 178 1242 265 1297 q 8 1113 90 1186 q -137 958 -74 1039 q -240 792 -201 876 q -278 629 -278 707 q -237 491 -278 543 q -132 439 -197 439 q -51 455 -81 439 q -5 490 -21 471 q 17 526 11 510 q 28 542 24 542 q 47 519 44 542 q 31 467 50 496 q -32 416 13 439 q -156 393 -76 393 q -290 417 -233 393 q -382 479 -346 442 q -436 563 -418 517 q -454 651 -454 608 q -415 840 -454 746 q -306 1019 -375 935 q -145 1177 -237 1104 q 53 1303 -53 1250 q 272 1388 158 1357 q 497 1418 386 1418 q 611 1399 564 1418 q 688 1347 658 1381 q 730 1265 717 1313 q 743 1157 743 1217 q 730 1084 743 1124 q 696 1001 717 1044 q 649 915 675 958 q 594 831 622 871 q 447 635 529 735 q 471 625 457 629 q 497 619 482 622 q 528 617 511 617 q 656 643 586 617 q 797 713 726 669 q 934 814 868 757 q 1051 931 1000 871 q 1134 1051 1103 992 q 1165 1163 1165 1111 q 1153 1228 1165 1206 q 1124 1258 1142 1250 q 1087 1267 1107 1267 q 1049 1264 1067 1267 q 1020 1261 1032 1261 q 1008 1271 1008 1261 q 1017 1284 1008 1279 q 1039 1292 1026 1289 q 1065 1297 1051 1296 q 1088 1299 1079 1299 q 1158 1285 1119 1299 q 1231 1240 1197 1271 q 1286 1158 1264 1208 q 1308 1033 1308 1107 q 1265 910 1308 972 q 1153 792 1222 849 q 994 688 1083 736 q 813 603 906 639 q 634 547 721 567 q 481 526 547 526 q 849 22 657 243 q 1024 -163 931 -72 q 1217 -325 1117 -254 q 1421 -439 1317 -396 q 1628 -482 1525 -482 q 1762 -455 1717 -482 q 1825 -392 1807 -428 q 1843 -321 1843 -356 q 1843 -269 1843 -286 q 1853 -253 1843 -257 q 1874 -256 1863 -249 q 1896 -281 1886 -262 q 1906 -333 1906 -300 q 1902 -390 1906 -356 q 1888 -462 1899 -424 q 1856 -538 1876 -500 q 1801 -607 1835 -576 q 1717 -656 1767 -637 q 1600 -675 1668 -675 q 1371 -624 1485 -675 q 1149 -491 1257 -574 q 942 -302 1042 -408 q 757 -85 843 -196 q 372 507 554 175 q 260 340 308 421 q 219 269 239 306 q 183 197 199 232 q 158 128 168 161 q 149 71 149 96 q 153 35 149 50 q 161 11 158 21 q 161 -3 164 1 q 142 -7 158 -7 q 103 6 125 -7 q 63 45 82 19 q 32 108 44 71 q 19 193 19 144 z "},"L":{"ha":886,"x_min":-358,"x_max":1863,"o":"m 1825 -197 q 1849 -231 1839 -204 q 1860 -292 1858 -257 q 1856 -369 1863 -328 q 1828 -446 1849 -410 q 1744 -532 1800 -494 q 1607 -582 1689 -569 q 1419 -576 1525 -594 q 1185 -494 1313 -557 q 995 -380 1085 -446 q 821 -241 906 -314 q 652 -94 736 -168 q 481 46 568 -19 q 470 24 481 46 q 437 -28 460 3 q 376 -96 414 -60 q 282 -163 338 -132 q 151 -215 226 -194 q -22 -236 75 -236 q -208 -194 -133 -236 q -321 -87 -283 -151 q -356 51 -358 -24 q -313 189 -354 125 q -191 295 -272 253 q 14 338 -110 338 q 124 326 68 338 q 230 298 181 314 q 318 265 279 282 q 376 240 357 249 q 382 238 378 239 q 388 235 385 236 q 393 233 390 235 q 408 265 396 239 q 438 333 419 292 q 483 431 457 375 q 542 551 510 486 q 454 560 497 553 q 296 615 358 574 q 199 716 233 657 q 156 846 164 775 q 164 991 149 917 q 215 1137 179 1065 q 304 1268 251 1208 q 421 1355 353 1324 q 555 1401 489 1386 q 674 1417 621 1415 q 749 1417 728 1419 q 801 1379 825 1404 q 782 1368 792 1368 q 763 1371 772 1368 q 742 1383 751 1375 q 644 1360 696 1379 q 546 1308 600 1343 q 435 1207 492 1272 q 317 1010 346 1106 q 302 839 288 915 q 367 712 317 763 q 492 650 418 661 q 518 647 503 649 q 589 647 544 644 q 688 834 635 738 q 796 1023 740 931 q 909 1197 851 1115 q 1022 1342 967 1279 q 1130 1440 1078 1404 q 1228 1476 1182 1476 q 1256 1458 1247 1476 q 1269 1413 1265 1439 q 1271 1357 1272 1386 q 1268 1308 1269 1328 q 1229 1113 1257 1201 q 1163 951 1201 1024 q 1078 821 1124 878 q 985 721 1032 764 q 743 561 875 619 l 542 150 q 719 35 629 96 q 897 -86 808 -26 q 1071 -200 985 -146 q 1236 -293 1157 -254 q 1422 -367 1336 -342 q 1577 -394 1508 -392 q 1694 -376 1646 -396 q 1767 -317 1743 -357 q 1785 -271 1779 -294 q 1795 -228 1790 -247 q 1806 -201 1800 -210 q 1825 -197 1813 -192 m 1179 1360 q 1150 1331 1171 1360 q 1100 1254 1129 1301 q 1037 1146 1071 1207 q 968 1022 1003 1085 q 789 686 886 875 q 881 736 829 686 q 983 861 932 786 q 1080 1023 1035 936 q 1155 1185 1125 1110 q 1193 1310 1185 1260 q 1179 1360 1201 1360 m -14 -100 q 119 -77 60 -100 q 224 -19 178 -54 q 301 60 269 17 q 349 142 332 103 q 249 192 304 169 q 138 226 201 211 q 3 242 75 242 q -187 217 -117 242 q -285 153 -257 192 q -303 71 -312 115 q -256 -12 -294 26 q -156 -75 -218 -50 q -14 -100 -93 -100 z "},"O":{"ha":1025,"x_min":1,"x_max":1304,"o":"m 1044 1361 q 1148 1342 1100 1361 q 1231 1286 1196 1324 q 1285 1192 1265 1249 q 1304 1057 1304 1135 q 1265 838 1304 958 q 1159 596 1226 718 q 1001 358 1092 474 q 808 153 911 243 q 597 10 706 64 q 382 -44 488 -44 q 252 -23 319 -44 q 129 51 185 -1 q 38 192 74 103 q 1 417 1 281 q 26 597 1 506 q 92 771 51 688 q 185 926 133 854 q 288 1052 236 999 q 389 1136 340 1106 q 472 1167 438 1167 q 535 1159 513 1167 q 572 1142 558 1151 q 594 1117 588 1131 q 721 1239 650 1185 q 786 1283 750 1261 q 863 1323 822 1306 q 950 1351 904 1340 q 1044 1361 996 1361 m 390 35 q 524 59 460 35 q 647 123 589 83 q 755 213 704 163 q 847 315 806 263 q 1024 597 944 439 q 976 585 1001 590 q 930 577 956 581 q 878 574 904 574 q 783 589 825 574 q 708 630 740 604 q 653 688 676 656 q 613 754 629 721 q 561 936 574 833 q 379 760 458 854 q 313 673 346 719 q 255 575 281 626 q 214 468 229 524 q 199 357 199 413 q 249 122 199 210 q 390 35 299 35 m 1082 699 q 1157 924 1138 825 q 1166 1006 1165 965 q 1156 1078 1167 1047 q 1118 1129 1144 1110 q 1044 1149 1092 1149 q 901 1119 963 1149 q 797 1049 839 1090 q 734 960 756 1007 q 713 881 713 914 q 725 790 713 832 q 761 715 738 747 q 818 665 785 683 q 892 646 851 646 q 966 653 932 646 q 1026 672 1000 661 q 1082 699 1057 683 z "},"P":{"ha":707,"x_min":-186,"x_max":1214,"o":"m 563 1074 q 581 1087 561 1089 q 624 1070 600 1085 q 669 1029 647 1056 q 693 968 690 1003 q 688 928 694 951 q 671 880 682 906 q 645 827 660 854 q 615 774 631 800 q 533 647 579 713 q 751 721 658 669 q 905 837 844 772 q 993 971 965 901 q 1015 1101 1021 1040 q 977 1203 1010 1161 q 897 1271 944 1244 q 795 1308 850 1297 q 692 1319 740 1319 q 507 1294 599 1319 q 333 1226 415 1269 q 181 1124 250 1182 q 61 1001 111 1067 q -15 868 11 936 q -36 735 -42 800 q -24 678 -33 700 q -6 643 -15 657 q 19 619 6 628 q 53 597 40 607 q 67 582 64 589 q 50 575 69 575 q -26 592 13 575 q -97 644 -65 608 q -152 734 -129 679 q -181 865 -175 789 q -149 1013 -186 944 q -47 1138 -112 1082 q 105 1238 18 1194 q 288 1312 192 1282 q 482 1358 383 1342 q 668 1374 581 1374 q 843 1358 751 1374 q 1014 1305 935 1343 q 1147 1201 1093 1267 q 1210 1036 1201 1136 q 1203 942 1214 986 q 1171 858 1192 897 q 1123 788 1150 819 q 1067 729 1096 756 q 907 624 999 668 l 831 586 q 696 542 765 557 q 568 521 626 528 q 436 514 500 514 q 297 324 358 411 q 246 247 271 286 q 201 174 221 208 q 170 113 182 140 q 158 69 158 85 q 158 20 158 38 q 133 3 157 3 q 108 14 121 3 q 83 48 94 25 q 65 104 72 71 q 57 183 57 138 q 95 315 57 236 q 190 485 133 394 q 313 669 247 575 q 435 844 379 763 q 528 986 492 925 q 563 1074 564 1047 z "},"Q":{"ha":1026,"x_min":-125,"x_max":2506,"o":"m 2451 -396 q 2480 -435 2467 -404 q 2499 -508 2493 -465 q 2501 -599 2506 -550 q 2479 -689 2497 -647 q 2397 -790 2454 -746 q 2250 -849 2339 -833 q 2042 -842 2161 -864 q 1774 -746 1922 -819 q 1497 -572 1632 -675 q 1229 -357 1361 -468 q 969 -142 1097 -246 q 717 33 842 -37 q 504 -103 613 -53 q 289 -154 396 -154 q 242 -151 271 -154 q 187 -139 214 -147 q 140 -117 160 -131 q 119 -83 119 -104 q 125 -67 119 -64 q 148 -83 131 -71 q 198 -109 165 -96 q 285 -122 231 -122 q 492 -73 394 -122 q 675 57 589 -24 q 664 63 669 58 q 502 124 576 106 q 366 142 428 142 q 256 128 304 142 q 175 97 208 115 q 122 60 142 79 q 97 31 101 42 q 88 -7 90 14 q 81 -45 85 -28 q 72 -72 78 -62 q 51 -74 65 -81 q 72 139 -8 -43 q 157 208 92 182 q 316 238 222 235 q 524 218 410 240 q 756 143 639 196 q 912 367 843 246 q 1028 606 981 489 q 1101 820 1076 722 q 1126 975 1126 918 q 1123 1022 1126 994 q 1106 1073 1119 1049 q 1067 1115 1093 1097 q 997 1132 1042 1132 q 822 1099 917 1132 q 633 1008 728 1065 q 447 874 538 951 q 283 709 357 797 q 159 526 210 621 q 92 340 108 432 q 87 303 89 321 q 85 265 85 285 q 91 246 85 256 q 92 228 97 236 q 63 214 88 219 q -21 208 39 208 q -56 217 -37 208 q -90 243 -75 226 q -115 284 -106 260 q -125 340 -125 308 q -76 580 -125 458 q 56 815 -28 701 q 251 1027 139 928 q 487 1200 363 1126 q 742 1316 611 1274 q 997 1358 874 1358 q 1109 1339 1058 1358 q 1197 1278 1160 1319 q 1254 1176 1233 1238 q 1275 1031 1275 1114 q 1239 814 1275 932 q 1140 574 1203 696 q 992 333 1078 451 q 808 117 907 214 q 1058 -28 929 56 q 1315 -200 1186 -112 q 1569 -369 1444 -287 q 1808 -508 1694 -451 q 2022 -596 1924 -567 q 2197 -628 2121 -625 q 2324 -607 2272 -631 q 2396 -536 2375 -583 q 2411 -482 2407 -510 q 2419 -432 2415 -454 q 2430 -399 2424 -410 q 2451 -396 2436 -387 z "},"R":{"ha":904,"x_min":-114,"x_max":1713,"o":"m 1657 -196 q 1685 -200 1672 -193 q 1704 -224 1696 -207 q 1713 -279 1713 -242 q 1694 -372 1713 -317 q 1635 -479 1675 -428 q 1534 -567 1596 -531 q 1385 -604 1472 -604 q 1240 -562 1314 -604 q 1091 -450 1165 -519 q 944 -289 1017 -381 q 806 -99 872 -197 q 682 97 740 -1 q 576 278 624 194 q 496 424 529 361 q 447 514 463 486 q 412 472 438 501 q 353 402 386 442 q 284 318 319 363 q 219 232 249 274 q 171 156 190 190 q 151 101 151 121 q 152 73 151 90 q 151 38 153 56 q 142 8 149 21 q 119 -4 135 -4 q 88 6 103 -4 q 63 40 74 17 q 45 103 51 64 q 39 200 39 142 q 62 290 39 238 q 122 401 85 342 q 207 526 160 461 q 304 654 254 590 q 401 778 354 718 q 486 888 449 838 q 547 975 524 938 q 569 1031 569 1013 q 592 1043 569 1044 q 641 1028 614 1042 q 691 989 668 1014 q 714 931 714 964 q 690 849 714 897 q 636 756 665 800 q 558 647 601 703 q 776 719 682 669 q 933 832 869 769 q 1029 963 997 894 q 1061 1089 1061 1031 q 1032 1187 1061 1147 q 958 1251 1003 1226 q 862 1288 914 1276 q 763 1299 810 1299 q 582 1274 672 1299 q 408 1208 492 1250 q 253 1110 325 1167 q 127 992 181 1054 q 43 863 74 929 q 13 733 13 796 q 19 678 13 700 q 35 644 26 657 q 58 621 44 629 q 81 600 72 608 q 91 585 88 592 q 83 579 94 579 q 12 595 47 579 q -51 645 -24 611 q -97 732 -79 679 q -114 858 -114 785 q -74 1001 -114 935 q 34 1123 -33 1068 q 189 1220 101 1178 q 372 1292 276 1263 q 563 1336 467 1321 q 744 1351 660 1351 q 913 1337 825 1351 q 1074 1286 1001 1322 q 1195 1186 1147 1250 q 1243 1025 1243 1122 q 1229 933 1243 976 q 1192 853 1215 890 q 1140 785 1169 817 q 1081 728 1111 753 q 918 625 1008 668 l 842 590 q 704 547 775 563 q 575 525 633 532 q 628 445 594 499 q 708 322 663 392 q 810 174 754 253 q 927 16 865 94 q 1056 -135 989 -62 q 1190 -264 1122 -208 q 1324 -353 1257 -319 q 1454 -386 1392 -386 q 1578 -367 1536 -386 q 1638 -320 1619 -349 q 1656 -258 1656 -292 q 1657 -196 1657 -225 z "},"T":{"ha":410,"x_min":-611,"x_max":1332,"o":"m 1207 1285 q 1266 1266 1242 1285 q 1305 1218 1290 1247 q 1326 1155 1319 1189 q 1332 1090 1332 1121 q 1298 979 1332 1026 q 1211 901 1264 932 q 1092 856 1158 871 q 964 842 1026 842 q 823 856 893 842 q 694 894 753 869 q 669 906 682 900 q 644 917 656 911 l 638 921 q 381 443 493 663 q 286 253 332 349 q 204 74 240 158 q 146 -76 168 -10 q 124 -178 124 -142 q 105 -197 124 -206 q 64 -156 86 -187 q 23 -76 42 -124 q 4 24 4 -28 q 24 123 4 61 q 77 260 44 185 q 151 421 110 336 q 238 588 193 506 q 471 1001 340 781 l 465 1004 q 428 1033 461 1007 q 342 1097 394 1060 q 223 1177 290 1135 q 84 1256 156 1219 q -60 1315 13 1292 q -196 1339 -133 1339 q -325 1317 -267 1339 q -426 1257 -383 1296 q -495 1164 -469 1218 q -526 1046 -521 1110 q -524 980 -529 1011 q -509 921 -519 949 q -484 871 -499 893 q -454 832 -469 849 q -411 795 -436 811 q -358 768 -386 779 q -301 751 -329 757 q -249 746 -274 746 q -174 760 -211 746 q -106 800 -136 775 q -57 858 -76 825 q -37 928 -37 890 q -40 962 -37 943 q -49 997 -43 981 q -63 1023 -54 1013 q -83 1033 -72 1033 q -115 1028 -100 1033 q -142 1020 -131 1024 q -159 1019 -153 1017 q -165 1036 -165 1021 q -140 1085 -165 1071 q -83 1100 -115 1100 q -15 1081 -40 1100 q 22 1037 10 1063 q 38 985 35 1011 q 42 942 42 958 q 26 839 42 893 q -28 739 10 785 q -126 663 -65 693 q -276 633 -187 633 q -398 662 -339 633 q -504 742 -457 690 q -585 879 -560 803 q -604 1038 -611 956 q -564 1198 -597 1119 q -473 1338 -531 1276 q -334 1438 -415 1400 q -150 1475 -253 1475 q 21 1439 -75 1475 q 222 1349 117 1403 q 436 1233 326 1296 q 651 1117 546 1171 q 849 1028 756 1064 q 1018 992 943 992 q 1098 1005 1056 992 q 1176 1041 1140 1018 q 1234 1094 1211 1064 q 1257 1157 1257 1124 q 1237 1208 1257 1185 q 1199 1249 1217 1232 q 1178 1275 1182 1265 q 1207 1285 1174 1285 z "},"U":{"ha":899,"x_min":-424,"x_max":1140,"o":"m 768 697 q 808 762 785 724 q 856 841 832 800 q 900 921 879 882 q 932 989 921 960 q 938 1013 936 1000 q 942 1035 939 1025 q 951 1051 944 1044 q 972 1057 957 1057 q 1005 1046 986 1057 q 1040 1012 1024 1035 q 1065 954 1056 989 q 1071 874 1075 919 q 1046 803 1068 847 q 996 714 1024 760 q 917 576 958 647 q 835 437 875 504 q 762 309 796 369 q 706 203 728 249 q 676 132 683 158 q 681 106 668 106 q 763 140 711 106 q 874 229 815 174 q 991 353 932 285 q 1096 492 1050 422 q 1114 506 1104 503 q 1131 506 1124 510 q 1140 490 1139 501 q 1129 463 1140 479 q 1094 413 1122 451 q 1027 324 1067 375 q 940 218 988 274 q 843 115 892 163 q 749 38 794 68 q 669 7 704 7 l 672 8 q 642 17 664 8 q 598 42 621 26 q 558 77 575 57 q 540 122 540 97 q 558 269 540 197 q 599 399 576 340 q 658 525 624 465 q 617 471 651 514 q 534 371 583 428 q 426 250 485 314 q 310 133 368 186 q 203 44 253 79 q 122 8 153 8 q 60 28 83 8 q 23 76 36 47 q 6 137 10 104 q 1 197 1 169 q 24 265 1 215 q 82 384 46 315 q 164 535 118 453 q 258 704 210 618 q 351 874 306 790 q 433 1026 397 957 q 492 1146 469 1096 q 514 1215 514 1196 q 476 1282 514 1253 q 376 1311 439 1311 q 260 1285 328 1311 q 121 1213 193 1258 q -21 1103 49 1167 q -144 965 -90 1040 q -227 808 -197 890 q -249 640 -257 725 q -226 553 -244 585 q -186 505 -208 521 q -142 485 -164 489 q -107 481 -119 481 q -40 496 -60 481 q -11 529 -19 511 q 2 563 -3 547 q 24 578 7 578 q 47 556 40 578 q 40 506 54 533 q -13 457 26 479 q -129 435 -53 435 q -258 460 -206 435 q -346 522 -311 485 q -397 603 -381 560 q -417 683 -414 646 q -395 838 -424 758 q -312 992 -367 917 q -181 1133 -258 1067 q -13 1248 -104 1199 q 180 1326 78 1297 q 386 1356 282 1356 q 501 1328 457 1356 q 570 1263 544 1301 q 606 1184 596 1225 q 619 1117 617 1143 q 604 1022 622 1081 q 555 894 586 964 q 483 745 524 824 q 401 590 442 667 q 321 445 360 514 q 256 324 282 376 q 217 240 229 271 q 218 208 206 208 q 253 229 225 208 q 320 285 281 250 q 408 363 360 319 q 507 453 457 407 q 768 697 624 560 z "},"V":{"ha":726,"x_min":-867,"x_max":982,"o":"m 679 1208 q 764 1187 713 1208 q 864 1120 815 1165 q 947 1006 913 1075 q 982 839 982 936 q 942 726 982 790 q 838 589 903 661 q 690 440 772 517 q 519 292 607 364 q 348 156 432 219 q 197 44 264 92 q 88 -32 131 -4 q 42 -60 46 -60 q 15 -54 35 -60 q -24 -29 -4 -49 q -60 27 -44 -10 q -75 125 -75 64 q -57 194 -75 144 q -8 314 -39 244 q 60 467 22 383 q 138 635 99 550 q 216 804 178 721 q 285 957 254 888 q 333 1076 315 1026 q 351 1146 351 1126 q 335 1197 351 1171 q 290 1244 319 1222 q 220 1278 261 1265 q 131 1292 179 1292 q -85 1256 21 1292 q -285 1162 -192 1221 q -456 1024 -379 1103 q -587 861 -533 946 q -665 690 -640 776 q -679 528 -690 604 q -645 441 -671 475 q -586 388 -619 407 q -517 360 -553 368 q -453 353 -481 353 q -379 365 -414 353 q -316 394 -344 378 q -264 426 -287 410 q -224 451 -240 443 q -200 456 -208 460 q -192 428 -192 451 q -219 371 -192 394 q -283 331 -246 347 q -358 308 -319 315 q -417 300 -396 300 q -556 322 -483 300 q -690 390 -628 344 q -798 501 -753 435 q -856 654 -843 567 q -837 813 -867 731 q -745 972 -807 894 q -593 1117 -683 1049 q -392 1238 -503 1186 q -154 1320 -282 1290 q 111 1350 -26 1350 q 224 1336 164 1350 q 338 1292 285 1322 q 428 1214 390 1263 q 476 1096 467 1165 q 470 995 482 1053 q 435 871 458 938 q 381 732 413 804 q 314 588 349 660 q 258 472 293 539 q 190 334 224 404 q 131 198 156 264 q 107 85 107 132 q 212 171 146 118 q 355 290 278 224 q 511 432 432 356 q 654 589 590 508 q 759 751 718 669 q 800 911 800 833 q 787 1015 800 968 q 754 1094 774 1061 q 712 1144 735 1126 q 669 1161 689 1161 q 637 1169 650 1161 q 622 1185 624 1176 q 633 1201 621 1193 q 679 1208 646 1208 z "},"W":{"ha":1108,"x_min":-707,"x_max":1336,"o":"m -344 351 q -227 376 -278 351 q -142 422 -176 400 q -89 453 -107 444 q -71 428 -71 461 q -101 370 -71 394 q -172 331 -132 346 q -253 308 -212 315 q -315 300 -294 300 q -453 322 -383 300 q -580 390 -524 344 q -672 501 -636 435 q -707 656 -707 568 q -666 814 -707 732 q -552 974 -625 896 q -378 1121 -479 1051 q -159 1242 -278 1190 q 93 1324 -40 1293 q 364 1354 226 1354 q 475 1340 417 1354 q 582 1296 533 1326 q 663 1217 631 1265 q 694 1099 694 1168 q 671 990 694 1053 q 608 854 647 926 q 520 705 569 782 q 419 552 471 628 q 317 408 367 476 q 229 283 268 339 q 167 190 190 228 q 143 142 143 153 q 190 186 157 153 q 268 267 224 219 q 366 372 313 315 q 472 488 419 429 q 746 789 597 624 q 757 819 746 814 q 784 817 768 825 q 819 790 800 808 q 855 748 839 771 q 882 701 871 725 q 893 656 893 676 q 876 595 893 635 q 835 505 860 556 q 780 396 810 454 q 725 281 750 338 q 683 172 700 224 q 667 82 667 121 q 756 169 706 117 q 861 288 807 222 q 967 431 915 354 q 1061 589 1019 508 q 1128 752 1103 669 q 1153 914 1153 835 q 1140 1017 1153 971 q 1106 1097 1126 1064 q 1063 1147 1086 1129 q 1019 1164 1039 1164 q 987 1172 1000 1164 q 972 1188 974 1179 q 984 1205 971 1197 q 1031 1213 997 1213 q 1115 1191 1064 1213 q 1216 1124 1167 1169 q 1301 1008 1265 1078 q 1336 840 1336 938 q 1306 726 1336 792 q 1224 589 1275 661 q 1109 440 1174 517 q 976 291 1044 364 q 842 154 908 218 q 724 42 776 90 q 639 -35 672 -7 q 601 -62 606 -62 q 575 -57 594 -62 q 535 -32 556 -51 q 499 24 515 -12 q 483 122 483 61 q 492 192 483 153 q 517 272 501 231 q 553 358 533 314 q 593 443 572 401 q 703 642 640 540 q 465 394 572 514 q 279 181 358 274 q 115 -25 188 71 q 89 -58 115 -53 q 31 -48 63 -62 q -26 0 0 -33 q -53 82 -53 33 q -6 216 -53 132 q 110 401 40 300 q 262 610 181 501 q 413 822 343 719 q 530 1009 483 924 q 576 1149 576 1094 q 563 1200 576 1174 q 524 1248 550 1226 q 460 1283 499 1269 q 374 1296 422 1296 q 151 1260 263 1296 q -62 1165 40 1225 q -253 1027 -164 1106 q -407 863 -342 949 q -510 691 -472 778 q -547 528 -547 604 q -526 440 -547 474 q -474 386 -506 406 q -408 359 -443 367 q -344 351 -372 351 z "},"X":{"ha":867,"x_min":-196,"x_max":1392,"o":"m 786 99 q 803 103 793 99 q 822 110 813 107 q 840 115 831 114 q 854 113 849 117 q 861 79 871 99 q 828 42 851 60 q 776 13 806 25 q 724 0 746 0 q 602 27 651 0 q 522 97 553 54 q 473 194 490 140 q 448 303 456 249 q 440 409 440 358 q 439 494 439 460 q 328 417 386 458 q 216 334 271 376 q 111 248 161 292 q 24 162 61 204 q -35 79 -12 119 q -57 3 -57 39 q -78 -41 -57 -37 q -126 -17 -100 -44 q -174 63 -153 10 q -196 189 -196 115 q -166 264 -196 224 q -85 348 -136 304 q 32 436 -35 392 q 172 524 99 481 q 322 609 246 568 q 465 686 397 650 q 465 825 465 749 q 463 969 464 901 q 461 1131 461 1049 q 452 1180 461 1163 q 431 1209 443 1197 q 410 1232 419 1221 q 400 1264 400 1243 q 406 1269 400 1265 q 420 1274 413 1272 q 435 1278 428 1276 q 446 1279 443 1279 q 448 1278 447 1279 q 450 1278 449 1278 q 533 1242 497 1278 q 591 1140 568 1206 q 626 981 614 1074 q 638 772 638 888 q 791 844 711 806 q 947 921 871 882 q 1092 999 1024 960 q 1213 1074 1161 1038 q 1296 1143 1265 1111 q 1326 1201 1326 1175 q 1319 1236 1326 1218 q 1310 1269 1311 1254 q 1322 1293 1310 1283 q 1371 1303 1333 1303 q 1384 1292 1379 1303 q 1390 1265 1389 1282 q 1388 1227 1392 1249 q 1376 1185 1385 1206 q 1324 1104 1363 1147 q 1231 1015 1286 1061 q 1106 918 1175 968 q 959 817 1036 868 q 801 714 882 765 q 643 614 721 663 q 650 412 643 506 q 673 248 657 318 q 717 138 689 178 q 786 99 744 99 z "},"Y":{"ha":868,"x_min":-508,"x_max":1108,"o":"m 1056 722 q 828 286 935 489 q 736 112 782 200 q 649 -56 690 24 q 574 -198 607 -135 q 521 -299 540 -261 q 490 -360 506 -331 q 456 -421 474 -390 q 369 -553 414 -490 q 276 -665 324 -615 q 176 -750 228 -715 q 71 -800 125 -785 q 19 -803 47 -807 q -35 -785 -10 -800 q -83 -745 -61 -771 q -117 -679 -106 -719 q -103 -624 -122 -658 q -49 -547 -85 -590 q 33 -457 -14 -504 q 129 -362 79 -410 q 399 -128 246 -254 q 448 -49 421 -94 q 503 48 475 -4 q 560 155 532 100 q 615 263 589 210 q 739 521 676 386 q 692 465 731 508 q 599 364 654 421 q 479 243 544 307 q 351 126 414 179 q 231 39 288 74 q 140 4 175 4 q 68 26 96 4 q 26 79 40 47 q 6 148 11 111 q 1 217 1 185 q 23 295 1 243 q 80 414 44 347 q 160 559 115 481 q 251 718 204 638 q 343 877 299 799 q 423 1024 388 956 q 480 1145 458 1092 q 501 1228 501 1199 q 460 1300 501 1269 q 353 1331 419 1331 q 227 1303 300 1331 q 77 1225 154 1275 q -75 1108 0 1175 q -207 960 -150 1040 q -296 790 -264 879 q -319 610 -328 701 q -296 516 -315 550 q -253 465 -276 482 q -206 442 -229 447 q -168 438 -182 438 q -95 454 -117 438 q -65 490 -74 471 q -51 526 -56 510 q -26 543 -46 543 q -1 519 -8 543 q -10 466 6 494 q -68 413 -25 438 q -193 389 -111 389 q -332 416 -275 389 q -426 483 -389 443 q -481 569 -462 524 q -501 654 -499 615 q -478 819 -508 736 q -390 981 -449 903 q -249 1127 -332 1058 q -67 1247 -165 1196 q 140 1326 31 1297 q 363 1356 250 1356 q 485 1330 438 1356 q 560 1268 533 1304 q 599 1192 588 1232 q 614 1124 611 1153 q 599 1024 617 1085 q 549 888 581 963 q 476 732 518 814 q 393 571 435 650 q 312 419 351 492 q 244 293 272 347 q 201 206 215 239 q 197 174 188 174 q 238 193 207 174 q 311 244 268 213 q 406 315 354 275 q 510 397 457 356 q 782 622 632 496 l 833 718 q 926 904 890 822 q 963 1024 963 986 q 985 1038 963 1040 q 1035 1016 1008 1036 q 1085 958 1063 996 q 1108 863 1108 919 q 1094 807 1108 843 q 1056 722 1081 771 m -4 -707 q 58 -673 26 -699 q 119 -612 89 -647 q 180 -533 150 -576 q 236 -447 210 -490 q 357 -222 297 -346 q 136 -428 232 -335 q 56 -508 94 -468 q -11 -581 18 -547 q -57 -640 -40 -615 q -71 -676 -74 -665 q -45 -706 -64 -699 q -4 -707 -26 -714 z "},"Z":{"ha":839,"x_min":0,"x_max":1532,"o":"m 1101 -349 q 1271 -331 1200 -349 q 1390 -287 1342 -312 q 1466 -235 1438 -262 q 1509 -190 1494 -208 q 1528 -165 1524 -171 q 1532 -179 1532 -160 q 1522 -235 1532 -199 q 1489 -312 1513 -271 q 1426 -398 1465 -354 q 1325 -477 1386 -442 q 1179 -535 1264 -512 q 982 -557 1094 -557 q 801 -512 879 -557 q 659 -401 724 -468 q 538 -256 594 -335 q 424 -111 482 -178 q 300 0 365 -44 q 151 44 235 44 q 97 38 124 44 q 49 31 71 32 q 13 40 26 31 q 0 79 0 49 q 56 222 0 147 q 202 374 111 297 q 410 526 293 450 q 647 672 526 603 q 885 803 768 742 q 1092 913 1001 865 q 1239 991 1183 960 q 1294 1032 1294 1022 q 1125 1028 1210 1029 q 968 1024 1051 1025 q 814 1024 885 1024 q 638 1031 703 1024 q 547 1054 574 1039 q 491 1105 517 1072 q 447 1174 465 1138 q 417 1247 428 1210 q 403 1310 406 1283 q 410 1348 401 1336 q 438 1349 418 1360 q 448 1337 446 1344 q 452 1321 450 1329 q 458 1304 454 1313 q 474 1290 463 1296 q 510 1269 488 1282 q 561 1244 532 1256 q 625 1223 590 1232 q 700 1214 660 1214 q 874 1217 793 1214 q 1027 1226 956 1221 q 1161 1234 1099 1231 q 1282 1238 1224 1238 q 1384 1220 1347 1238 q 1438 1178 1421 1203 q 1460 1126 1456 1153 q 1464 1078 1464 1099 q 1408 1002 1464 1050 q 1261 893 1353 954 q 1053 761 1169 832 q 815 617 936 690 q 576 473 693 544 q 368 338 460 401 q 221 221 276 274 q 165 133 165 168 q 311 98 242 133 q 449 8 381 63 q 588 -108 517 -46 q 738 -224 658 -169 q 906 -313 817 -278 q 1101 -349 994 -349 z "},"":{"ha":649,"x_min":-333,"x_max":882,"o":"m 354 786 q 292 807 321 786 q 263 867 263 828 q 290 926 263 907 q 349 944 317 944 q 411 926 382 944 q 440 867 440 908 q 428 820 440 836 q 399 797 415 804 q 369 788 383 789 q 354 786 356 786 m 601 786 q 539 807 568 786 q 510 867 510 828 q 537 926 510 907 q 596 944 564 944 q 658 926 629 944 q 688 867 688 908 q 675 820 688 836 q 647 797 663 804 q 617 788 631 789 q 601 786 603 786 m 839 494 q 751 380 801 439 q 650 267 701 321 q 551 172 599 214 q 471 106 504 129 q 551 249 515 181 q 610 374 586 317 q 647 476 635 431 q 657 549 658 521 q 636 620 653 589 q 601 672 619 651 q 567 698 582 692 q 553 694 551 704 q 538 592 556 654 q 487 458 519 529 q 413 316 454 388 q 331 188 372 244 q 253 94 290 131 q 192 58 215 58 q 176 87 169 58 q 203 161 182 115 q 254 263 224 207 q 313 373 285 318 q 359 475 340 428 q 375 550 378 522 q 351 623 371 592 q 310 672 332 654 q 270 692 288 689 q 254 683 253 696 q 242 605 257 650 q 204 508 228 560 q 152 403 181 457 q 100 302 124 350 q 60 214 76 254 q 47 149 44 174 q 66 82 51 110 q 101 36 81 54 q 144 10 121 18 q 189 1 168 1 q 228 15 204 1 q 194 -36 210 -12 q 165 -74 178 -60 q -86 -197 24 -137 q -178 -249 -133 -222 q -257 -302 -222 -276 q -312 -350 -292 -328 q -332 -389 -333 -372 q -316 -449 -329 -424 q -284 -492 -303 -475 q -244 -518 -265 -510 q -201 -526 -222 -526 q -51 -483 -119 -526 q 93 -369 18 -440 q 250 -208 174 -299 q 393 -17 326 -117 l 410 10 l 414 15 q 494 63 449 28 q 589 145 540 99 q 685 244 638 192 q 772 342 732 296 q 838 421 811 388 q 871 465 864 454 q 881 493 882 482 q 874 508 881 504 q 856 509 867 513 q 839 494 846 506 m -247 -437 q -280 -427 -267 -437 q -296 -397 -293 -417 q -280 -372 -297 -389 q -234 -335 -262 -356 q -168 -293 -206 -315 q -92 -249 -131 -271 q 117 -137 0 -197 q -14 -287 51 -221 q -72 -342 -42 -315 q -133 -390 -103 -369 q -192 -424 -162 -411 q -247 -437 -222 -437 z "},"!":{"ha":558,"x_min":4,"x_max":682,"o":"m 94 149 q 128 144 111 149 q 160 129 146 139 q 183 103 174 119 q 192 67 192 88 q 178 18 192 35 q 147 -6 164 1 q 116 -15 131 -14 q 100 -17 101 -17 q 35 5 65 -17 q 4 67 4 26 q 32 128 4 108 q 94 149 60 149 m 578 1138 q 594 1149 578 1151 q 630 1129 610 1146 q 666 1085 650 1113 q 682 1021 682 1057 q 651 948 682 1001 q 575 823 621 894 q 475 669 529 751 q 375 508 421 586 q 299 365 329 431 q 268 263 268 300 q 247 251 268 250 q 201 263 226 251 q 154 299 175 275 q 133 356 133 322 q 152 399 133 364 q 202 488 171 435 q 274 605 233 540 q 356 737 314 669 q 437 870 397 804 q 508 991 476 936 q 558 1085 539 1046 q 578 1138 578 1124 z "},"\"":{"ha":704,"x_min":182,"x_max":589,"o":"m 265 958 q 284 972 265 972 q 324 962 303 971 q 365 939 346 953 q 383 915 383 925 q 359 876 383 901 q 303 825 335 850 q 242 781 272 800 q 200 763 211 763 q 183 774 185 763 q 190 802 182 785 q 210 841 197 819 q 235 884 222 863 q 256 925 247 906 q 265 958 265 944 m 471 958 q 490 972 471 972 q 530 962 508 971 q 570 939 551 953 q 589 915 589 925 q 565 876 589 901 q 508 825 540 850 q 447 781 476 800 q 404 763 417 763 q 390 785 382 763 q 415 840 397 808 q 452 906 433 872 q 471 958 471 939 z "},"#":{"ha":969,"x_min":44,"x_max":926,"o":"m 842 321 q 908 310 889 321 q 926 290 926 299 q 899 278 926 283 q 827 269 872 272 q 723 265 782 267 q 600 263 664 263 q 515 110 550 179 q 481 6 481 40 q 467 1 481 -1 q 436 15 453 3 q 405 46 419 26 q 390 93 390 65 q 417 149 390 104 q 483 261 443 194 q 394 261 438 261 q 311 263 350 261 q 226 110 261 179 q 192 6 192 40 q 178 1 192 -1 q 147 15 164 3 q 116 46 131 26 q 101 93 101 65 q 128 151 101 104 q 196 264 156 197 l 161 264 q 104 278 129 264 q 65 310 79 293 q 47 342 50 328 q 58 357 44 357 q 115 353 63 357 q 246 346 167 350 q 277 395 261 369 q 308 446 293 421 q 215 447 254 447 q 161 447 176 447 q 104 462 129 447 q 65 494 79 476 q 47 526 50 511 q 58 540 44 540 q 85 539 61 540 q 150 535 110 538 q 243 530 190 533 q 356 524 296 526 q 402 602 381 565 q 440 669 424 639 q 466 722 457 700 q 475 751 475 743 q 490 761 475 764 q 524 749 506 758 q 557 726 542 740 q 572 701 572 713 q 544 635 572 685 q 472 517 515 586 q 554 513 513 514 q 636 510 596 513 q 685 592 663 553 q 726 665 708 632 q 753 719 743 697 q 764 751 764 742 q 779 761 764 764 q 813 749 794 758 q 846 726 831 740 q 861 701 861 713 q 830 631 861 685 q 753 506 799 578 l 842 506 q 908 494 889 506 q 926 475 926 482 q 910 465 926 469 q 866 458 894 461 q 799 452 838 454 q 717 449 761 450 q 678 388 697 418 q 639 325 658 357 q 747 322 696 322 q 842 321 799 321 m 526 331 q 561 388 543 358 q 597 446 579 417 l 426 446 q 392 393 410 419 q 358 339 375 367 q 441 335 399 336 q 526 331 483 333 z "},"$":{"ha":981,"x_min":1,"x_max":963,"o":"m 661 575 q 779 536 722 558 q 878 482 836 514 q 942 406 921 450 q 953 301 963 361 q 897 203 944 254 q 775 110 849 153 q 606 41 701 68 q 407 14 511 14 q 368 15 386 14 q 331 21 350 15 q 283 -91 300 -42 q 264 -174 265 -140 q 231 -163 251 -174 q 189 -134 210 -153 q 153 -88 168 -115 q 138 -25 138 -61 q 149 4 138 -18 q 179 60 160 26 q 99 113 133 83 q 42 175 64 143 q 10 238 19 207 q 7 294 1 269 q 40 342 11 317 q 110 392 68 368 q 201 435 151 415 q 295 467 250 456 q 375 478 340 478 q 424 464 410 478 q 444 496 435 479 q 465 528 453 513 q 362 553 411 538 q 277 593 313 568 q 224 653 242 618 q 214 740 206 689 q 270 829 222 788 q 385 901 318 871 q 529 949 453 932 q 672 967 606 967 q 699 967 688 967 q 721 965 711 967 q 775 1067 756 1026 q 794 1126 794 1108 l 794 1128 l 799 1128 q 835 1118 813 1128 q 879 1094 858 1108 q 915 1064 900 1079 q 931 1039 931 1049 q 916 994 931 1025 q 874 924 901 964 q 912 895 901 908 q 922 875 922 882 q 914 857 922 868 q 896 838 906 846 q 878 825 886 829 q 869 829 869 821 q 862 844 869 836 q 836 854 854 851 q 764 734 804 796 q 683 610 724 672 q 672 592 676 599 q 661 575 667 585 m 317 674 q 328 653 314 663 q 368 637 342 644 q 431 622 394 629 q 510 607 468 615 q 592 738 556 676 q 658 851 628 799 q 547 828 604 843 q 440 790 489 813 q 357 738 392 767 q 317 674 322 708 m 226 142 q 313 283 267 207 q 401 433 358 358 q 394 439 399 436 q 383 442 390 442 q 319 426 364 442 q 225 383 274 410 q 137 321 176 356 q 89 249 97 286 q 119 184 86 215 q 226 142 151 153 m 829 403 q 818 445 833 428 q 774 474 803 463 q 704 492 744 485 q 618 506 664 500 q 506 328 560 417 q 403 158 451 240 q 543 194 471 171 q 676 248 615 217 q 779 319 738 279 q 829 403 821 358 z "},"%":{"ha":818,"x_min":88,"x_max":878,"o":"m 832 931 q 817 891 832 918 q 776 824 801 864 q 717 734 750 785 q 646 622 683 683 q 526 431 588 528 q 415 245 465 333 q 332 84 365 157 q 294 -35 299 11 q 267 -24 283 -33 q 237 -1 251 -15 q 211 35 222 14 q 200 85 200 57 q 218 151 200 111 q 265 243 236 192 q 332 355 294 294 q 408 481 369 415 q 536 694 478 597 q 638 864 594 790 q 706 988 681 938 q 732 1058 731 1038 q 759 1049 742 1058 q 792 1022 776 1039 q 820 983 808 1006 q 832 931 832 960 m 357 582 q 290 522 324 543 q 226 501 256 501 q 174 513 197 501 q 133 544 150 525 q 105 584 115 563 q 92 625 94 606 q 98 699 88 657 q 135 788 108 742 q 184 860 157 826 q 239 919 211 894 q 292 958 267 944 q 333 972 317 972 q 375 951 358 972 q 383 930 382 940 q 385 915 385 919 q 378 892 385 896 q 368 888 371 888 q 363 889 365 888 q 247 792 315 885 q 217 745 232 771 q 192 694 203 719 q 175 644 181 668 q 172 603 169 619 q 182 576 175 581 q 199 571 189 571 q 332 701 251 571 q 374 794 360 751 q 385 865 389 838 q 390 879 382 874 q 401 885 394 883 q 415 886 408 886 q 451 877 435 886 q 471 849 468 868 q 468 791 475 824 q 445 722 461 758 q 407 649 429 686 q 357 582 385 613 m 874 351 q 870 293 878 326 q 847 224 863 260 q 809 151 832 188 q 760 83 786 115 q 693 25 726 46 q 631 4 660 4 q 578 16 601 4 q 537 47 554 28 q 508 87 519 65 q 494 128 497 108 q 538 289 486 193 q 587 363 560 329 q 641 422 614 397 q 693 461 668 447 q 735 475 718 475 q 776 451 763 475 q 786 431 785 442 q 788 415 788 419 q 781 394 788 397 q 771 390 774 390 l 767 390 q 650 294 714 386 q 620 247 635 272 q 594 194 606 221 q 578 144 583 168 q 575 103 572 121 q 586 78 579 83 q 600 72 593 72 q 733 203 656 72 q 778 296 763 253 q 788 367 793 339 q 793 378 788 374 q 804 386 797 385 q 818 388 811 388 q 854 378 838 388 q 874 351 871 369 z "},"&":{"ha":1033,"x_min":94,"x_max":851,"o":"m 776 336 q 728 324 753 329 q 683 315 704 318 q 646 227 672 274 q 579 135 619 181 q 610 100 593 113 q 644 81 628 88 q 673 73 660 75 q 693 71 686 71 q 759 85 740 71 q 783 107 778 99 q 797 122 790 118 q 810 125 803 125 q 828 117 821 125 q 838 106 835 108 l 842 99 l 838 93 q 828 76 836 90 q 803 44 821 61 q 755 15 785 28 q 679 1 725 1 q 506 68 588 1 q 474 42 490 54 q 439 19 457 31 q 351 -22 394 -8 q 272 -36 307 -36 q 251 -35 261 -36 q 229 -29 240 -33 q 158 15 183 -14 q 121 68 133 44 q 100 135 106 100 q 100 199 94 169 q 143 294 111 243 q 231 394 175 344 q 371 499 294 456 q 388 621 372 550 q 435 756 403 692 q 672 938 519 938 q 748 917 719 938 q 792 874 776 897 q 815 823 808 849 q 822 779 822 797 q 651 554 822 683 q 556 491 600 517 q 493 454 513 465 q 503 340 496 394 q 521 256 511 285 q 542 282 531 268 q 563 310 554 296 q 555 319 560 314 q 544 333 550 325 q 519 371 524 358 q 514 392 514 383 q 521 411 514 404 q 538 418 528 418 q 548 417 543 418 q 558 414 553 415 q 581 407 568 407 q 602 410 588 407 q 636 415 617 413 q 699 423 665 418 q 760 428 732 428 q 829 413 806 428 q 851 375 851 397 q 840 356 851 361 q 822 349 829 351 q 803 342 814 346 q 776 336 792 339 m 506 575 q 550 605 525 586 q 601 647 575 624 q 686 735 654 693 q 724 811 718 778 q 676 795 699 808 q 633 765 653 782 q 597 729 613 749 q 571 694 582 710 q 531 631 546 663 q 506 575 517 599 m 440 179 q 429 210 436 190 q 415 253 422 229 q 399 302 407 276 q 388 353 392 328 q 385 351 388 353 q 323 301 354 329 q 266 242 292 272 q 222 183 240 213 q 200 129 204 154 q 203 91 196 101 q 222 78 211 81 q 232 76 228 76 q 243 75 236 75 q 328 101 278 75 q 440 179 378 126 z "},"'":{"ha":488,"x_min":381,"x_max":582,"o":"m 399 921 q 382 932 383 921 q 388 960 381 943 q 408 999 396 978 q 433 1042 421 1021 q 455 1083 446 1064 q 464 1117 464 1103 q 483 1130 464 1131 q 523 1120 501 1129 q 563 1097 544 1111 q 582 1074 582 1083 q 558 1034 582 1060 q 502 983 533 1008 q 440 940 471 958 q 399 921 410 921 z "},"(":{"ha":682,"x_min":231,"x_max":1068,"o":"m 954 1250 q 1012 1230 985 1250 q 1053 1186 1039 1210 q 1065 1142 1068 1163 q 1032 1122 1061 1122 q 951 1088 1010 1122 q 815 990 892 1053 q 653 839 738 926 q 500 647 569 751 q 385 424 431 542 q 340 181 340 306 q 348 65 340 115 q 361 -21 356 14 q 367 -74 367 -56 q 350 -92 367 -92 q 306 -72 328 -92 q 268 -11 285 -51 q 241 89 251 29 q 231 228 231 149 q 270 472 231 349 q 374 708 310 594 q 519 921 439 822 q 679 1092 599 1019 q 832 1208 760 1165 q 954 1250 904 1250 z "},")":{"ha":669,"x_min":47,"x_max":708,"o":"m 564 844 q 549 991 564 928 q 517 1099 535 1054 q 485 1174 500 1144 q 471 1219 471 1203 q 491 1243 471 1236 q 564 1250 511 1250 q 624 1217 597 1250 q 669 1126 650 1183 q 698 994 688 1069 q 708 833 708 918 q 681 616 708 726 q 606 403 653 506 q 497 210 558 300 q 366 52 435 119 q 227 -54 297 -15 q 94 -93 157 -93 q 83 -93 90 -93 q 67 -91 75 -93 q 53 -84 60 -89 q 47 -69 47 -79 q 85 -41 47 -64 q 181 26 124 -18 q 306 140 239 71 q 430 309 372 210 q 526 541 488 408 q 564 844 564 674 z "},"*":{"ha":588,"x_min":113,"x_max":719,"o":"m 717 886 q 713 876 719 879 q 696 872 707 872 l 493 840 q 546 774 526 799 q 576 733 565 749 q 589 709 586 718 q 593 692 592 700 q 589 663 594 675 q 575 640 583 650 q 558 624 567 631 q 544 613 550 618 q 530 601 535 606 q 522 597 525 597 q 515 601 518 596 q 509 615 511 607 q 506 630 507 622 q 503 640 504 638 q 460 712 488 672 q 410 788 433 751 q 347 676 378 729 q 293 592 315 622 q 288 581 290 585 q 282 578 286 578 q 264 587 271 578 q 254 611 257 596 q 253 630 253 621 q 260 646 254 639 l 332 818 q 286 817 310 817 q 242 817 263 817 q 177 830 201 817 q 140 861 153 843 q 122 897 126 879 q 115 925 117 915 q 115 946 113 943 q 122 949 117 949 q 147 941 133 949 q 179 931 161 933 q 254 919 213 922 q 322 915 296 915 l 215 1063 q 203 1096 203 1074 q 206 1122 200 1111 q 224 1135 213 1132 q 238 1124 229 1135 q 307 1052 265 1099 q 390 957 349 1006 q 426 1041 408 996 q 451 1121 444 1086 q 452 1131 451 1124 q 453 1147 453 1139 q 456 1160 454 1154 q 461 1167 457 1167 q 470 1163 464 1167 q 488 1157 476 1160 q 503 1148 493 1153 q 522 1135 513 1143 q 540 1117 532 1128 q 550 1089 547 1106 q 551 1071 551 1081 q 542 1043 550 1061 q 520 994 535 1025 q 481 914 506 964 l 658 921 q 673 919 664 921 q 692 913 682 917 q 708 902 701 908 q 717 886 715 896 z "},"+":{"ha":961,"x_min":135,"x_max":858,"o":"m 447 486 q 492 590 472 542 q 522 672 508 632 q 536 728 536 711 q 555 774 536 767 q 597 770 574 782 q 639 736 619 758 q 658 694 658 714 q 644 642 658 676 q 615 572 631 607 q 574 486 597 532 q 665 492 622 489 q 737 497 701 494 q 788 499 772 499 q 838 486 817 499 q 858 453 858 474 q 844 443 858 449 q 805 432 829 438 q 749 421 781 426 q 686 410 718 415 q 515 386 610 397 q 435 233 471 300 q 403 177 419 204 q 374 129 388 150 q 349 95 360 108 q 335 82 339 82 q 310 95 319 82 q 300 142 300 108 q 315 195 300 157 q 347 274 329 233 q 396 374 368 319 q 344 369 371 371 q 291 366 321 367 q 229 365 261 365 q 181 382 199 365 q 152 421 163 399 q 138 465 142 443 q 135 500 135 488 q 148 510 135 511 q 196 504 161 510 q 291 492 231 499 q 447 486 351 486 z "},",":{"ha":404,"x_min":-10,"x_max":215,"o":"m 10 -285 q -8 -269 -7 -285 q -1 -229 -10 -254 q 21 -173 7 -204 q 49 -110 35 -142 q 73 -51 63 -79 q 83 -3 83 -22 q 104 17 83 18 q 149 3 125 15 q 194 -29 174 -10 q 215 -64 215 -49 q 188 -122 215 -85 q 126 -195 161 -158 q 57 -258 90 -232 q 10 -285 24 -285 z "},".":{"ha":419,"x_min":78,"x_max":260,"o":"m 171 0 q 108 21 138 0 q 78 82 78 42 q 106 142 78 122 q 165 161 133 161 q 229 143 199 161 q 260 82 260 125 q 247 35 260 51 q 217 10 233 18 q 187 1 201 3 q 171 0 172 0 z "},"/":{"ha":606,"x_min":0,"x_max":685,"o":"m 685 886 q 660 820 685 867 q 597 710 636 774 q 508 568 558 646 q 406 408 458 490 q 303 244 353 326 q 214 90 253 163 q 151 -44 175 17 q 126 -142 126 -104 q 108 -149 128 -153 q 64 -128 88 -146 q 20 -77 40 -110 q 0 1 0 -44 q 25 62 0 14 q 91 181 50 110 q 185 339 132 251 q 292 518 238 426 q 400 699 347 610 q 494 863 453 789 q 560 989 535 936 q 585 1061 585 1042 q 600 1074 585 1081 q 634 1041 615 1067 q 669 974 653 1015 q 685 886 685 933 z "},":":{"ha":333,"x_min":0,"x_max":329,"o":"m 88 238 q 151 219 121 238 q 182 158 182 201 q 169 111 182 128 q 140 87 156 94 q 109 78 124 79 q 93 76 94 76 q 30 97 60 76 q 0 158 0 118 q 28 218 0 199 q 88 238 56 238 m 235 494 q 299 476 268 494 q 329 415 329 458 q 316 368 329 385 q 287 344 303 351 q 256 335 271 336 q 240 333 242 333 q 176 355 206 333 q 147 415 147 376 q 175 475 147 456 q 235 494 203 494 z "},";":{"ha":300,"x_min":-69,"x_max":265,"o":"m 171 278 q 235 260 204 278 q 265 199 265 242 q 252 151 265 168 q 223 127 239 135 q 192 118 207 119 q 176 117 178 117 q 113 138 142 117 q 83 199 83 160 q 111 259 83 240 q 171 278 139 278 m 24 4 q 44 24 24 25 q 90 9 65 22 q 135 -24 114 -4 q 156 -58 156 -43 q 128 -116 156 -79 q 66 -189 101 -153 q -3 -252 31 -225 q -50 -279 -37 -279 q -68 -263 -67 -279 q -61 -222 -69 -247 q -39 -166 -53 -197 q -11 -103 -25 -135 q 13 -44 3 -72 q 24 4 24 -15 z "},"=":{"ha":1100,"x_min":213,"x_max":975,"o":"m 790 282 q 838 267 824 283 q 853 240 853 251 q 818 215 854 225 q 726 197 782 204 q 602 185 669 190 q 474 178 535 181 q 365 174 413 175 q 303 171 318 172 q 260 192 279 171 q 230 238 242 213 q 215 284 218 263 q 222 306 213 306 q 256 303 225 306 q 334 298 286 301 q 442 290 382 294 q 564 283 501 286 q 685 280 626 281 q 790 282 744 279 m 911 599 q 940 596 928 600 q 959 585 951 592 q 970 572 967 579 q 975 558 974 564 q 938 533 975 543 q 845 515 901 522 q 722 503 789 507 q 593 497 654 499 q 485 493 532 494 q 424 492 438 492 q 381 510 400 489 q 350 556 363 531 q 335 602 338 581 q 340 624 332 624 q 374 621 343 624 q 454 615 406 618 q 563 608 503 611 q 686 601 624 604 q 807 597 749 599 q 911 599 865 596 z "},"?":{"ha":1157,"x_min":171,"x_max":994,"o":"m 738 1151 q 862 1123 811 1151 q 943 1051 913 1094 q 984 956 974 1008 q 989 856 994 903 q 935 765 982 808 q 819 679 888 721 q 673 597 751 638 q 527 519 594 557 q 413 442 460 481 q 361 368 365 404 q 362 337 358 349 q 370 317 365 325 q 378 301 375 308 q 381 283 382 293 q 356 271 379 272 q 308 282 333 269 q 264 322 283 294 q 251 396 244 350 q 288 487 258 446 q 360 564 317 528 q 458 631 404 600 q 567 692 511 663 q 677 752 624 722 q 774 814 731 782 q 845 881 817 846 q 879 958 874 917 q 861 1011 885 994 q 797 1028 838 1028 q 701 1017 756 1029 q 589 985 647 1006 q 474 939 531 965 q 373 884 418 913 q 299 828 328 856 q 267 779 269 801 q 246 743 263 743 q 213 762 229 743 q 183 810 196 781 q 174 863 171 840 l 175 874 q 209 947 179 911 q 285 1013 239 982 q 388 1069 331 1043 q 507 1113 446 1094 q 628 1141 568 1131 q 738 1151 688 1151 m 282 149 q 316 144 299 149 q 347 129 333 139 q 370 103 361 119 q 379 67 379 88 q 365 18 379 35 q 335 -6 351 1 q 303 -15 318 -14 q 288 -17 289 -17 q 222 5 253 -17 q 192 67 192 26 q 219 128 192 108 q 282 149 247 149 z "},"@":{"ha":1075,"x_min":125,"x_max":1219,"o":"m 1129 542 q 1128 566 1129 554 q 1126 590 1128 578 q 1042 735 1110 685 q 874 786 975 786 q 705 759 789 786 q 546 685 621 732 q 408 576 471 639 q 302 440 344 513 q 241 290 260 368 q 235 136 222 213 q 259 60 242 93 q 301 0 276 26 q 353 -45 325 -26 q 408 -76 381 -64 q 554 -117 475 -107 q 716 -98 638 -117 q 858 -29 794 -79 q 863 -28 860 -29 q 867 -27 865 -28 q 871 -26 868 -26 q 878 -26 874 -26 q 882 -29 882 -26 q 883 -32 882 -31 q 886 -37 883 -32 q 885 -44 886 -40 q 883 -49 885 -47 q 823 -92 860 -72 q 743 -124 786 -111 q 655 -144 700 -137 q 568 -151 610 -151 q 524 -148 557 -151 q 449 -133 492 -144 q 357 -100 406 -122 q 265 -40 308 -78 q 188 56 221 -1 q 140 193 154 113 q 149 363 125 281 q 222 521 172 446 q 320 637 258 576 q 461 746 382 697 q 633 826 540 794 q 822 858 725 858 q 915 853 868 858 q 1010 829 961 849 q 1144 731 1089 796 q 1214 582 1199 665 q 1218 554 1217 568 q 1219 525 1219 540 q 1177 333 1219 421 q 1069 182 1135 246 q 923 82 1003 118 q 769 46 843 46 q 732 57 750 46 q 699 83 714 68 q 676 114 685 99 q 667 139 667 129 q 669 161 667 150 q 676 183 672 172 q 688 207 682 196 q 619 146 653 172 q 563 103 592 122 q 515 85 533 85 q 478 94 499 85 q 439 119 457 103 q 408 158 421 135 q 396 211 396 182 q 419 284 396 242 q 482 372 443 326 q 569 460 521 417 q 669 539 618 504 q 767 595 719 574 q 851 617 815 617 q 902 599 879 617 q 938 562 925 582 q 955 524 951 542 q 947 507 958 507 q 860 480 910 507 q 758 412 810 453 q 658 324 706 371 q 578 235 610 276 q 537 167 547 194 q 550 140 526 140 q 581 159 557 140 q 638 206 606 178 q 706 267 671 233 q 771 329 742 300 q 817 380 800 358 q 832 407 835 401 q 841 415 828 414 q 873 407 854 415 q 908 380 892 399 q 924 332 924 361 q 912 288 924 313 q 883 238 900 263 q 849 188 867 213 q 819 145 832 164 q 801 115 806 126 q 808 103 797 103 q 885 130 832 103 q 993 212 939 157 q 1088 349 1047 267 q 1129 542 1129 431 z "},"`":{"ha":404,"x_min":61,"x_max":286,"o":"m 267 668 q 219 694 253 668 q 151 758 186 721 q 88 831 115 794 q 61 889 61 868 q 82 924 61 904 q 127 956 103 943 q 172 969 151 968 q 193 950 193 971 q 203 902 193 931 q 228 842 214 874 q 256 780 242 811 q 278 724 269 749 q 285 683 286 699 q 267 668 283 668 z "},"\\":{"ha":606,"x_min":0,"x_max":685,"o":"m 0 886 q 15 974 0 933 q 49 1041 31 1015 q 84 1074 68 1067 q 100 1061 100 1081 q 125 989 100 1042 q 191 863 150 936 q 285 699 232 789 q 392 518 338 610 q 500 339 447 426 q 594 181 553 251 q 660 62 635 110 q 685 1 685 14 q 665 -77 685 -44 q 620 -128 644 -110 q 576 -149 596 -146 q 558 -142 557 -153 q 534 -44 558 -104 q 471 90 510 17 q 382 244 432 163 q 279 408 332 326 q 176 568 226 490 q 88 710 126 646 q 24 820 49 774 q 0 886 0 867 z "},"^":{"ha":515,"x_min":96,"x_max":417,"o":"m 306 919 q 331 879 318 900 q 356 840 343 858 q 383 810 368 822 q 414 793 397 797 q 413 790 417 792 q 399 785 408 788 q 376 780 389 782 q 350 778 364 778 q 304 792 326 778 q 254 844 282 806 q 182 799 201 810 q 154 788 163 788 q 138 790 147 788 q 118 796 128 792 q 102 805 108 800 q 99 814 96 810 q 114 828 100 818 q 149 851 128 838 q 197 883 171 865 q 253 918 224 900 q 281 933 268 929 q 306 919 294 936 z "},">":{"ha":744,"x_min":158,"x_max":653,"o":"m 614 468 q 647 430 642 444 q 653 404 653 415 q 600 347 649 372 q 479 285 543 319 q 360 219 415 251 q 266 160 300 186 q 221 117 232 133 q 201 106 214 106 q 172 126 189 106 q 160 176 163 146 q 178 238 158 206 q 183 244 179 240 q 195 253 186 247 q 221 269 204 260 q 265 294 238 279 q 343 337 300 314 q 435 385 386 360 q 458 397 443 389 q 490 412 474 404 q 522 427 507 419 q 546 439 538 435 q 479 497 514 467 q 414 553 444 528 q 350 602 367 592 q 332 613 333 613 q 310 637 315 624 q 307 661 304 650 q 319 679 310 672 q 344 686 329 686 l 351 686 q 419 643 371 683 q 564 514 467 603 q 588 491 575 503 q 614 468 600 479 z "},"<":{"ha":689,"x_min":160,"x_max":606,"o":"m 576 697 q 599 688 593 697 q 603 665 606 678 q 586 637 600 651 q 550 613 572 622 q 526 602 547 611 q 443 554 504 593 q 351 499 400 531 q 258 439 303 468 q 287 422 268 432 q 326 401 306 413 q 367 378 347 389 q 396 363 386 368 q 471 312 442 332 q 517 278 500 292 q 540 257 533 265 q 550 242 547 249 q 542 188 556 210 q 521 154 529 165 q 506 140 517 149 q 482 131 496 131 q 463 147 463 131 q 442 181 460 158 q 374 243 425 203 q 285 307 333 275 q 196 367 238 339 q 163 417 160 388 q 182 453 163 436 q 224 485 201 469 q 260 508 243 496 q 293 531 276 519 q 482 651 414 608 q 571 697 550 694 l 576 697 l 576 697 z "},"[":{"ha":682,"x_min":0,"x_max":1249,"o":"m 1190 1171 q 1235 1158 1222 1172 q 1247 1133 1247 1144 q 1224 1113 1249 1121 q 1158 1098 1199 1104 q 1067 1087 1118 1092 q 965 1079 1017 1082 q 867 1075 914 1076 q 789 1072 821 1074 q 753 999 778 1044 q 694 897 728 953 q 622 776 661 840 q 543 649 583 713 q 426 455 485 553 q 314 264 367 357 q 218 87 261 171 q 149 -64 175 3 q 247 -70 192 -67 q 360 -76 303 -74 q 470 -80 417 -79 q 565 -78 524 -81 q 611 -91 597 -76 q 625 -117 625 -106 q 592 -140 625 -131 q 507 -156 558 -150 q 394 -167 456 -162 q 277 -173 333 -171 q 178 -176 221 -175 q 121 -178 135 -178 l 118 -178 l 115 -178 q 94 -171 106 -178 q 63 -152 79 -164 q 33 -122 47 -140 q 9 -81 18 -104 q 0 -29 0 -58 q 26 33 1 -15 q 91 152 51 82 q 180 305 131 222 q 278 468 229 388 q 428 722 360 606 q 546 928 496 838 q 627 1081 596 1018 q 667 1178 658 1144 q 668 1190 667 1189 l 668 1192 l 672 1192 q 703 1190 675 1192 q 775 1185 731 1188 q 874 1178 819 1182 q 985 1173 929 1175 q 1095 1169 1042 1171 q 1190 1171 1149 1168 z "},"]":{"ha":669,"x_min":-214,"x_max":1049,"o":"m -156 -157 q -200 -144 -186 -158 q -214 -121 -214 -129 q -189 -99 -214 -108 q -123 -83 -164 -90 q -31 -72 -82 -76 q 73 -65 21 -68 q 172 -61 125 -62 q 251 -58 219 -60 q 289 17 264 -29 q 347 121 314 64 q 419 242 381 178 q 497 372 458 307 q 616 567 556 468 q 731 759 676 665 q 828 938 785 853 q 897 1089 872 1022 q 797 1097 853 1093 q 684 1103 742 1100 q 572 1108 626 1107 q 476 1106 518 1108 q 432 1117 444 1103 q 418 1143 419 1132 q 451 1167 417 1157 q 536 1183 485 1176 q 650 1194 588 1190 q 769 1201 713 1199 q 869 1204 825 1203 q 926 1206 913 1206 l 928 1206 l 929 1206 q 951 1197 943 1206 q 983 1178 967 1190 q 1015 1148 1000 1165 q 1039 1108 1029 1131 q 1049 1056 1049 1085 q 1022 992 1047 1042 q 956 872 996 942 q 866 718 915 801 q 768 553 817 635 q 616 297 685 414 q 497 88 547 179 q 415 -67 446 -3 q 375 -164 383 -131 q 374 -172 375 -169 q 374 -178 374 -175 l 372 -179 l 371 -179 l 368 -179 q 338 -177 365 -179 q 265 -172 310 -175 q 165 -166 221 -169 q 53 -160 110 -162 q -59 -156 -4 -157 q -156 -157 -114 -156 z "},"_":{"ha":1157,"x_min":32,"x_max":1071,"o":"m 996 -21 q 1053 -36 1036 -21 q 1069 -61 1069 -51 q 1034 -81 1071 -72 q 936 -95 997 -89 q 797 -107 875 -101 q 634 -116 718 -112 q 467 -122 550 -119 q 317 -126 385 -124 q 201 -128 249 -128 q 140 -131 154 -129 q 90 -110 113 -131 q 53 -66 68 -90 q 35 -22 39 -42 q 44 -1 32 -1 q 79 -2 46 -1 q 167 -5 113 -3 q 294 -10 222 -7 q 444 -15 365 -12 q 603 -19 522 -17 q 758 -22 685 -21 q 894 -24 832 -24 q 996 -21 956 -24 z "},"|":{"ha":606,"x_min":233,"x_max":413,"o":"m 386 1007 q 396 938 394 990 q 396 809 397 885 q 390 641 394 733 q 381 451 385 549 q 375 256 378 353 q 374 76 372 160 q 384 -72 376 -8 q 407 -169 392 -136 q 397 -186 413 -179 q 356 -189 381 -193 q 303 -166 331 -185 q 257 -107 275 -147 q 250 -42 251 -96 q 249 95 249 13 q 251 281 249 178 q 254 491 253 383 q 257 703 256 599 q 258 892 258 807 q 253 1036 257 978 q 242 1111 249 1094 q 248 1130 233 1128 q 287 1118 263 1132 q 339 1076 311 1104 q 386 1007 367 1049 z "},"{":{"ha":565,"x_min":67,"x_max":832,"o":"m 819 1171 q 753 1128 788 1171 q 683 1024 718 1086 q 611 887 647 961 q 539 750 575 813 q 468 645 503 688 q 401 603 433 603 q 418 590 411 600 q 428 567 425 582 q 428 526 431 551 q 408 471 425 508 q 366 385 390 433 q 314 282 342 336 q 262 177 286 228 q 221 85 238 126 q 201 22 204 44 q 197 -28 196 -11 q 202 -56 199 -46 q 208 -72 206 -65 q 210 -89 211 -78 q 185 -97 208 -100 q 134 -76 161 -93 q 87 -31 107 -60 q 72 38 67 -1 q 92 104 76 64 q 131 191 108 144 q 179 287 154 238 q 226 381 204 336 q 265 464 249 426 q 285 525 281 501 q 284 581 289 558 q 276 616 279 603 q 280 634 274 629 q 313 639 286 639 q 358 683 329 639 q 421 794 386 728 q 495 939 456 861 q 574 1083 535 1017 q 651 1194 614 1150 q 719 1239 689 1239 q 791 1228 767 1239 q 824 1203 815 1217 q 829 1178 832 1189 q 819 1171 826 1168 z "},"}":{"ha":565,"x_min":36,"x_max":853,"o":"m 653 1213 q 688 1227 654 1224 q 758 1220 721 1231 q 824 1182 796 1210 q 846 1103 853 1154 q 822 1024 840 1069 q 780 929 804 979 q 728 828 756 879 q 676 729 700 776 q 634 643 651 682 q 614 579 617 604 q 615 553 611 563 q 623 537 618 544 q 632 523 628 529 q 635 507 636 517 q 624 496 633 497 q 601 492 614 494 q 574 481 589 489 q 547 449 560 472 q 518 385 539 432 q 468 278 497 339 q 403 149 439 217 q 330 26 368 82 q 253 -67 292 -31 q 179 -103 214 -103 q 97 -98 126 -103 q 54 -86 68 -93 q 38 -70 40 -79 q 38 -53 36 -61 q 55 -46 39 -44 q 92 -46 71 -47 q 138 -33 114 -44 q 181 14 163 -22 q 213 85 192 38 q 263 189 235 132 q 322 306 290 246 q 384 416 353 367 q 444 497 415 465 q 497 528 474 528 q 482 549 488 536 q 472 572 476 558 q 471 603 468 586 q 490 653 472 614 q 534 743 508 692 q 590 853 560 794 q 645 965 619 913 q 688 1060 671 1018 q 708 1117 706 1101 q 703 1155 713 1142 q 683 1177 694 1168 q 660 1193 671 1186 q 653 1213 650 1200 z "},"~":{"ha":664,"x_min":385,"x_max":764,"o":"m 754 811 q 741 816 747 811 q 727 826 735 821 q 710 837 719 832 q 686 842 700 842 q 638 833 663 842 q 590 812 614 824 q 542 791 565 800 q 496 782 518 782 q 420 808 451 782 q 385 861 389 833 q 399 869 385 869 q 406 865 403 869 q 415 857 410 861 q 430 849 421 853 q 454 844 439 844 q 501 853 479 844 q 544 870 524 861 q 587 888 565 879 q 632 896 608 896 q 699 879 667 896 q 750 842 731 863 q 760 830 756 836 q 764 821 764 824 q 763 815 764 818 q 754 811 763 811 z "},"":{"ha":917,"x_min":-15,"x_max":1011,"o":"m 1011 806 q 1010 792 1011 797 l 1010 789 l 1010 786 q 987 762 1003 776 q 952 732 971 747 q 916 703 933 717 q 889 685 899 690 q 867 669 883 681 q 830 644 850 657 q 791 621 810 632 q 763 608 772 610 l 761 608 l 760 608 q 739 625 743 608 q 754 663 736 640 q 806 724 772 685 q 857 783 832 753 q 893 836 882 813 q 861 843 882 843 q 758 823 815 843 q 638 765 700 803 q 528 689 582 733 q 425 596 474 644 l 461 596 q 490 596 476 596 q 515 597 504 596 l 521 597 q 563 582 549 597 q 578 553 576 567 q 567 533 579 539 q 550 524 556 526 q 527 517 540 519 q 494 511 514 514 q 428 502 467 506 q 342 496 390 499 q 317 458 328 476 q 296 424 307 440 q 344 422 321 422 q 388 421 368 421 q 418 421 404 421 q 443 422 432 421 l 447 422 q 491 407 476 422 q 506 378 506 392 q 494 358 506 364 q 475 349 482 351 q 415 335 457 342 q 344 327 385 331 q 253 321 304 324 q 243 208 235 256 l 244 199 q 258 159 249 181 q 285 119 267 138 q 335 90 304 101 q 413 78 367 78 q 530 98 468 78 q 644 154 592 118 q 694 192 672 171 q 732 235 717 213 q 776 332 771 283 q 779 355 779 346 q 781 371 779 364 q 783 390 781 385 q 794 399 788 397 q 803 400 800 400 l 811 400 l 828 400 q 854 386 842 400 q 869 360 863 375 q 872 335 875 346 l 872 331 q 819 194 861 258 q 707 81 778 129 q 569 11 644 36 q 419 -14 494 -14 q 296 7 350 -14 q 196 74 235 29 q 136 179 156 117 q 124 243 126 208 q 124 314 121 278 l 100 314 q 79 313 88 313 q 67 313 71 313 l 64 313 q 7 354 33 313 q -8 387 -3 369 q -15 415 -14 404 q -8 436 -15 432 q 3 440 0 440 q 14 440 6 440 q 42 438 22 440 q 86 435 60 436 q 143 431 113 433 q 165 488 151 460 l 139 488 l 136 488 q 81 528 106 488 q 64 560 69 543 q 58 590 58 578 q 65 611 57 607 q 75 615 72 615 l 76 615 q 88 615 79 615 q 114 613 96 614 q 165 608 136 610 q 231 604 194 607 q 347 738 279 675 q 492 851 414 801 q 657 936 574 904 q 819 975 740 968 l 821 975 q 899 949 864 975 q 931 920 915 938 q 967 879 947 903 q 998 840 986 863 q 1011 806 1010 818 z "},"":{"ha":1051,"x_min":160,"x_max":953,"o":"m 576 697 q 599 688 593 697 q 603 665 606 678 q 586 637 600 651 q 550 613 572 622 q 526 602 547 611 q 443 554 504 593 q 351 499 400 531 q 258 439 303 468 q 287 422 268 432 q 326 401 306 413 q 367 378 347 389 q 396 363 386 368 q 471 312 442 332 q 517 278 500 292 q 540 257 533 265 q 550 242 547 249 q 542 188 556 210 q 521 154 529 165 q 506 140 517 149 q 482 131 496 131 q 463 147 463 131 q 442 181 460 158 q 374 243 425 203 q 285 307 333 275 q 196 367 238 339 q 163 417 160 388 q 182 453 163 436 q 224 485 201 469 q 260 508 243 496 q 293 531 276 519 q 482 651 414 608 q 571 697 550 694 l 576 697 m 924 697 q 947 688 940 697 q 950 665 953 678 q 933 637 947 651 q 897 613 919 622 q 873 602 894 611 q 790 554 851 593 q 699 499 747 531 q 606 439 650 468 q 634 422 615 432 q 674 401 653 413 q 714 378 694 389 q 743 363 733 368 q 818 312 789 332 q 864 278 847 292 q 888 257 881 265 q 897 242 894 249 q 890 188 903 210 q 868 154 876 165 q 853 140 864 149 q 829 131 843 131 q 810 147 810 131 q 790 181 807 158 q 721 243 772 203 q 633 307 681 275 q 543 367 585 339 q 510 417 507 388 q 529 453 510 436 q 571 485 549 469 q 607 508 590 496 q 640 531 624 519 q 829 651 761 608 q 918 697 897 694 l 924 697 z "},"":{"ha":1132,"x_min":158,"x_max":1049,"o":"m 614 468 q 647 430 642 444 q 653 404 653 415 q 600 347 649 372 q 479 285 543 319 q 360 219 415 251 q 266 160 300 186 q 221 117 232 133 q 201 106 214 106 q 172 126 189 106 q 160 176 163 146 q 178 238 158 206 q 183 244 179 240 q 195 253 186 247 q 221 269 204 260 q 265 294 238 279 q 343 337 300 314 q 435 385 386 360 q 458 397 443 389 q 490 412 474 404 q 522 427 507 419 q 546 439 538 435 q 479 497 514 467 q 414 553 444 528 q 350 602 367 592 q 332 613 333 613 q 310 637 315 624 q 307 661 304 650 q 319 679 310 672 q 344 686 329 686 l 351 686 q 419 643 371 683 q 564 514 467 603 q 588 491 575 503 q 614 468 600 479 m 1010 468 q 1043 430 1038 444 q 1049 404 1049 415 q 996 347 1044 372 q 875 285 939 319 q 756 219 811 251 q 662 160 696 186 q 617 117 628 133 q 597 106 610 106 q 568 126 585 106 q 556 176 558 146 q 574 238 554 206 q 578 244 575 240 q 591 253 582 247 q 617 269 600 260 q 661 294 633 279 q 739 337 696 314 q 831 385 782 360 q 854 397 839 389 q 886 412 869 404 q 918 427 903 419 q 942 439 933 435 q 875 497 910 467 q 810 553 840 528 q 746 602 763 592 q 728 613 729 613 q 706 637 711 624 q 703 661 700 650 q 715 679 706 672 q 740 686 725 686 l 747 686 q 815 643 767 683 q 960 514 863 603 q 983 491 971 503 q 1010 468 996 479 z "},"":{"ha":704,"x_min":182,"x_max":589,"o":"m 265 958 q 284 972 265 972 q 324 962 303 971 q 365 939 346 953 q 383 915 383 925 q 359 876 383 901 q 303 825 335 850 q 242 781 272 800 q 200 763 211 763 q 183 774 185 763 q 190 802 182 785 q 210 841 197 819 q 235 884 222 863 q 256 925 247 906 q 265 958 265 944 m 471 958 q 490 972 471 972 q 530 962 508 971 q 570 939 551 953 q 589 915 589 925 q 565 876 589 901 q 508 825 540 850 q 447 781 476 800 q 404 763 417 763 q 390 785 382 763 q 415 840 397 808 q 452 906 433 872 q 471 958 471 939 z "},"":{"ha":704,"x_min":192,"x_max":603,"o":"m 515 781 q 497 767 515 767 q 456 777 478 768 q 416 799 435 786 q 397 824 397 813 q 422 863 397 838 q 477 914 446 889 q 539 958 508 939 q 581 976 569 976 q 596 953 603 976 q 571 899 589 931 q 534 833 553 867 q 515 781 515 800 m 310 781 q 291 767 310 767 q 251 777 272 768 q 210 799 229 786 q 192 824 192 813 q 216 863 192 838 q 272 914 240 889 q 334 958 304 939 q 376 976 364 976 q 391 953 399 976 q 365 899 383 931 q 328 833 347 867 q 310 781 310 800 z "},"":{"ha":310,"x_min":78,"x_max":326,"o":"m 206 246 q 160 253 182 246 q 119 275 138 261 q 89 310 100 289 q 78 358 78 331 q 88 406 78 386 q 115 440 99 426 q 153 460 132 454 q 197 467 175 467 q 243 460 219 467 q 285 442 267 454 q 315 408 303 429 q 326 358 326 388 q 308 294 326 317 q 269 260 290 271 q 228 248 247 250 q 206 246 208 246 z "},"":{"ha":664,"x_min":385,"x_max":764,"o":"m 754 811 q 741 816 747 811 q 727 826 735 821 q 710 837 719 832 q 686 842 700 842 q 638 833 663 842 q 590 812 614 824 q 542 791 565 800 q 496 782 518 782 q 420 808 451 782 q 385 861 389 833 q 399 869 385 869 q 406 865 403 869 q 415 857 410 861 q 430 849 421 853 q 454 844 439 844 q 501 853 479 844 q 544 870 524 861 q 587 888 565 879 q 632 896 608 896 q 699 879 667 896 q 750 842 731 863 q 760 830 756 836 q 764 821 764 824 q 763 815 764 818 q 754 811 763 811 z "},"":{"ha":488,"x_min":182,"x_max":383,"o":"m 265 958 q 284 972 265 972 q 324 962 303 971 q 365 939 346 953 q 383 915 383 925 q 359 876 383 901 q 303 825 335 850 q 242 781 272 800 q 200 763 211 763 q 183 774 185 763 q 190 802 182 785 q 210 841 197 819 q 235 884 222 863 q 256 925 247 906 q 265 958 265 944 z "},"":{"ha":483,"x_min":192,"x_max":399,"o":"m 310 781 q 291 767 310 767 q 251 777 272 768 q 210 799 229 786 q 192 824 192 813 q 216 863 192 838 q 272 914 240 889 q 334 958 304 939 q 376 976 364 976 q 391 953 399 976 q 365 899 383 931 q 328 833 347 867 q 310 781 310 800 z "},"":{"ha":1238,"x_min":88,"x_max":1288,"o":"m 832 931 q 817 891 832 918 q 776 824 801 864 q 717 734 750 785 q 646 622 683 683 q 526 431 588 528 q 415 245 465 333 q 332 84 365 157 q 294 -35 299 11 q 267 -24 283 -33 q 237 -1 251 -15 q 211 35 222 14 q 200 85 200 57 q 218 151 200 111 q 265 243 236 192 q 332 355 294 294 q 408 481 369 415 q 536 694 478 597 q 638 864 594 790 q 706 988 681 938 q 732 1058 731 1038 q 759 1049 742 1058 q 792 1022 776 1039 q 820 983 808 1006 q 832 931 832 960 m 357 582 q 290 522 324 543 q 226 501 256 501 q 174 513 197 501 q 133 544 150 525 q 105 584 115 563 q 92 625 94 606 q 98 699 88 657 q 135 788 108 742 q 184 860 157 826 q 239 919 211 894 q 292 958 267 944 q 333 972 317 972 q 375 951 358 972 q 383 930 382 940 q 385 915 385 919 q 378 892 385 896 q 368 888 371 888 q 363 889 365 888 q 247 792 315 885 q 217 745 232 771 q 192 694 203 719 q 175 644 181 668 q 172 603 169 619 q 182 576 175 581 q 199 571 189 571 q 332 701 251 571 q 374 794 360 751 q 385 865 389 838 q 390 879 382 874 q 401 885 394 883 q 415 886 408 886 q 451 877 435 886 q 471 849 468 868 q 468 791 475 824 q 445 722 461 758 q 407 649 429 686 q 357 582 385 613 m 874 351 q 870 293 878 326 q 847 224 863 260 q 809 151 832 188 q 760 83 786 115 q 693 25 726 46 q 631 4 660 4 q 578 16 601 4 q 537 47 554 28 q 508 87 519 65 q 494 128 497 108 q 538 289 486 193 q 587 363 560 329 q 641 422 614 397 q 693 461 668 447 q 735 475 718 475 q 776 451 763 475 q 786 431 785 442 q 788 415 788 419 q 781 394 788 397 q 771 390 774 390 l 767 390 q 650 294 714 386 q 620 247 635 272 q 594 194 606 221 q 578 144 583 168 q 575 103 572 121 q 586 78 579 83 q 600 72 593 72 q 733 203 656 72 q 778 296 763 253 q 788 367 793 339 q 793 378 788 374 q 804 386 797 385 q 818 388 811 388 q 854 378 838 388 q 874 351 871 369 m 1283 351 q 1280 293 1288 326 q 1257 224 1272 260 q 1219 151 1242 188 q 1169 83 1196 115 q 1103 25 1136 46 q 1040 4 1069 4 q 988 16 1011 4 q 947 47 964 28 q 918 87 929 65 q 904 128 907 108 q 947 289 896 193 q 997 363 969 329 q 1051 422 1024 397 q 1103 461 1078 447 q 1144 475 1128 475 q 1186 451 1172 475 q 1196 431 1194 442 q 1197 415 1197 419 q 1190 394 1197 397 q 1181 390 1183 390 l 1176 390 q 1060 294 1124 386 q 1030 247 1044 272 q 1004 194 1015 221 q 988 144 993 168 q 985 103 982 121 q 996 78 989 83 q 1010 72 1003 72 q 1143 203 1065 72 q 1188 296 1172 253 q 1197 367 1203 339 q 1203 378 1197 374 q 1214 386 1207 385 q 1228 388 1221 388 q 1264 378 1247 388 q 1283 351 1281 369 z "},"":{"ha":515,"x_min":96,"x_max":417,"o":"m 306 919 q 331 879 318 900 q 356 840 343 858 q 383 810 368 822 q 414 793 397 797 q 413 790 417 792 q 399 785 408 788 q 376 780 389 782 q 350 778 364 778 q 304 792 326 778 q 254 844 282 806 q 182 799 201 810 q 154 788 163 788 q 138 790 147 788 q 118 796 128 792 q 102 805 108 800 q 99 814 96 810 q 114 828 100 818 q 149 851 128 838 q 197 883 171 865 q 253 918 224 900 q 281 933 268 929 q 306 919 294 936 z "},"":{"ha":689,"x_min":160,"x_max":606,"o":"m 576 697 q 599 688 593 697 q 603 665 606 678 q 586 637 600 651 q 550 613 572 622 q 526 602 547 611 q 443 554 504 593 q 351 499 400 531 q 258 439 303 468 q 287 422 268 432 q 326 401 306 413 q 367 378 347 389 q 396 363 386 368 q 471 312 442 332 q 517 278 500 292 q 540 257 533 265 q 550 242 547 249 q 542 188 556 210 q 521 154 529 165 q 506 140 517 149 q 482 131 496 131 q 463 147 463 131 q 442 181 460 158 q 374 243 425 203 q 285 307 333 275 q 196 367 238 339 q 163 417 160 388 q 182 453 163 436 q 224 485 201 469 q 260 508 243 496 q 293 531 276 519 q 482 651 414 608 q 571 697 550 694 l 576 697 l 576 697 z "},"":{"ha":744,"x_min":158,"x_max":653,"o":"m 614 468 q 647 430 642 444 q 653 404 653 415 q 600 347 649 372 q 479 285 543 319 q 360 219 415 251 q 266 160 300 186 q 221 117 232 133 q 201 106 214 106 q 172 126 189 106 q 160 176 163 146 q 178 238 158 206 q 183 244 179 240 q 195 253 186 247 q 221 269 204 260 q 265 294 238 279 q 343 337 300 314 q 435 385 386 360 q 458 397 443 389 q 490 412 474 404 q 522 427 507 419 q 546 439 538 435 q 479 497 514 467 q 414 553 444 528 q 350 602 367 592 q 332 613 333 613 q 310 637 315 624 q 307 661 304 650 q 319 679 310 672 q 344 686 329 686 l 351 686 q 419 643 371 683 q 564 514 467 603 q 588 491 575 503 q 614 468 600 479 z "},"":{"ha":704,"x_min":192,"x_max":603,"o":"m 515 71 q 497 58 515 57 q 456 67 478 58 q 416 90 435 76 q 397 114 397 103 q 422 153 397 128 q 477 204 446 179 q 539 248 508 229 q 581 267 569 267 q 596 244 603 267 q 571 189 589 221 q 534 124 553 157 q 515 71 515 90 m 310 71 q 291 58 310 57 q 251 67 272 58 q 210 90 229 76 q 192 114 192 103 q 216 153 192 128 q 272 204 240 179 q 334 248 304 229 q 376 267 364 267 q 391 244 399 267 q 365 189 383 221 q 328 124 347 157 q 310 71 310 90 z "},"":{"ha":885,"x_min":78,"x_max":806,"o":"m 171 0 q 108 21 138 0 q 78 82 78 42 q 106 142 78 122 q 165 161 133 161 q 229 143 199 161 q 260 82 260 125 q 247 35 260 51 q 217 10 233 18 q 187 1 201 3 q 171 0 172 0 m 442 0 q 378 21 408 0 q 349 82 349 42 q 376 142 349 122 q 436 161 404 161 q 500 143 469 161 q 531 82 531 125 q 517 35 531 51 q 488 10 504 18 q 458 1 472 3 q 442 0 443 0 m 717 0 q 653 21 683 0 q 624 82 624 42 q 651 142 624 122 q 711 161 679 161 q 775 143 744 161 q 806 82 806 125 q 792 35 806 51 q 763 10 779 18 q 733 1 747 3 q 717 0 718 0 z "},"":{"ha":488,"x_min":381,"x_max":582,"o":"m 399 921 q 382 932 383 921 q 388 960 381 943 q 408 999 396 978 q 433 1042 421 1021 q 455 1083 446 1064 q 464 1117 464 1103 q 483 1130 464 1131 q 523 1120 501 1129 q 563 1097 544 1111 q 582 1074 582 1083 q 558 1034 582 1060 q 502 983 533 1008 q 440 940 471 958 q 399 921 410 921 z "},"":{"ha":1728,"x_min":3,"x_max":2144,"o":"m 1863 1364 q 2003 1342 1949 1364 q 2090 1292 2058 1321 q 2133 1233 2121 1263 q 2144 1190 2144 1204 q 2139 1169 2144 1175 q 2126 1161 2133 1163 q 2113 1163 2118 1160 q 2107 1172 2107 1167 q 2057 1221 2090 1199 q 1982 1254 2029 1239 q 1861 1269 1935 1269 q 1741 1241 1792 1269 q 1657 1174 1690 1213 q 1608 1094 1624 1135 q 1592 1029 1592 1054 q 1603 939 1592 975 q 1633 879 1615 903 q 1673 843 1651 856 q 1713 824 1694 831 q 1742 813 1731 817 q 1754 803 1754 808 q 1753 783 1754 793 q 1740 764 1753 772 q 1696 750 1726 756 q 1606 744 1665 744 q 1375 710 1476 744 q 1204 616 1274 675 q 1099 479 1135 557 q 1063 317 1063 401 q 1129 100 1063 178 q 1319 22 1196 22 q 1394 27 1368 22 q 1432 39 1419 32 q 1450 56 1447 46 q 1447 67 1449 58 q 1445 88 1446 74 q 1444 128 1444 103 q 1454 172 1444 153 q 1476 204 1464 190 q 1508 231 1490 219 q 1503 191 1501 214 q 1510 147 1506 168 q 1524 97 1515 122 q 1563 124 1546 108 q 1590 158 1578 138 q 1603 208 1603 178 q 1592 251 1603 238 q 1569 269 1582 265 q 1538 272 1554 275 q 1553 294 1543 285 q 1574 310 1561 303 q 1607 317 1588 317 q 1674 289 1646 317 q 1701 194 1701 261 q 1688 140 1701 167 q 1656 91 1675 114 q 1612 48 1636 68 q 1565 11 1588 28 q 1651 -96 1603 -49 q 1752 -173 1700 -143 q 1857 -215 1804 -203 q 1956 -217 1910 -226 q 1993 -204 1979 -212 q 2015 -189 2007 -196 q 2029 -169 2025 -181 q 2021 -144 2019 -160 q 2028 -121 2022 -129 q 2042 -115 2033 -112 q 2056 -144 2050 -118 q 2055 -199 2061 -171 q 2028 -251 2049 -226 q 1974 -297 2008 -276 q 1888 -328 1939 -317 q 1775 -319 1831 -339 q 1668 -257 1719 -299 q 1572 -157 1617 -215 q 1492 -32 1526 -99 q 1446 -47 1471 -42 q 1393 -57 1424 -53 q 1325 -61 1363 -61 q 1191 -53 1263 -61 q 1053 -19 1119 -44 q 933 56 988 7 q 849 183 878 104 q 619 15 738 79 q 383 -49 500 -49 q 253 -27 321 -49 q 131 47 186 -6 q 39 189 75 100 q 3 413 3 278 q 28 594 3 503 q 94 769 53 685 q 187 926 135 853 q 291 1053 239 999 q 392 1138 343 1107 q 475 1168 440 1168 q 540 1160 515 1168 q 576 1142 564 1151 q 597 1117 592 1131 q 725 1240 654 1185 q 791 1285 756 1263 q 867 1325 826 1307 q 953 1353 908 1343 q 1049 1364 999 1364 q 1153 1345 1106 1364 q 1235 1288 1201 1326 q 1289 1192 1269 1250 q 1308 1057 1308 1135 q 1293 926 1308 994 q 1250 783 1278 858 q 1391 817 1325 807 q 1500 828 1457 828 q 1458 886 1476 853 q 1430 954 1443 914 q 1417 1046 1417 994 q 1454 1165 1417 1108 q 1553 1267 1492 1222 q 1696 1338 1615 1311 q 1863 1364 1776 1364 m 1049 1150 q 904 1121 967 1150 q 800 1049 842 1092 q 737 961 758 1007 q 715 882 715 915 q 728 790 715 833 q 764 713 740 746 q 821 662 788 681 q 894 643 854 643 q 950 648 924 643 q 999 660 976 653 q 1046 691 1022 676 q 1094 719 1069 706 q 1119 783 1104 742 q 1148 872 1135 824 q 1167 969 1161 919 q 1165 1058 1174 1018 q 1130 1124 1157 1099 q 1049 1150 1103 1150 m 392 31 q 517 51 457 31 q 633 108 578 72 q 736 188 688 143 q 826 283 785 233 q 822 344 822 310 q 845 469 822 413 q 906 572 868 525 l 881 572 q 785 588 828 572 q 711 628 743 603 q 656 687 679 654 q 615 753 632 719 q 564 935 576 832 q 382 758 461 853 q 316 672 349 718 q 258 573 283 625 q 217 466 232 521 q 201 354 201 411 q 251 117 201 204 q 392 31 300 31 z "},"":{"ha":1306,"x_min":268,"x_max":1307,"o":"m 1232 404 q 1289 389 1272 404 q 1306 364 1306 374 q 1270 344 1307 353 q 1172 330 1233 336 q 1033 318 1111 324 q 870 309 954 313 q 703 303 786 306 q 553 299 621 301 q 438 297 485 297 q 376 294 390 296 q 326 315 349 294 q 290 359 304 335 q 272 403 275 383 q 281 424 268 424 q 315 423 282 424 q 403 420 349 422 q 530 415 458 418 q 680 410 601 413 q 840 406 758 408 q 994 403 921 404 q 1130 401 1068 401 q 1232 404 1192 401 z "},"":{"ha":954,"x_min":268,"x_max":933,"o":"m 858 404 q 915 389 899 404 q 932 364 932 374 q 898 340 933 350 q 806 322 863 329 q 683 309 750 314 q 553 301 615 304 q 442 297 490 299 q 376 294 394 296 q 326 315 349 294 q 290 359 304 335 q 272 403 275 383 q 281 424 268 424 q 313 422 283 424 q 388 417 342 419 q 492 410 433 414 q 615 405 551 407 q 742 402 679 403 q 858 404 804 401 z "},"":{"ha":1058,"x_min":233,"x_max":1069,"o":"m 1053 963 q 1061 910 1069 940 q 974 788 1017 853 q 889 650 932 722 q 868 615 874 629 q 861 599 863 601 q 838 571 854 583 q 822 565 829 568 q 806 563 814 563 q 847 678 824 631 q 875 746 860 711 q 908 814 890 781 q 924 844 915 829 q 940 875 932 860 q 890 842 917 860 q 838 806 863 824 q 817 788 825 794 q 807 779 810 782 q 792 772 799 772 q 782 771 786 771 q 774 774 776 771 q 764 781 768 775 q 757 793 760 786 q 742 830 749 811 q 724 867 735 849 q 655 763 689 815 q 585 650 621 710 q 564 615 569 629 q 557 599 558 601 q 533 571 550 583 q 519 565 526 568 q 501 563 511 563 q 544 678 519 633 q 604 814 568 744 q 648 900 624 857 q 697 983 672 943 q 749 963 728 979 q 760 946 757 954 q 767 919 764 935 q 774 885 771 903 q 780 853 778 868 q 783 829 782 838 q 785 810 785 819 q 789 790 786 801 q 838 838 807 808 q 902 896 869 867 q 963 950 935 925 q 1001 983 990 975 q 1053 963 1032 979 m 626 938 q 567 931 618 940 q 533 926 549 928 q 500 922 517 925 l 496 910 q 407 788 450 853 q 321 650 364 722 q 302 615 307 629 q 296 599 297 601 q 283 584 290 592 q 269 571 276 576 q 255 565 263 568 q 239 563 247 563 q 258 626 249 599 q 281 678 268 654 q 340 814 306 744 q 363 857 353 836 q 385 899 372 878 q 331 885 357 892 q 278 871 306 879 q 244 906 250 878 q 247 963 233 928 l 249 965 q 336 976 292 972 q 429 983 381 981 l 433 983 l 438 983 q 569 983 500 988 q 618 984 590 983 q 681 978 646 985 q 669 962 674 968 q 660 950 665 956 q 626 938 644 939 z "},"":{"ha":919,"x_min":71,"x_max":1158,"o":"m 1115 485 q 1133 499 1124 496 q 1150 499 1143 503 q 1158 483 1157 494 q 1147 456 1158 472 q 1110 406 1140 444 q 1033 317 1079 368 q 932 210 988 267 q 819 108 876 154 q 706 31 761 61 q 607 0 651 0 q 544 19 572 3 q 499 65 521 35 q 475 151 478 94 l 468 144 q 361 51 419 92 q 244 3 303 11 q 239 1 243 1 q 232 0 235 1 l 218 0 q 172 7 197 0 q 124 33 147 14 q 86 85 101 51 q 71 175 71 119 q 91 300 71 238 q 145 419 111 363 q 223 526 179 476 q 313 613 267 576 q 405 671 360 650 q 489 692 450 692 q 589 659 547 692 q 656 582 631 626 q 649 564 661 575 q 588 553 636 553 q 474 516 531 553 q 368 424 417 479 q 283 306 319 369 q 226 187 246 242 q 209 95 207 132 q 242 58 211 58 q 313 83 274 58 q 389 140 353 108 q 475 222 431 176 q 468 246 471 232 q 464 272 465 257 q 463 307 463 288 q 473 357 463 335 q 499 394 483 379 q 531 415 514 408 q 564 418 549 422 q 651 524 603 475 q 747 610 700 574 q 835 667 794 646 q 899 688 875 688 q 929 683 913 688 q 960 662 946 678 q 985 616 975 646 q 996 536 996 586 q 974 463 996 503 q 917 384 951 424 q 839 307 882 344 q 755 240 796 269 q 680 194 714 211 q 628 176 646 176 q 611 129 614 150 q 615 97 608 111 q 650 83 622 83 q 744 120 685 83 q 871 215 804 157 q 1003 344 938 272 q 1115 485 1069 415 m 883 521 q 860 508 875 521 q 828 475 846 496 q 790 428 810 454 q 750 375 769 401 q 651 229 704 310 q 774 322 722 271 q 856 417 826 372 q 894 491 886 461 q 883 521 901 521 z "},"":{"ha":558,"x_min":6,"x_max":683,"o":"m 593 950 q 559 955 576 950 q 528 969 542 960 q 505 995 514 979 q 496 1032 496 1011 q 509 1080 496 1063 q 539 1105 522 1097 q 570 1114 556 1113 q 588 1115 585 1115 q 653 1094 622 1115 q 683 1032 683 1072 q 656 970 683 990 q 593 950 628 950 m 110 -39 q 94 -50 110 -53 q 58 -31 78 -47 q 22 14 38 -14 q 6 78 6 42 q 36 151 6 97 q 113 276 67 204 q 213 430 158 347 q 313 590 267 513 q 389 733 358 668 q 419 836 419 799 q 440 848 419 849 q 487 835 461 847 q 533 800 513 824 q 554 743 554 776 q 535 699 554 735 q 484 611 515 664 q 413 494 453 558 q 332 362 374 429 q 250 228 290 294 q 178 108 210 163 q 128 14 147 53 q 110 -39 110 -25 z "},"":{"ha":868,"x_min":-508,"x_max":1108,"o":"m 1056 722 q 828 286 935 489 q 736 112 782 200 q 649 -56 690 24 q 574 -198 607 -135 q 521 -299 540 -261 q 490 -360 506 -331 q 456 -421 474 -390 q 369 -553 414 -490 q 276 -665 324 -615 q 176 -750 228 -715 q 71 -800 125 -785 q 19 -803 47 -807 q -35 -785 -10 -800 q -83 -745 -61 -771 q -117 -679 -106 -719 q -103 -624 -122 -658 q -49 -547 -85 -590 q 33 -457 -14 -504 q 129 -362 79 -410 q 399 -128 246 -254 q 448 -49 421 -94 q 503 48 475 -4 q 560 155 532 100 q 615 263 589 210 q 739 521 676 386 q 692 465 731 508 q 599 364 654 421 q 479 243 544 307 q 351 126 414 179 q 231 39 288 74 q 140 4 175 4 q 68 26 96 4 q 26 79 40 47 q 6 148 11 111 q 1 217 1 185 q 23 295 1 243 q 80 414 44 347 q 160 559 115 481 q 251 718 204 638 q 343 877 299 799 q 423 1024 388 956 q 480 1145 458 1092 q 501 1228 501 1199 q 460 1300 501 1269 q 353 1331 419 1331 q 227 1303 300 1331 q 77 1225 154 1275 q -75 1108 0 1175 q -207 960 -150 1040 q -296 790 -264 879 q -319 610 -328 701 q -296 516 -315 550 q -253 465 -276 482 q -206 442 -229 447 q -168 438 -182 438 q -95 454 -117 438 q -65 490 -74 471 q -51 526 -56 510 q -26 543 -46 543 q -1 519 -8 543 q -10 466 6 494 q -68 413 -25 438 q -193 389 -111 389 q -332 416 -275 389 q -426 483 -389 443 q -481 569 -462 524 q -501 654 -499 615 q -478 819 -508 736 q -390 981 -449 903 q -249 1127 -332 1058 q -67 1247 -165 1196 q 140 1326 31 1297 q 363 1356 250 1356 q 485 1330 438 1356 q 560 1268 533 1304 q 599 1192 588 1232 q 614 1124 611 1153 q 599 1024 617 1085 q 549 888 581 963 q 476 732 518 814 q 393 571 435 650 q 312 419 351 492 q 244 293 272 347 q 201 206 215 239 q 197 174 188 174 q 238 193 207 174 q 311 244 268 213 q 406 315 354 275 q 510 397 457 356 q 782 622 632 496 l 833 718 q 926 904 890 822 q 963 1024 963 986 q 985 1038 963 1040 q 1035 1016 1008 1036 q 1085 958 1063 996 q 1108 863 1108 919 q 1094 807 1108 843 q 1056 722 1081 771 m -4 -707 q 58 -673 26 -699 q 119 -612 89 -647 q 180 -533 150 -576 q 236 -447 210 -490 q 357 -222 297 -346 q 136 -428 232 -335 q 56 -508 94 -468 q -11 -581 18 -547 q -57 -640 -40 -615 q -71 -676 -74 -665 q -45 -706 -64 -699 q -4 -707 -26 -714 z "},"":{"ha":511,"x_min":69,"x_max":715,"o":"m 513 268 q 531 283 521 279 q 548 282 540 286 q 556 267 556 278 q 546 239 557 256 q 508 186 535 222 q 445 111 482 150 q 365 40 408 72 q 275 1 321 8 q 217 -124 239 -69 q 196 -212 196 -179 q 185 -219 196 -222 q 160 -199 174 -215 q 134 -155 146 -183 q 122 -86 122 -126 q 135 -51 122 -79 q 171 17 147 -24 q 92 101 115 43 q 69 232 69 160 q 88 311 69 264 q 135 410 106 358 q 201 513 164 461 q 276 605 238 564 q 351 672 315 646 q 415 697 388 697 q 444 689 431 697 q 469 671 458 681 q 493 646 482 660 q 503 630 496 642 q 518 604 510 618 q 603 761 569 694 q 638 849 638 828 q 649 863 638 865 q 676 846 661 860 q 703 813 690 832 q 715 778 715 793 q 696 724 715 763 q 645 629 676 685 q 572 506 614 574 q 485 365 531 438 q 396 217 440 292 q 313 72 351 142 q 346 82 328 74 q 388 111 364 90 q 442 169 411 132 q 513 268 472 207 m 229 117 q 321 272 271 188 q 421 439 371 356 q 413 463 415 451 q 408 482 411 474 q 406 501 406 492 q 313 397 353 453 q 249 288 278 349 q 221 160 221 226 q 229 117 221 133 z "},"":{"ha":760,"x_min":135,"x_max":642,"o":"m 228 1060 q 165 1081 194 1060 q 135 1142 135 1101 q 163 1201 135 1182 q 222 1221 190 1221 q 286 1203 256 1221 q 317 1142 317 1185 q 303 1094 317 1111 q 274 1070 290 1078 q 244 1061 258 1063 q 228 1060 229 1060 m 553 1060 q 490 1081 519 1060 q 460 1142 460 1101 q 488 1201 460 1182 q 547 1221 515 1221 q 611 1203 581 1221 q 642 1142 642 1185 q 628 1094 642 1111 q 599 1070 615 1078 q 569 1061 583 1063 q 553 1060 554 1060 z "},"":{"ha":1036,"x_min":107,"x_max":932,"o":"m 663 572 q 574 528 622 560 q 486 454 526 496 q 421 365 446 413 q 403 275 396 318 q 415 249 406 261 q 449 238 424 238 q 514 249 485 238 q 567 274 543 261 q 608 299 590 288 q 640 311 626 311 q 619 281 638 303 q 574 236 601 260 q 516 194 547 213 q 456 176 485 176 q 405 189 429 176 q 361 221 381 201 q 328 263 342 240 q 313 306 315 286 q 337 410 307 351 q 416 519 367 468 q 524 606 465 571 q 633 640 582 640 q 683 619 656 640 q 728 576 710 599 q 716 563 725 564 q 697 564 707 561 q 676 570 686 567 q 663 572 667 574 m 919 535 q 895 349 932 444 q 791 176 858 254 q 636 47 724 97 q 460 -3 549 -3 q 341 20 399 -3 q 236 85 283 43 q 157 184 189 126 q 117 311 125 242 q 126 457 107 386 q 185 589 146 528 q 282 701 225 650 q 403 789 339 753 q 536 845 468 825 q 667 865 604 865 q 723 849 706 865 q 743 813 740 832 q 737 776 746 793 q 713 760 728 760 q 585 741 650 760 q 459 688 519 722 q 347 606 399 653 q 260 501 296 558 q 207 378 224 443 q 200 246 190 314 q 227 169 206 201 q 278 114 249 136 q 345 81 308 92 q 418 71 382 71 q 585 117 503 71 q 732 235 668 163 q 831 397 796 308 q 856 572 867 486 q 858 608 851 596 q 877 617 865 619 q 901 594 889 614 q 919 535 914 574 z "},"":{"ha":1036,"x_min":107,"x_max":931,"o":"m 922 536 q 916 412 931 475 q 870 289 901 349 q 793 176 839 229 q 693 83 747 124 q 579 20 639 43 q 460 -3 519 -3 q 341 20 399 -3 q 236 85 283 43 q 158 184 189 126 q 117 311 126 242 q 126 457 107 386 q 186 590 146 528 q 283 702 226 651 q 405 790 340 753 q 538 847 469 826 q 669 867 606 867 q 726 850 708 867 q 745 814 743 833 q 738 778 747 794 q 714 761 729 761 q 521 719 618 761 q 347 607 424 678 q 228 442 271 536 q 200 246 186 349 q 227 168 206 201 q 278 113 249 135 q 345 81 308 92 q 419 69 382 69 q 587 116 504 69 q 733 235 669 163 q 833 398 797 308 q 857 574 868 488 q 860 609 853 597 q 878 618 867 621 q 903 595 890 615 q 922 536 915 575 m 575 206 q 542 218 558 206 q 512 249 526 231 q 484 286 497 267 q 460 319 471 306 q 439 267 442 293 q 440 242 438 253 q 442 229 440 232 q 460 226 444 226 q 456 208 463 211 q 436 206 449 206 q 388 222 404 206 q 371 263 371 238 q 380 297 371 275 q 409 348 389 319 q 459 409 429 376 q 531 475 489 442 q 553 486 546 488 q 561 477 560 485 q 561 460 563 469 q 558 450 560 451 q 513 403 528 422 q 492 369 497 383 q 488 345 486 354 q 493 332 490 336 q 533 292 514 308 q 569 264 550 276 q 603 251 588 251 q 628 263 611 251 q 641 267 635 269 q 644 263 647 265 q 622 220 642 235 q 575 206 603 206 m 775 499 q 751 442 775 467 q 691 399 728 417 q 610 370 654 381 q 525 357 565 360 q 517 358 519 357 q 525 365 514 358 q 576 387 544 372 q 639 421 608 401 q 692 463 669 440 q 714 508 714 485 q 705 535 714 524 q 682 553 696 546 q 650 565 668 561 q 615 569 632 569 q 526 551 567 569 q 444 515 485 533 q 406 503 415 501 q 398 513 396 504 q 410 531 400 521 q 429 549 419 542 q 460 572 442 558 q 502 599 479 586 q 552 620 525 611 q 608 629 579 629 q 736 595 697 629 q 775 499 775 561 z "},"":{"ha":954,"x_min":268,"x_max":933,"o":"m 858 404 q 915 389 899 404 q 932 364 932 374 q 898 340 933 350 q 806 322 863 329 q 683 309 750 314 q 553 301 615 304 q 442 297 490 299 q 376 294 394 296 q 326 315 349 294 q 290 359 304 335 q 272 403 275 383 q 281 424 268 424 q 313 422 283 424 q 388 417 342 419 q 492 410 433 414 q 615 405 551 407 q 742 402 679 403 q 858 404 804 401 z "},"":{"ha":1157,"x_min":149,"x_max":974,"o":"m 407 -3 q 282 26 333 -3 q 201 97 231 54 q 160 192 171 140 q 156 293 149 244 q 209 383 161 339 q 325 469 257 428 q 472 551 393 511 q 617 631 550 592 q 731 706 685 669 q 783 781 778 743 q 783 812 786 800 q 774 832 779 824 q 766 848 769 840 q 764 865 763 856 q 788 878 765 876 q 836 867 811 879 q 880 826 861 854 q 893 753 899 799 q 836 634 883 686 q 722 538 789 582 q 577 456 654 494 q 433 376 500 417 q 319 291 367 336 q 265 190 272 246 q 283 138 260 154 q 348 120 307 121 q 443 131 389 119 q 556 163 497 143 q 670 210 614 183 q 772 265 726 236 q 846 320 817 293 q 878 369 875 347 q 899 406 882 406 q 932 387 915 406 q 961 338 949 368 q 971 286 974 308 l 969 275 q 935 202 965 238 q 860 136 906 167 q 756 80 814 106 q 638 36 699 54 q 517 8 578 18 q 407 -3 457 -3 m 863 1000 q 828 1005 846 1000 q 797 1019 811 1010 q 774 1045 783 1029 q 765 1082 765 1061 q 778 1130 765 1113 q 808 1155 792 1147 q 840 1164 825 1163 q 857 1165 854 1165 q 922 1144 892 1165 q 953 1082 953 1122 q 925 1020 953 1040 q 863 1000 897 1000 z "},"":{"ha":511,"x_min":69,"x_max":754,"o":"m 710 493 q 728 508 718 504 q 745 507 738 511 q 753 491 753 503 q 743 463 754 479 q 705 413 735 451 q 631 324 675 375 q 535 215 588 272 q 431 111 483 158 q 333 33 379 64 q 254 1 286 1 q 249 2 251 1 q 244 3 247 3 l 213 -50 q 263 -43 243 -43 q 327 -66 300 -43 q 360 -125 354 -89 q 325 -226 367 -179 q 253 -280 297 -258 q 169 -301 210 -301 q 102 -282 129 -301 q 69 -231 75 -262 q 70 -211 69 -224 q 78 -190 71 -199 q 96 -182 83 -182 l 107 -182 l 110 -204 q 124 -222 113 -215 q 143 -228 136 -228 q 172 -227 158 -228 q 200 -219 185 -226 q 240 -202 221 -212 q 273 -178 258 -192 q 295 -149 288 -164 q 301 -117 303 -133 q 292 -112 300 -112 q 278 -111 283 -111 q 235 -116 254 -111 q 201 -125 215 -121 q 178 -129 185 -129 l 175 -129 q 144 -111 156 -125 q 131 -82 133 -97 q 135 -66 131 -76 q 146 -42 139 -56 q 162 -13 153 -28 q 179 14 171 1 q 94 94 118 38 q 69 228 69 151 q 88 307 69 260 q 134 406 106 354 q 200 510 163 458 q 276 603 238 563 q 350 670 314 644 q 414 696 386 696 q 440 688 429 696 q 458 669 451 679 q 469 644 465 658 q 478 658 469 649 q 499 680 488 668 q 520 703 511 692 q 529 726 529 715 q 539 733 529 736 q 560 715 549 731 q 582 672 572 700 q 592 601 592 643 q 576 515 592 543 q 544 468 561 488 q 511 424 526 449 q 496 346 496 399 q 439 369 458 346 q 413 422 419 393 q 404 499 403 456 q 313 393 353 449 q 249 283 278 344 q 221 154 221 221 q 244 89 221 104 q 296 74 268 74 q 332 92 306 74 q 394 141 358 110 q 472 213 431 172 q 556 301 514 254 q 639 397 599 347 q 710 493 679 446 z "},"":{"ha":840,"x_min":-779,"x_max":1226,"o":"m 1176 -268 q 1160 -308 1176 -290 q 1121 -339 1144 -326 q 1069 -358 1097 -351 q 1015 -365 1040 -365 l 981 -364 q 897 -337 946 -364 q 801 -251 847 -310 q 724 -99 756 -192 q 692 124 692 -7 q 698 206 692 163 q 715 293 704 249 q 738 381 725 338 q 765 465 751 425 q 839 651 797 558 l 856 685 q 926 701 894 694 q 982 715 958 708 q 1031 728 1008 721 q 1119 758 1093 744 q 1146 792 1146 772 q 1142 810 1146 803 q 1128 815 1139 818 q 1121 813 1121 815 q 1117 808 1121 811 q 1100 803 1113 806 q 1058 796 1088 800 l 899 769 q 938 843 915 801 q 979 924 960 885 q 1012 995 999 964 q 1025 1038 1025 1026 q 999 1133 1025 1089 q 940 1206 972 1178 q 881 1244 907 1235 q 854 1239 854 1254 q 834 1192 854 1224 q 781 1119 814 1160 q 706 1032 749 1079 q 621 939 664 985 q 389 701 518 831 l 379 693 q 285 681 339 688 q 171 667 232 674 q 26 660 104 658 q -118 670 -51 661 q -231 697 -185 679 q -279 736 -276 714 q -299 753 -290 749 q -310 748 -306 756 q -311 711 -315 740 q -290 641 -307 682 q -235 565 -272 600 q -139 509 -199 529 q 10 500 -79 489 q 85 512 42 504 q 181 531 128 519 q 60 446 133 494 q -97 352 -12 397 q -272 276 -182 307 q -443 244 -362 244 q -537 256 -497 244 q -608 288 -578 268 q -658 332 -637 307 q -692 383 -679 357 q -726 522 -722 444 q -699 628 -726 571 q -620 742 -671 685 q -499 851 -569 799 q -346 943 -429 903 q -168 1008 -262 983 q 26 1032 -74 1032 q 179 1010 122 1032 q 268 964 236 989 q 319 896 304 933 q 340 886 331 888 q 356 890 349 885 q 363 917 363 896 q 349 983 363 938 q 303 1077 336 1029 q 217 1161 271 1125 q 82 1197 163 1197 q -105 1174 -7 1197 q -299 1109 -203 1151 q -481 1006 -394 1067 q -635 871 -568 946 q -740 708 -701 796 q -779 524 -779 621 q -753 358 -779 436 q -679 221 -728 279 q -559 128 -631 163 q -397 94 -487 94 q -240 122 -321 94 q -81 194 -158 150 q 70 292 -3 238 q 204 400 143 347 q 312 499 265 453 q 385 574 358 546 q 501 601 443 588 q 618 628 560 614 l 650 631 q 600 511 622 576 q 566 381 581 456 q 551 221 551 307 q 559 97 551 164 q 586 -39 567 29 q 639 -169 606 -107 q 722 -281 672 -232 q 839 -358 771 -329 q 997 -387 907 -387 q 1108 -375 1064 -387 q 1178 -344 1153 -362 q 1215 -303 1204 -325 q 1226 -265 1226 -282 q 1219 -238 1226 -249 q 1201 -227 1211 -228 q 1184 -236 1192 -226 q 1176 -268 1176 -246 m 633 731 l 519 713 l 917 1129 q 824 972 867 1047 q 785 907 804 940 q 750 842 767 874 q 719 784 733 811 q 696 739 704 757 l 633 731 m 1018 1311 q 971 1338 1004 1311 q 902 1401 938 1364 q 840 1474 867 1438 q 813 1532 813 1511 q 833 1567 813 1547 q 878 1599 854 1586 q 924 1613 903 1611 q 944 1593 944 1614 q 955 1545 944 1574 q 979 1485 965 1517 q 1007 1423 993 1454 q 1029 1367 1021 1392 q 1036 1326 1038 1342 q 1018 1311 1035 1311 z "},"":{"ha":840,"x_min":-779,"x_max":1239,"o":"m 1176 -268 q 1160 -308 1176 -290 q 1121 -339 1144 -326 q 1069 -358 1097 -351 q 1015 -365 1040 -365 l 981 -364 q 897 -337 946 -364 q 801 -251 847 -310 q 724 -99 756 -192 q 692 124 692 -7 q 698 206 692 163 q 715 293 704 249 q 738 381 725 338 q 765 465 751 425 q 839 651 797 558 l 856 685 q 926 701 894 694 q 982 715 958 708 q 1031 728 1008 721 q 1119 758 1093 744 q 1146 792 1146 772 q 1142 810 1146 803 q 1128 815 1139 818 q 1121 813 1121 815 q 1117 808 1121 811 q 1100 803 1113 806 q 1058 796 1088 800 l 899 769 q 938 843 915 801 q 979 924 960 885 q 1012 995 999 964 q 1025 1038 1025 1026 q 999 1133 1025 1089 q 940 1206 972 1178 q 881 1244 907 1235 q 854 1239 854 1254 q 834 1192 854 1224 q 781 1119 814 1160 q 706 1032 749 1079 q 621 939 664 985 q 389 701 518 831 l 379 693 q 285 681 339 688 q 171 667 232 674 q 26 660 104 658 q -118 670 -51 661 q -231 697 -185 679 q -279 736 -276 714 q -299 753 -290 749 q -310 748 -306 756 q -311 711 -315 740 q -290 641 -307 682 q -235 565 -272 600 q -139 509 -199 529 q 10 500 -79 489 q 85 512 42 504 q 181 531 128 519 q 60 446 133 494 q -97 352 -12 397 q -272 276 -182 307 q -443 244 -362 244 q -537 256 -497 244 q -608 288 -578 268 q -658 332 -637 307 q -692 383 -679 357 q -726 522 -722 444 q -699 628 -726 571 q -620 742 -671 685 q -499 851 -569 799 q -346 943 -429 903 q -168 1008 -262 983 q 26 1032 -74 1032 q 179 1010 122 1032 q 268 964 236 989 q 319 896 304 933 q 340 886 331 888 q 356 890 349 885 q 363 917 363 896 q 349 983 363 938 q 303 1077 336 1029 q 217 1161 271 1125 q 82 1197 163 1197 q -105 1174 -7 1197 q -299 1109 -203 1151 q -481 1006 -394 1067 q -635 871 -568 946 q -740 708 -701 796 q -779 524 -779 621 q -753 358 -779 436 q -679 221 -728 279 q -559 128 -631 163 q -397 94 -487 94 q -240 122 -321 94 q -81 194 -158 150 q 70 292 -3 238 q 204 400 143 347 q 312 499 265 453 q 385 574 358 546 q 501 601 443 588 q 618 628 560 614 l 650 631 q 600 511 622 576 q 566 381 581 456 q 551 221 551 307 q 559 97 551 164 q 586 -39 567 29 q 639 -169 606 -107 q 722 -281 672 -232 q 839 -358 771 -329 q 997 -387 907 -387 q 1108 -375 1064 -387 q 1178 -344 1153 -362 q 1215 -303 1204 -325 q 1226 -265 1226 -282 q 1219 -238 1226 -249 q 1201 -227 1211 -228 q 1184 -236 1192 -226 q 1176 -268 1176 -246 m 633 731 l 519 713 l 917 1129 q 824 972 867 1047 q 785 907 804 940 q 750 842 767 874 q 719 784 733 811 q 696 739 704 757 l 633 731 m 1033 1275 q 1015 1290 1017 1275 q 1022 1331 1014 1306 q 1044 1387 1031 1356 q 1072 1449 1058 1418 q 1097 1509 1086 1481 q 1107 1557 1107 1538 q 1128 1576 1107 1578 q 1173 1563 1149 1575 q 1218 1531 1197 1550 q 1239 1496 1239 1511 q 1212 1438 1239 1475 q 1149 1365 1185 1401 q 1081 1301 1114 1328 q 1033 1275 1047 1275 z "},"":{"ha":404,"x_min":110,"x_max":335,"o":"m 129 668 q 111 683 113 668 q 118 724 110 699 q 140 780 126 749 q 168 842 154 811 q 192 902 182 874 q 203 950 203 931 q 224 969 203 971 q 269 956 244 968 q 314 924 293 943 q 335 889 335 904 q 308 831 335 868 q 245 758 281 794 q 176 694 210 721 q 129 668 143 668 z "},"":{"ha":840,"x_min":-779,"x_max":1226,"o":"m 1176 -268 q 1184 -236 1176 -246 q 1201 -227 1192 -226 q 1219 -238 1211 -228 q 1226 -265 1226 -249 q 1215 -303 1226 -282 q 1178 -344 1204 -325 q 1108 -375 1153 -362 q 997 -387 1064 -387 q 839 -358 907 -387 q 722 -281 771 -329 q 639 -169 672 -232 q 586 -39 606 -107 q 559 97 567 29 q 551 221 551 164 q 566 381 551 307 q 600 511 581 456 q 650 631 622 576 l 618 628 q 501 601 560 614 q 385 574 443 588 q 312 499 358 546 q 204 400 265 453 q 70 292 143 347 q -81 194 -3 238 q -240 122 -158 150 q -397 94 -321 94 q -559 128 -487 94 q -679 221 -631 163 q -753 358 -728 279 q -779 524 -779 436 q -740 708 -779 621 q -635 871 -701 796 q -481 1006 -568 946 q -299 1109 -394 1067 q -105 1174 -203 1151 q 82 1197 -7 1197 q 217 1161 163 1197 q 303 1077 271 1125 q 349 983 336 1029 q 363 917 363 938 q 356 890 363 896 q 340 886 349 885 q 319 896 331 888 q 268 964 304 933 q 179 1010 236 989 q 26 1032 122 1032 q -168 1008 -74 1032 q -346 943 -262 983 q -499 851 -429 903 q -620 742 -569 799 q -699 628 -671 685 q -726 522 -726 571 q -692 383 -722 444 q -658 332 -679 357 q -608 288 -637 307 q -537 256 -578 268 q -443 244 -497 244 q -272 276 -362 244 q -97 352 -182 307 q 60 446 -12 397 q 181 531 133 494 q 85 512 128 519 q 10 500 42 504 q -139 509 -79 489 q -235 565 -199 529 q -290 641 -272 600 q -311 711 -307 682 q -310 748 -315 740 q -299 753 -306 756 q -279 736 -290 749 q -231 697 -276 714 q -118 670 -185 679 q 26 660 -51 661 q 171 667 104 658 q 285 681 232 674 q 379 693 339 688 l 389 701 q 621 939 518 831 q 706 1032 664 985 q 781 1119 749 1079 q 834 1192 814 1160 q 854 1239 854 1224 q 881 1244 854 1254 q 940 1206 907 1235 q 999 1133 972 1178 q 1025 1038 1025 1089 q 1012 995 1025 1026 q 979 924 999 964 q 938 843 960 885 q 899 769 915 801 l 1058 796 q 1100 803 1088 800 q 1117 808 1113 806 q 1121 813 1121 811 q 1128 815 1121 815 q 1142 810 1139 818 q 1146 792 1146 803 q 1119 758 1146 772 q 1031 728 1093 744 q 982 715 1008 721 q 926 701 958 708 q 856 685 894 694 l 839 651 q 765 465 797 558 q 738 381 751 425 q 715 293 725 338 q 698 206 704 249 q 692 124 692 163 q 724 -99 692 -7 q 801 -251 756 -192 q 897 -337 847 -310 q 981 -364 946 -364 l 1015 -365 q 1069 -358 1040 -365 q 1121 -339 1097 -351 q 1160 -308 1144 -326 q 1176 -268 1176 -290 m 696 739 q 719 784 704 757 q 750 842 733 811 q 785 907 767 874 q 824 972 804 940 q 917 1129 867 1047 l 519 713 l 633 731 l 696 739 m 1071 1490 q 1075 1483 1071 1490 q 1085 1464 1079 1475 q 1097 1440 1090 1453 q 1108 1418 1103 1428 q 1127 1383 1117 1401 q 1146 1347 1138 1364 q 1159 1319 1154 1331 q 1163 1303 1164 1307 q 1159 1299 1161 1301 q 1154 1299 1157 1297 q 1128 1306 1144 1299 q 1092 1327 1111 1314 q 1054 1357 1074 1340 q 1019 1389 1035 1374 q 966 1366 994 1378 q 911 1346 938 1354 q 864 1333 885 1338 q 833 1331 843 1328 q 831 1333 832 1331 q 829 1338 829 1336 q 860 1365 833 1344 q 921 1408 888 1385 q 986 1455 954 1432 q 1032 1492 1018 1478 l 1039 1499 q 1057 1506 1046 1506 q 1065 1499 1063 1504 q 1071 1490 1068 1494 z "},"":{"ha":840,"x_min":-779,"x_max":1226,"o":"m 1176 -268 q 1160 -308 1176 -290 q 1121 -339 1144 -326 q 1069 -358 1097 -351 q 1015 -365 1040 -365 l 981 -364 q 897 -337 946 -364 q 801 -251 847 -310 q 724 -99 756 -192 q 692 124 692 -7 q 698 206 692 163 q 715 293 704 249 q 738 381 725 338 q 765 465 751 425 q 839 651 797 558 l 856 685 q 926 701 894 694 q 982 715 958 708 q 1031 728 1008 721 q 1119 758 1093 744 q 1146 792 1146 772 q 1142 810 1146 803 q 1128 815 1139 818 q 1121 813 1121 815 q 1117 808 1121 811 q 1100 803 1113 806 q 1058 796 1088 800 l 899 769 q 938 843 915 801 q 979 924 960 885 q 1012 995 999 964 q 1025 1038 1025 1026 q 999 1133 1025 1089 q 940 1206 972 1178 q 881 1244 907 1235 q 854 1239 854 1254 q 834 1192 854 1224 q 781 1119 814 1160 q 706 1032 749 1079 q 621 939 664 985 q 389 701 518 831 l 379 693 q 285 681 339 688 q 171 667 232 674 q 26 660 104 658 q -118 670 -51 661 q -231 697 -185 679 q -279 736 -276 714 q -299 753 -290 749 q -310 748 -306 756 q -311 711 -315 740 q -290 641 -307 682 q -235 565 -272 600 q -139 509 -199 529 q 10 500 -79 489 q 85 512 42 504 q 181 531 128 519 q 60 446 133 494 q -97 352 -12 397 q -272 276 -182 307 q -443 244 -362 244 q -537 256 -497 244 q -608 288 -578 268 q -658 332 -637 307 q -692 383 -679 357 q -726 522 -722 444 q -699 628 -726 571 q -620 742 -671 685 q -499 851 -569 799 q -346 943 -429 903 q -168 1008 -262 983 q 26 1032 -74 1032 q 179 1010 122 1032 q 268 964 236 989 q 319 896 304 933 q 340 886 331 888 q 356 890 349 885 q 363 917 363 896 q 349 983 363 938 q 303 1077 336 1029 q 217 1161 271 1125 q 82 1197 163 1197 q -105 1174 -7 1197 q -299 1109 -203 1151 q -481 1006 -394 1067 q -635 871 -568 946 q -740 708 -701 796 q -779 524 -779 621 q -753 358 -779 436 q -679 221 -728 279 q -559 128 -631 163 q -397 94 -487 94 q -240 122 -321 94 q -81 194 -158 150 q 70 292 -3 238 q 204 400 143 347 q 312 499 265 453 q 385 574 358 546 q 501 601 443 588 q 618 628 560 614 l 650 631 q 600 511 622 576 q 566 381 581 456 q 551 221 551 307 q 559 97 551 164 q 586 -39 567 29 q 639 -169 606 -107 q 722 -281 672 -232 q 839 -358 771 -329 q 997 -387 907 -387 q 1108 -375 1064 -387 q 1178 -344 1153 -362 q 1215 -303 1204 -325 q 1226 -265 1226 -282 q 1219 -238 1226 -249 q 1201 -227 1211 -228 q 1184 -236 1192 -226 q 1176 -268 1176 -246 m 633 731 l 519 713 l 917 1129 q 824 972 867 1047 q 785 907 804 940 q 750 842 767 874 q 719 784 733 811 q 696 739 704 757 l 633 731 m 1143 1383 q 1130 1388 1136 1383 q 1116 1399 1124 1393 q 1099 1409 1108 1404 q 1075 1414 1089 1414 q 1027 1405 1051 1414 q 978 1384 1003 1396 q 931 1363 954 1372 q 885 1354 907 1354 q 809 1380 840 1354 q 774 1433 778 1406 q 788 1442 774 1442 q 795 1438 792 1442 q 804 1429 799 1433 q 819 1421 810 1425 q 843 1417 828 1417 q 890 1425 868 1417 q 933 1442 913 1433 q 976 1460 954 1451 q 1021 1468 997 1468 q 1088 1451 1056 1468 q 1139 1414 1119 1435 q 1149 1402 1144 1408 q 1153 1393 1153 1396 q 1152 1387 1153 1390 q 1143 1383 1151 1383 z "},"":{"ha":840,"x_min":-779,"x_max":1228,"o":"m 1176 -268 q 1160 -308 1176 -290 q 1121 -339 1144 -326 q 1069 -358 1097 -351 q 1015 -365 1040 -365 l 981 -364 q 897 -337 946 -364 q 801 -251 847 -310 q 724 -99 756 -192 q 692 124 692 -7 q 698 206 692 163 q 715 293 704 249 q 738 381 725 338 q 765 465 751 425 q 839 651 797 558 l 856 685 q 926 701 894 694 q 982 715 958 708 q 1031 728 1008 721 q 1119 758 1093 744 q 1146 792 1146 772 q 1142 810 1146 803 q 1128 815 1139 818 q 1121 813 1121 815 q 1117 808 1121 811 q 1100 803 1113 806 q 1058 796 1088 800 l 899 769 q 938 843 915 801 q 979 924 960 885 q 1012 995 999 964 q 1025 1038 1025 1026 q 999 1133 1025 1089 q 940 1206 972 1178 q 881 1244 907 1235 q 854 1239 854 1254 q 834 1192 854 1224 q 781 1119 814 1160 q 706 1032 749 1079 q 621 939 664 985 q 389 701 518 831 l 379 693 q 285 681 339 688 q 171 667 232 674 q 26 660 104 658 q -118 670 -51 661 q -231 697 -185 679 q -279 736 -276 714 q -299 753 -290 749 q -310 748 -306 756 q -311 711 -315 740 q -290 641 -307 682 q -235 565 -272 600 q -139 509 -199 529 q 10 500 -79 489 q 85 512 42 504 q 181 531 128 519 q 60 446 133 494 q -97 352 -12 397 q -272 276 -182 307 q -443 244 -362 244 q -537 256 -497 244 q -608 288 -578 268 q -658 332 -637 307 q -692 383 -679 357 q -726 522 -722 444 q -699 628 -726 571 q -620 742 -671 685 q -499 851 -569 799 q -346 943 -429 903 q -168 1008 -262 983 q 26 1032 -74 1032 q 179 1010 122 1032 q 268 964 236 989 q 319 896 304 933 q 340 886 331 888 q 356 890 349 885 q 363 917 363 896 q 349 983 363 938 q 303 1077 336 1029 q 217 1161 271 1125 q 82 1197 163 1197 q -105 1174 -7 1197 q -299 1109 -203 1151 q -481 1006 -394 1067 q -635 871 -568 946 q -740 708 -701 796 q -779 524 -779 621 q -753 358 -779 436 q -679 221 -728 279 q -559 128 -631 163 q -397 94 -487 94 q -240 122 -321 94 q -81 194 -158 150 q 70 292 -3 238 q 204 400 143 347 q 312 499 265 453 q 385 574 358 546 q 501 601 443 588 q 618 628 560 614 l 650 631 q 600 511 622 576 q 566 381 581 456 q 551 221 551 307 q 559 97 551 164 q 586 -39 567 29 q 639 -169 606 -107 q 722 -281 672 -232 q 839 -358 771 -329 q 997 -387 907 -387 q 1108 -375 1064 -387 q 1178 -344 1153 -362 q 1215 -303 1204 -325 q 1226 -265 1226 -282 q 1219 -238 1226 -249 q 1201 -227 1211 -228 q 1184 -236 1192 -226 q 1176 -268 1176 -246 m 633 731 l 519 713 l 917 1129 q 824 972 867 1047 q 785 907 804 940 q 750 842 767 874 q 719 784 733 811 q 696 739 704 757 l 633 731 m 825 1318 q 763 1339 792 1318 q 733 1399 733 1360 q 760 1458 733 1439 q 819 1476 788 1476 q 882 1458 853 1476 q 911 1399 911 1440 q 899 1352 911 1368 q 870 1328 886 1336 q 840 1319 854 1321 q 825 1318 826 1318 m 1142 1318 q 1079 1339 1108 1318 q 1050 1399 1050 1360 q 1077 1458 1050 1439 q 1136 1476 1104 1476 q 1199 1458 1169 1476 q 1228 1399 1228 1440 q 1215 1352 1228 1368 q 1187 1328 1203 1336 q 1157 1319 1171 1321 q 1142 1318 1143 1318 z "},"":{"ha":931,"x_min":0,"x_max":1358,"o":"m 514 -162 q 584 -158 553 -162 q 639 -147 615 -154 q 686 -131 665 -140 q 769 -259 722 -199 q 868 -362 815 -319 q 978 -425 921 -404 q 1093 -433 1035 -446 q 1183 -402 1147 -422 q 1239 -356 1218 -382 q 1267 -303 1260 -331 q 1268 -247 1274 -275 q 1254 -217 1263 -221 q 1240 -222 1246 -214 q 1233 -246 1233 -231 q 1242 -272 1232 -261 q 1228 -292 1238 -282 q 1205 -308 1219 -300 q 1167 -322 1190 -317 q 1065 -319 1118 -332 q 957 -276 1011 -307 q 853 -197 903 -244 q 763 -86 803 -149 q 811 -50 786 -71 q 857 -6 836 -29 q 891 46 878 18 q 904 103 904 74 q 875 199 904 169 q 806 228 846 228 q 771 220 785 228 q 749 204 757 213 q 733 181 739 193 q 767 178 751 183 q 790 159 779 172 q 801 115 801 146 q 789 63 801 85 q 761 28 776 42 q 721 1 743 13 q 706 53 711 28 q 699 97 700 74 q 704 138 697 121 q 671 111 686 126 q 648 78 658 97 q 638 33 638 60 q 638 -8 638 7 q 640 -31 639 -24 q 644 -43 642 -40 q 626 -60 642 -53 q 585 -72 613 -67 q 508 -76 557 -76 q 397 -47 446 -76 q 313 32 347 -18 q 262 147 279 82 q 244 282 244 211 q 282 449 244 369 q 390 588 319 528 q 565 685 461 649 q 803 721 669 721 q 896 726 864 721 q 941 741 928 732 q 956 760 954 750 q 957 781 957 771 q 944 790 957 786 q 913 802 932 794 q 873 822 894 810 q 833 859 851 835 q 801 920 814 883 q 789 1014 789 957 q 806 1081 789 1039 q 858 1162 824 1122 q 945 1231 893 1201 q 1067 1260 997 1260 q 1192 1244 1143 1260 q 1269 1210 1240 1229 q 1321 1160 1303 1188 q 1326 1151 1321 1154 q 1340 1149 1332 1147 q 1353 1156 1347 1150 q 1358 1178 1358 1163 q 1346 1222 1358 1192 q 1301 1281 1333 1251 q 1213 1333 1269 1311 q 1068 1356 1157 1356 q 898 1328 981 1356 q 751 1257 815 1301 q 649 1153 688 1213 q 610 1032 610 1094 q 623 936 610 978 q 653 865 636 894 q 696 806 671 831 q 583 794 651 806 q 437 759 514 783 q 281 696 360 735 q 140 602 203 657 q 39 475 78 547 q 0 311 0 403 q 24 149 0 219 q 88 25 47 78 q 181 -64 128 -28 q 290 -122 233 -100 q 405 -153 347 -143 q 514 -162 463 -162 m 1108 1407 q 1061 1433 1094 1407 q 992 1497 1028 1460 q 930 1570 957 1533 q 903 1628 903 1607 q 924 1663 903 1643 q 969 1694 944 1682 q 1014 1708 993 1707 q 1035 1689 1035 1710 q 1045 1641 1035 1669 q 1069 1581 1056 1613 q 1097 1519 1083 1550 q 1119 1463 1111 1488 q 1126 1422 1128 1438 q 1108 1407 1125 1407 z "},"":{"ha":931,"x_min":0,"x_max":1358,"o":"m 514 -162 q 584 -158 553 -162 q 639 -147 615 -154 q 686 -131 665 -140 q 769 -259 722 -199 q 868 -362 815 -319 q 978 -425 921 -404 q 1093 -433 1035 -446 q 1183 -402 1147 -422 q 1239 -356 1218 -382 q 1267 -303 1260 -331 q 1268 -247 1274 -275 q 1254 -217 1263 -221 q 1240 -222 1246 -214 q 1233 -246 1233 -231 q 1242 -272 1232 -261 q 1228 -292 1238 -282 q 1205 -308 1219 -300 q 1167 -322 1190 -317 q 1065 -319 1118 -332 q 957 -276 1011 -307 q 853 -197 903 -244 q 763 -86 803 -149 q 811 -50 786 -71 q 857 -6 836 -29 q 891 46 878 18 q 904 103 904 74 q 875 199 904 169 q 806 228 846 228 q 771 220 785 228 q 749 204 757 213 q 733 181 739 193 q 767 178 751 183 q 790 159 779 172 q 801 115 801 146 q 789 63 801 85 q 761 28 776 42 q 721 1 743 13 q 706 53 711 28 q 699 97 700 74 q 704 138 697 121 q 671 111 686 126 q 648 78 658 97 q 638 33 638 60 q 638 -8 638 7 q 640 -31 639 -24 q 644 -43 642 -40 q 626 -60 642 -53 q 585 -72 613 -67 q 508 -76 557 -76 q 397 -47 446 -76 q 313 32 347 -18 q 262 147 279 82 q 244 282 244 211 q 282 449 244 369 q 390 588 319 528 q 565 685 461 649 q 803 721 669 721 q 896 726 864 721 q 941 741 928 732 q 956 760 954 750 q 957 781 957 771 q 944 790 957 786 q 913 802 932 794 q 873 822 894 810 q 833 859 851 835 q 801 920 814 883 q 789 1014 789 957 q 806 1081 789 1039 q 858 1162 824 1122 q 945 1231 893 1201 q 1067 1260 997 1260 q 1192 1244 1143 1260 q 1269 1210 1240 1229 q 1321 1160 1303 1188 q 1326 1151 1321 1154 q 1340 1149 1332 1147 q 1353 1156 1347 1150 q 1358 1178 1358 1163 q 1346 1222 1358 1192 q 1301 1281 1333 1251 q 1213 1333 1269 1311 q 1068 1356 1157 1356 q 898 1328 981 1356 q 751 1257 815 1301 q 649 1153 688 1213 q 610 1032 610 1094 q 623 936 610 978 q 653 865 636 894 q 696 806 671 831 q 583 794 651 806 q 437 759 514 783 q 281 696 360 735 q 140 602 203 657 q 39 475 78 547 q 0 311 0 403 q 24 149 0 219 q 88 25 47 78 q 181 -64 128 -28 q 290 -122 233 -100 q 405 -153 347 -143 q 514 -162 463 -162 m 1029 1407 q 1011 1422 1013 1407 q 1018 1463 1010 1438 q 1040 1519 1026 1488 q 1068 1581 1054 1550 q 1092 1641 1082 1613 q 1103 1689 1103 1669 q 1124 1708 1103 1710 q 1169 1694 1144 1707 q 1214 1663 1193 1682 q 1235 1628 1235 1643 q 1208 1570 1235 1607 q 1145 1497 1181 1533 q 1076 1433 1110 1460 q 1029 1407 1043 1407 z "},"":{"ha":931,"x_min":0,"x_max":1358,"o":"m 514 -162 q 405 -153 463 -162 q 290 -122 347 -143 q 181 -64 233 -100 q 88 25 128 -28 q 24 149 47 78 q 0 311 0 219 q 39 475 0 403 q 140 602 78 547 q 281 696 203 657 q 437 759 360 735 q 583 794 514 783 q 696 806 651 806 q 653 865 671 831 q 623 936 636 894 q 610 1032 610 978 q 649 1153 610 1094 q 751 1257 688 1213 q 898 1328 815 1301 q 1068 1356 981 1356 q 1213 1333 1157 1356 q 1301 1281 1269 1311 q 1346 1222 1333 1251 q 1358 1178 1358 1192 q 1353 1156 1358 1163 q 1340 1149 1347 1150 q 1326 1151 1332 1147 q 1321 1160 1321 1154 q 1269 1210 1303 1188 q 1192 1244 1240 1229 q 1067 1260 1143 1260 q 945 1231 997 1260 q 858 1162 893 1201 q 806 1081 824 1122 q 789 1014 789 1039 q 801 920 789 957 q 833 859 814 883 q 873 822 851 835 q 913 802 894 810 q 944 790 932 794 q 957 781 957 786 q 956 760 957 771 q 941 741 954 750 q 896 726 928 732 q 803 721 864 721 q 565 685 669 721 q 390 588 461 649 q 282 449 319 528 q 244 282 244 369 q 262 147 244 211 q 313 32 279 82 q 397 -47 347 -18 q 508 -76 446 -76 q 585 -72 557 -76 q 626 -60 613 -67 q 644 -43 642 -53 q 640 -31 642 -40 q 638 -8 639 -24 q 638 33 638 7 q 648 78 638 60 q 671 111 658 97 q 704 138 686 126 q 699 97 697 121 q 706 53 700 74 q 721 1 711 28 q 761 28 743 13 q 789 63 776 42 q 801 115 801 85 q 790 159 801 146 q 767 178 779 172 q 733 181 751 183 q 749 204 739 193 q 771 220 757 213 q 806 228 785 228 q 875 199 846 228 q 904 103 904 169 q 891 46 904 74 q 857 -6 878 18 q 811 -50 836 -29 q 763 -86 786 -71 q 853 -197 803 -149 q 957 -276 903 -244 q 1065 -319 1011 -307 q 1167 -322 1118 -332 q 1205 -308 1190 -317 q 1228 -292 1219 -300 q 1242 -272 1238 -282 q 1233 -246 1232 -261 q 1240 -222 1233 -231 q 1254 -217 1246 -214 q 1268 -247 1263 -221 q 1267 -303 1274 -275 q 1239 -356 1260 -331 q 1183 -402 1218 -382 q 1093 -433 1147 -422 q 978 -425 1035 -446 q 868 -362 921 -404 q 769 -259 815 -319 q 686 -131 722 -199 q 639 -147 665 -140 q 584 -158 615 -154 q 514 -162 553 -162 m 1200 1594 q 1204 1587 1200 1594 q 1214 1568 1208 1579 q 1226 1544 1219 1557 q 1238 1522 1232 1532 q 1256 1487 1246 1506 q 1275 1451 1267 1468 q 1288 1423 1283 1435 q 1292 1407 1293 1411 q 1288 1403 1290 1406 q 1283 1403 1286 1401 q 1257 1410 1274 1403 q 1222 1431 1240 1418 q 1183 1461 1203 1444 q 1149 1493 1164 1478 q 1095 1470 1124 1482 q 1040 1450 1067 1458 q 993 1437 1014 1442 q 963 1435 972 1432 q 960 1438 961 1435 q 958 1442 958 1440 q 990 1469 963 1449 q 1050 1513 1017 1489 q 1115 1559 1083 1536 q 1161 1596 1147 1582 l 1168 1603 q 1186 1610 1175 1610 q 1194 1603 1192 1608 q 1200 1594 1197 1599 z "},"":{"ha":931,"x_min":0,"x_max":1358,"o":"m 514 -162 q 584 -158 553 -162 q 639 -147 615 -154 q 686 -131 665 -140 q 769 -259 722 -199 q 868 -362 815 -319 q 978 -425 921 -404 q 1093 -433 1035 -446 q 1183 -402 1147 -422 q 1239 -356 1218 -382 q 1267 -303 1260 -331 q 1268 -247 1274 -275 q 1254 -217 1263 -221 q 1240 -222 1246 -214 q 1233 -246 1233 -231 q 1242 -272 1232 -261 q 1228 -292 1238 -282 q 1205 -308 1219 -300 q 1167 -322 1190 -317 q 1065 -319 1118 -332 q 957 -276 1011 -307 q 853 -197 903 -244 q 763 -86 803 -149 q 811 -50 786 -71 q 857 -6 836 -29 q 891 46 878 18 q 904 103 904 74 q 875 199 904 169 q 806 228 846 228 q 771 220 785 228 q 749 204 757 213 q 733 181 739 193 q 767 178 751 183 q 790 159 779 172 q 801 115 801 146 q 789 63 801 85 q 761 28 776 42 q 721 1 743 13 q 706 53 711 28 q 699 97 700 74 q 704 138 697 121 q 671 111 686 126 q 648 78 658 97 q 638 33 638 60 q 638 -8 638 7 q 640 -31 639 -24 q 644 -43 642 -40 q 626 -60 642 -53 q 585 -72 613 -67 q 508 -76 557 -76 q 397 -47 446 -76 q 313 32 347 -18 q 262 147 279 82 q 244 282 244 211 q 282 449 244 369 q 390 588 319 528 q 565 685 461 649 q 803 721 669 721 q 896 726 864 721 q 941 741 928 732 q 956 760 954 750 q 957 781 957 771 q 944 790 957 786 q 913 802 932 794 q 873 822 894 810 q 833 859 851 835 q 801 920 814 883 q 789 1014 789 957 q 806 1081 789 1039 q 858 1162 824 1122 q 945 1231 893 1201 q 1067 1260 997 1260 q 1192 1244 1143 1260 q 1269 1210 1240 1229 q 1321 1160 1303 1188 q 1326 1151 1321 1154 q 1340 1149 1332 1147 q 1353 1156 1347 1150 q 1358 1178 1358 1163 q 1346 1222 1358 1192 q 1301 1281 1333 1251 q 1213 1333 1269 1311 q 1068 1356 1157 1356 q 898 1328 981 1356 q 751 1257 815 1301 q 649 1153 688 1213 q 610 1032 610 1094 q 623 936 610 978 q 653 865 636 894 q 696 806 671 831 q 583 794 651 806 q 437 759 514 783 q 281 696 360 735 q 140 602 203 657 q 39 475 78 547 q 0 311 0 403 q 24 149 0 219 q 88 25 47 78 q 181 -64 128 -28 q 290 -122 233 -100 q 405 -153 347 -143 q 514 -162 463 -162 m 943 1411 q 881 1432 910 1411 q 851 1492 851 1453 q 878 1551 851 1532 q 938 1569 906 1569 q 1000 1551 971 1569 q 1029 1492 1029 1533 q 1017 1445 1029 1461 q 988 1422 1004 1429 q 958 1413 972 1414 q 943 1411 944 1411 m 1260 1411 q 1197 1432 1226 1411 q 1168 1492 1168 1453 q 1195 1551 1168 1532 q 1254 1569 1222 1569 q 1317 1551 1288 1569 q 1346 1492 1346 1533 q 1333 1445 1346 1461 q 1305 1422 1321 1429 q 1275 1413 1289 1414 q 1260 1411 1261 1411 z "},"":{"ha":733,"x_min":-349,"x_max":1008,"o":"m 40 779 q 20 774 40 765 q -24 806 0 783 q -70 856 -49 828 q -94 908 -92 885 q -71 965 -97 925 q 4 1055 -44 1004 q 120 1160 53 1106 q 267 1258 188 1214 q 438 1332 347 1303 q 621 1361 528 1361 q 745 1344 690 1361 q 841 1300 800 1326 q 911 1241 882 1274 q 959 1178 940 1208 q 987 1122 978 1147 q 997 1086 996 1097 q 982 913 1008 1007 q 901 719 956 819 q 771 519 847 619 q 606 325 694 418 q 423 151 518 232 q 237 10 328 71 q 63 -84 146 -50 q -83 -118 -19 -118 q -220 -99 -168 -118 q -301 -53 -272 -81 q -339 6 -329 -26 q -348 66 -349 39 q -340 112 -347 93 q -329 131 -333 131 q -319 108 -322 131 q -308 57 -315 85 q -288 6 -301 29 q -249 -17 -275 -17 q -71 25 -164 -17 q 117 137 22 67 q 302 299 211 207 q 475 491 393 390 q 626 695 557 592 q 742 891 694 799 q 815 1059 790 983 q 833 1179 839 1135 q 789 1240 826 1226 q 694 1242 751 1253 q 565 1200 636 1231 q 420 1128 493 1169 q 278 1039 347 1086 q 153 948 208 992 q 66 868 99 904 q 33 813 33 832 q 37 794 33 800 q 40 779 40 789 m 908 1385 q 861 1411 894 1385 q 792 1474 828 1438 q 730 1548 757 1511 q 703 1606 703 1585 q 724 1640 703 1621 q 769 1672 744 1660 q 814 1686 793 1685 q 835 1667 835 1688 q 845 1619 835 1647 q 869 1559 856 1590 q 897 1497 883 1528 q 919 1440 911 1465 q 926 1400 928 1415 q 908 1385 925 1385 z "},"":{"ha":733,"x_min":-349,"x_max":1008,"o":"m 40 779 q 20 774 40 765 q -24 806 0 783 q -70 856 -49 828 q -94 908 -92 885 q -71 965 -97 925 q 4 1055 -44 1004 q 120 1160 53 1106 q 267 1258 188 1214 q 438 1332 347 1303 q 621 1361 528 1361 q 745 1344 690 1361 q 841 1300 800 1326 q 911 1241 882 1274 q 959 1178 940 1208 q 987 1122 978 1147 q 997 1086 996 1097 q 982 913 1008 1007 q 901 719 956 819 q 771 519 847 619 q 606 325 694 418 q 423 151 518 232 q 237 10 328 71 q 63 -84 146 -50 q -83 -118 -19 -118 q -220 -99 -168 -118 q -301 -53 -272 -81 q -339 6 -329 -26 q -348 66 -349 39 q -340 112 -347 93 q -329 131 -333 131 q -319 108 -322 131 q -308 57 -315 85 q -288 6 -301 29 q -249 -17 -275 -17 q -71 25 -164 -17 q 117 137 22 67 q 302 299 211 207 q 475 491 393 390 q 626 695 557 592 q 742 891 694 799 q 815 1059 790 983 q 833 1179 839 1135 q 789 1240 826 1226 q 694 1242 751 1253 q 565 1200 636 1231 q 420 1128 493 1169 q 278 1039 347 1086 q 153 948 208 992 q 66 868 99 904 q 33 813 33 832 q 37 794 33 800 q 40 779 40 789 m 771 1385 q 753 1400 754 1385 q 760 1440 751 1415 q 782 1497 768 1465 q 810 1559 796 1528 q 834 1619 824 1590 q 844 1667 844 1647 q 865 1686 844 1688 q 910 1672 886 1685 q 956 1640 935 1660 q 976 1606 976 1621 q 949 1548 976 1585 q 887 1474 922 1511 q 818 1411 851 1438 q 771 1385 785 1385 z "},"":{"ha":733,"x_min":-349,"x_max":1031,"o":"m 40 779 q 20 774 40 765 q -24 806 0 783 q -70 856 -49 828 q -94 908 -92 885 q -71 965 -97 925 q 4 1055 -44 1004 q 120 1160 53 1106 q 267 1258 188 1214 q 438 1332 347 1303 q 621 1361 528 1361 q 745 1344 690 1361 q 841 1300 800 1326 q 911 1241 882 1274 q 959 1178 940 1208 q 987 1122 978 1147 q 997 1086 996 1097 q 982 913 1008 1007 q 901 719 956 819 q 771 519 847 619 q 606 325 694 418 q 423 151 518 232 q 237 10 328 71 q 63 -84 146 -50 q -83 -118 -19 -118 q -220 -99 -168 -118 q -301 -53 -272 -81 q -339 6 -329 -26 q -348 66 -349 39 q -340 112 -347 93 q -329 131 -333 131 q -319 108 -322 131 q -308 57 -315 85 q -288 6 -301 29 q -249 -17 -275 -17 q -71 25 -164 -17 q 117 137 22 67 q 302 299 211 207 q 475 491 393 390 q 626 695 557 592 q 742 891 694 799 q 815 1059 790 983 q 833 1179 839 1135 q 789 1240 826 1226 q 694 1242 751 1253 q 565 1200 636 1231 q 420 1128 493 1169 q 278 1039 347 1086 q 153 948 208 992 q 66 868 99 904 q 33 813 33 832 q 37 794 33 800 q 40 779 40 789 m 938 1628 q 942 1620 938 1628 q 951 1601 946 1613 q 963 1578 957 1590 q 975 1556 969 1565 q 994 1520 983 1539 q 1013 1485 1004 1501 q 1026 1456 1021 1468 q 1029 1440 1031 1444 q 1026 1437 1028 1439 q 1021 1436 1024 1435 q 994 1444 1011 1436 q 959 1465 978 1451 q 921 1494 940 1478 q 886 1526 901 1511 q 833 1503 861 1515 q 778 1483 804 1492 q 731 1470 751 1475 q 700 1468 710 1465 q 697 1471 699 1468 q 696 1475 696 1474 q 727 1502 700 1482 q 788 1546 754 1522 q 853 1592 821 1569 q 899 1629 885 1615 l 906 1636 q 924 1643 913 1643 q 932 1637 929 1642 q 938 1628 935 1632 z "},"":{"ha":733,"x_min":-349,"x_max":1099,"o":"m 40 779 q 20 774 40 765 q -24 806 0 783 q -70 856 -49 828 q -94 908 -92 885 q -71 965 -97 925 q 4 1055 -44 1004 q 120 1160 53 1106 q 267 1258 188 1214 q 438 1332 347 1303 q 621 1361 528 1361 q 745 1344 690 1361 q 841 1300 800 1326 q 911 1241 882 1274 q 959 1178 940 1208 q 987 1122 978 1147 q 997 1086 996 1097 q 982 913 1008 1007 q 901 719 956 819 q 771 519 847 619 q 606 325 694 418 q 423 151 518 232 q 237 10 328 71 q 63 -84 146 -50 q -83 -118 -19 -118 q -220 -99 -168 -118 q -301 -53 -272 -81 q -339 6 -329 -26 q -348 66 -349 39 q -340 112 -347 93 q -329 131 -333 131 q -319 108 -322 131 q -308 57 -315 85 q -288 6 -301 29 q -249 -17 -275 -17 q -71 25 -164 -17 q 117 137 22 67 q 302 299 211 207 q 475 491 393 390 q 626 695 557 592 q 742 891 694 799 q 815 1059 790 983 q 833 1179 839 1135 q 789 1240 826 1226 q 694 1242 751 1253 q 565 1200 636 1231 q 420 1128 493 1169 q 278 1039 347 1086 q 153 948 208 992 q 66 868 99 904 q 33 813 33 832 q 37 794 33 800 q 40 779 40 789 m 696 1438 q 633 1458 663 1438 q 604 1518 604 1479 q 631 1577 604 1558 q 690 1596 658 1596 q 753 1578 724 1596 q 782 1518 782 1560 q 769 1472 782 1488 q 741 1448 757 1456 q 711 1439 725 1440 q 696 1438 697 1438 m 1013 1438 q 950 1458 979 1438 q 921 1518 921 1479 q 948 1577 921 1558 q 1007 1596 975 1596 q 1069 1578 1040 1596 q 1099 1518 1099 1560 q 1086 1472 1099 1488 q 1058 1448 1074 1456 q 1028 1439 1042 1440 q 1013 1438 1014 1438 z "},"":{"ha":788,"x_min":-308,"x_max":1260,"o":"m 501 122 q 516 229 501 175 q 554 335 531 283 q 609 437 578 388 q 672 529 640 486 q 844 724 749 631 q 781 695 824 724 q 685 618 739 667 q 568 506 631 569 q 444 374 506 443 q 325 234 382 304 q 225 101 268 164 q 156 -12 182 39 q 129 -90 129 -62 q 109 -108 129 -106 q 65 -99 89 -111 q 22 -58 42 -87 q 1 21 1 -29 q 49 222 1 114 q 167 442 96 331 q 319 663 238 554 q 472 867 401 772 q 590 1038 543 963 q 638 1156 638 1113 q 601 1231 638 1199 q 496 1263 564 1263 q 384 1242 450 1263 q 246 1184 318 1221 q 102 1097 174 1147 q -26 985 31 1046 q -117 858 -82 925 q -153 719 -153 790 q -110 631 -153 663 q -1 600 -68 600 q 68 613 38 600 q 114 656 99 625 q 119 700 125 678 q 101 740 113 722 q 79 769 90 758 q 69 783 68 781 q 88 799 76 797 q 111 794 97 800 q 122 788 117 792 q 132 778 124 788 q 147 751 140 769 q 156 710 154 736 q 143 651 158 685 q 66 574 119 601 q -53 547 13 547 q -160 564 -112 547 q -240 608 -207 581 q -291 674 -274 636 q -308 756 -308 713 q -275 883 -308 818 q -184 1010 -242 949 q -47 1127 -126 1072 q 123 1223 32 1182 q 313 1288 214 1264 q 510 1311 411 1311 q 634 1281 588 1311 q 705 1210 681 1251 q 737 1123 729 1168 q 744 1047 744 1078 q 715 930 744 994 q 642 798 686 865 q 548 665 599 731 q 453 545 497 600 q 381 451 410 490 q 351 397 351 411 q 594 629 483 526 q 689 715 642 672 q 776 790 736 757 q 845 842 815 822 q 888 863 875 863 q 929 843 913 863 q 957 797 946 824 q 973 742 968 769 q 978 699 978 715 q 953 639 978 676 q 892 552 929 601 q 813 445 856 503 q 734 326 771 388 q 673 203 697 265 q 649 85 649 142 q 667 -112 649 -15 q 722 -287 686 -210 q 813 -412 758 -364 q 939 -460 868 -460 q 1057 -432 1011 -460 q 1129 -371 1103 -404 q 1175 -281 1160 -332 q 1182 -257 1176 -268 q 1198 -240 1188 -247 q 1229 -232 1208 -232 q 1251 -244 1246 -232 q 1258 -271 1257 -256 q 1256 -310 1260 -287 q 1193 -415 1233 -369 q 1100 -487 1158 -456 q 953 -519 1042 -519 q 783 -471 864 -519 q 639 -337 701 -422 q 539 -134 576 -251 q 501 122 501 -17 m 1165 1103 q 1152 1108 1158 1103 q 1138 1118 1146 1113 q 1121 1128 1131 1124 q 1097 1133 1111 1133 q 1049 1124 1074 1133 q 1001 1103 1025 1115 q 953 1083 976 1092 q 907 1074 929 1074 q 831 1099 863 1074 q 796 1153 800 1125 q 810 1161 796 1161 q 817 1157 814 1161 q 826 1149 821 1153 q 841 1140 832 1144 q 865 1136 850 1136 q 913 1144 890 1136 q 956 1162 935 1153 q 998 1179 976 1171 q 1043 1188 1019 1188 q 1110 1171 1078 1188 q 1161 1133 1142 1154 q 1171 1122 1167 1128 q 1175 1113 1175 1115 q 1174 1106 1175 1110 q 1165 1103 1174 1103 z "},"":{"ha":1025,"x_min":1,"x_max":1304,"o":"m 1044 1361 q 950 1351 996 1361 q 863 1323 904 1340 q 786 1283 822 1306 q 721 1239 750 1261 q 594 1117 650 1185 q 572 1142 588 1131 q 535 1159 558 1151 q 472 1167 513 1167 q 389 1136 438 1167 q 288 1052 340 1106 q 185 926 236 999 q 92 771 133 854 q 26 597 51 688 q 1 417 1 506 q 38 192 1 281 q 129 51 74 103 q 252 -23 185 -1 q 382 -44 319 -44 q 597 10 488 -44 q 808 153 706 64 q 1001 358 911 243 q 1159 596 1092 474 q 1265 838 1226 718 q 1304 1057 1304 958 q 1285 1192 1304 1135 q 1231 1286 1265 1249 q 1148 1342 1196 1324 q 1044 1361 1100 1361 m 390 35 q 249 122 299 35 q 199 357 199 210 q 214 468 199 413 q 255 575 229 524 q 313 673 281 626 q 379 760 346 719 q 561 936 458 854 q 613 754 574 833 q 653 688 629 721 q 708 630 676 656 q 783 589 740 604 q 878 574 825 574 q 930 577 904 574 q 976 585 956 581 q 1024 597 1001 590 q 847 315 944 439 q 755 213 806 263 q 647 123 704 163 q 524 59 589 83 q 390 35 460 35 m 1082 699 q 1026 672 1057 683 q 966 653 1000 661 q 892 646 932 646 q 818 665 851 646 q 761 715 785 683 q 725 790 738 747 q 713 881 713 832 q 734 960 713 914 q 797 1049 756 1007 q 901 1119 839 1090 q 1044 1149 963 1149 q 1118 1129 1092 1149 q 1156 1078 1144 1110 q 1166 1006 1167 1047 q 1157 924 1165 965 q 1082 699 1138 825 m 1108 1407 q 1061 1433 1094 1407 q 992 1497 1028 1460 q 930 1570 957 1533 q 903 1628 903 1607 q 924 1663 903 1643 q 969 1694 944 1682 q 1014 1708 993 1707 q 1035 1689 1035 1710 q 1045 1641 1035 1669 q 1069 1581 1056 1613 q 1097 1519 1083 1550 q 1119 1463 1111 1488 q 1126 1422 1128 1438 q 1108 1407 1125 1407 z "},"":{"ha":1025,"x_min":1,"x_max":1304,"o":"m 1044 1361 q 950 1351 996 1361 q 863 1323 904 1340 q 786 1283 822 1306 q 721 1239 750 1261 q 594 1117 650 1185 q 572 1142 588 1131 q 535 1159 558 1151 q 472 1167 513 1167 q 389 1136 438 1167 q 288 1052 340 1106 q 185 926 236 999 q 92 771 133 854 q 26 597 51 688 q 1 417 1 506 q 38 192 1 281 q 129 51 74 103 q 252 -23 185 -1 q 382 -44 319 -44 q 597 10 488 -44 q 808 153 706 64 q 1001 358 911 243 q 1159 596 1092 474 q 1265 838 1226 718 q 1304 1057 1304 958 q 1285 1192 1304 1135 q 1231 1286 1265 1249 q 1148 1342 1196 1324 q 1044 1361 1100 1361 m 390 35 q 249 122 299 35 q 199 357 199 210 q 214 468 199 413 q 255 575 229 524 q 313 673 281 626 q 379 760 346 719 q 561 936 458 854 q 613 754 574 833 q 653 688 629 721 q 708 630 676 656 q 783 589 740 604 q 878 574 825 574 q 930 577 904 574 q 976 585 956 581 q 1024 597 1001 590 q 847 315 944 439 q 755 213 806 263 q 647 123 704 163 q 524 59 589 83 q 390 35 460 35 m 1082 699 q 1026 672 1057 683 q 966 653 1000 661 q 892 646 932 646 q 818 665 851 646 q 761 715 785 683 q 725 790 738 747 q 713 881 713 832 q 734 960 713 914 q 797 1049 756 1007 q 901 1119 839 1090 q 1044 1149 963 1149 q 1118 1129 1092 1149 q 1156 1078 1144 1110 q 1166 1006 1167 1047 q 1157 924 1165 965 q 1082 699 1138 825 m 1068 1407 q 1050 1422 1051 1407 q 1057 1463 1049 1438 q 1079 1519 1065 1488 q 1107 1581 1093 1550 q 1131 1641 1121 1613 q 1142 1689 1142 1669 q 1163 1708 1142 1710 q 1208 1694 1183 1707 q 1253 1663 1232 1682 q 1274 1628 1274 1643 q 1247 1570 1274 1607 q 1184 1497 1219 1533 q 1115 1433 1149 1460 q 1068 1407 1082 1407 z "},"":{"ha":1025,"x_min":1,"x_max":1304,"o":"m 1044 1361 q 1148 1342 1100 1361 q 1231 1286 1196 1324 q 1285 1192 1265 1249 q 1304 1057 1304 1135 q 1265 838 1304 958 q 1159 596 1226 718 q 1001 358 1092 474 q 808 153 911 243 q 597 10 706 64 q 382 -44 488 -44 q 252 -23 319 -44 q 129 51 185 -1 q 38 192 74 103 q 1 417 1 281 q 26 597 1 506 q 92 771 51 688 q 185 926 133 854 q 288 1052 236 999 q 389 1136 340 1106 q 472 1167 438 1167 q 535 1159 513 1167 q 572 1142 558 1151 q 594 1117 588 1131 q 721 1239 650 1185 q 786 1283 750 1261 q 863 1323 822 1306 q 950 1351 904 1340 q 1044 1361 996 1361 m 390 35 q 524 59 460 35 q 647 123 589 83 q 755 213 704 163 q 847 315 806 263 q 1024 597 944 439 q 976 585 1001 590 q 930 577 956 581 q 878 574 904 574 q 783 589 825 574 q 708 630 740 604 q 653 688 676 656 q 613 754 629 721 q 561 936 574 833 q 379 760 458 854 q 313 673 346 719 q 255 575 281 626 q 214 468 229 524 q 199 357 199 413 q 249 122 199 210 q 390 35 299 35 m 1082 699 q 1157 924 1138 825 q 1166 1006 1165 965 q 1156 1078 1167 1047 q 1118 1129 1144 1110 q 1044 1149 1092 1149 q 901 1119 963 1149 q 797 1049 839 1090 q 734 960 756 1007 q 713 881 713 914 q 725 790 713 832 q 761 715 738 747 q 818 665 785 683 q 892 646 851 646 q 966 653 932 646 q 1026 672 1000 661 q 1082 699 1057 683 m 1138 1629 q 1142 1622 1138 1629 q 1151 1603 1146 1614 q 1163 1579 1157 1592 q 1175 1557 1169 1567 q 1194 1522 1183 1540 q 1213 1486 1204 1503 q 1226 1458 1221 1469 q 1229 1442 1231 1446 q 1226 1438 1228 1440 q 1221 1438 1224 1436 q 1194 1445 1211 1438 q 1159 1466 1178 1453 q 1121 1496 1140 1479 q 1086 1528 1101 1513 q 1033 1505 1061 1517 q 978 1485 1004 1493 q 931 1472 951 1476 q 900 1469 910 1467 q 897 1472 899 1469 q 896 1476 896 1475 q 927 1503 900 1483 q 988 1547 954 1524 q 1053 1594 1021 1571 q 1099 1631 1085 1617 l 1106 1638 q 1124 1644 1113 1644 q 1132 1638 1129 1643 q 1138 1629 1135 1633 z "},"":{"ha":1025,"x_min":1,"x_max":1304,"o":"m 1044 1361 q 950 1351 996 1361 q 863 1323 904 1340 q 786 1283 822 1306 q 721 1239 750 1261 q 594 1117 650 1185 q 572 1142 588 1131 q 535 1159 558 1151 q 472 1167 513 1167 q 389 1136 438 1167 q 288 1052 340 1106 q 185 926 236 999 q 92 771 133 854 q 26 597 51 688 q 1 417 1 506 q 38 192 1 281 q 129 51 74 103 q 252 -23 185 -1 q 382 -44 319 -44 q 597 10 488 -44 q 808 153 706 64 q 1001 358 911 243 q 1159 596 1092 474 q 1265 838 1226 718 q 1304 1057 1304 958 q 1285 1192 1304 1135 q 1231 1286 1265 1249 q 1148 1342 1196 1324 q 1044 1361 1100 1361 m 390 35 q 249 122 299 35 q 199 357 199 210 q 214 468 199 413 q 255 575 229 524 q 313 673 281 626 q 379 760 346 719 q 561 936 458 854 q 613 754 574 833 q 653 688 629 721 q 708 630 676 656 q 783 589 740 604 q 878 574 825 574 q 930 577 904 574 q 976 585 956 581 q 1024 597 1001 590 q 847 315 944 439 q 755 213 806 263 q 647 123 704 163 q 524 59 589 83 q 390 35 460 35 m 1082 699 q 1026 672 1057 683 q 966 653 1000 661 q 892 646 932 646 q 818 665 851 646 q 761 715 785 683 q 725 790 738 747 q 713 881 713 832 q 734 960 713 914 q 797 1049 756 1007 q 901 1119 839 1090 q 1044 1149 963 1149 q 1118 1129 1092 1149 q 1156 1078 1144 1110 q 1166 1006 1167 1047 q 1157 924 1165 965 q 1082 699 1138 825 m 1267 1467 q 1253 1472 1260 1467 q 1240 1482 1247 1476 q 1222 1492 1232 1488 q 1199 1497 1213 1497 q 1151 1488 1175 1497 q 1102 1467 1126 1479 q 1054 1447 1078 1456 q 1008 1438 1031 1438 q 933 1463 964 1438 q 897 1517 901 1489 q 911 1525 897 1525 q 919 1521 915 1525 q 928 1513 922 1517 q 942 1504 933 1508 q 967 1500 951 1500 q 1014 1508 992 1500 q 1057 1526 1036 1517 q 1099 1543 1078 1535 q 1144 1551 1121 1551 q 1211 1535 1179 1551 q 1263 1497 1243 1518 q 1272 1485 1268 1492 q 1276 1476 1276 1479 q 1276 1470 1276 1474 q 1267 1467 1275 1467 z "},"":{"ha":1025,"x_min":1,"x_max":1304,"o":"m 1044 1361 q 950 1351 996 1361 q 863 1323 904 1340 q 786 1283 822 1306 q 721 1239 750 1261 q 594 1117 650 1185 q 572 1142 588 1131 q 535 1159 558 1151 q 472 1167 513 1167 q 389 1136 438 1167 q 288 1052 340 1106 q 185 926 236 999 q 92 771 133 854 q 26 597 51 688 q 1 417 1 506 q 38 192 1 281 q 129 51 74 103 q 252 -23 185 -1 q 382 -44 319 -44 q 597 10 488 -44 q 808 153 706 64 q 1001 358 911 243 q 1159 596 1092 474 q 1265 838 1226 718 q 1304 1057 1304 958 q 1285 1192 1304 1135 q 1231 1286 1265 1249 q 1148 1342 1196 1324 q 1044 1361 1100 1361 m 390 35 q 249 122 299 35 q 199 357 199 210 q 214 468 199 413 q 255 575 229 524 q 313 673 281 626 q 379 760 346 719 q 561 936 458 854 q 613 754 574 833 q 653 688 629 721 q 708 630 676 656 q 783 589 740 604 q 878 574 825 574 q 930 577 904 574 q 976 585 956 581 q 1024 597 1001 590 q 847 315 944 439 q 755 213 806 263 q 647 123 704 163 q 524 59 589 83 q 390 35 460 35 m 1082 699 q 1026 672 1057 683 q 966 653 1000 661 q 892 646 932 646 q 818 665 851 646 q 761 715 785 683 q 725 790 738 747 q 713 881 713 832 q 734 960 713 914 q 797 1049 756 1007 q 901 1119 839 1090 q 1044 1149 963 1149 q 1118 1129 1092 1149 q 1156 1078 1144 1110 q 1166 1006 1167 1047 q 1157 924 1165 965 q 1082 699 1138 825 m 888 1438 q 825 1458 854 1438 q 796 1518 796 1479 q 823 1577 796 1558 q 882 1596 850 1596 q 944 1578 915 1596 q 974 1518 974 1560 q 961 1472 974 1488 q 933 1448 949 1456 q 903 1439 917 1440 q 888 1438 889 1438 m 1204 1438 q 1142 1458 1171 1438 q 1113 1518 1113 1479 q 1140 1577 1113 1558 q 1199 1596 1167 1596 q 1261 1578 1232 1596 q 1290 1518 1290 1560 q 1278 1472 1290 1488 q 1249 1448 1265 1456 q 1219 1439 1233 1440 q 1204 1438 1206 1438 z "},"":{"ha":899,"x_min":-424,"x_max":1140,"o":"m 768 697 q 507 453 624 560 q 408 363 457 407 q 320 285 360 319 q 253 229 281 250 q 218 208 225 208 q 217 240 206 208 q 256 324 229 271 q 321 445 282 376 q 401 590 360 514 q 483 745 442 667 q 555 894 524 824 q 604 1022 586 964 q 619 1117 622 1081 q 606 1184 617 1143 q 570 1263 596 1225 q 501 1328 544 1301 q 386 1356 457 1356 q 180 1326 282 1356 q -13 1248 78 1297 q -181 1133 -104 1199 q -312 992 -258 1067 q -395 838 -367 917 q -417 683 -424 758 q -397 603 -414 646 q -346 522 -381 560 q -258 460 -311 485 q -129 435 -206 435 q -13 457 -53 435 q 40 506 26 479 q 47 556 54 533 q 24 578 40 578 q 2 563 7 578 q -11 529 -3 547 q -40 496 -19 511 q -107 481 -60 481 q -142 485 -119 481 q -186 505 -164 489 q -226 553 -208 521 q -249 640 -244 585 q -227 808 -257 725 q -144 965 -197 890 q -21 1103 -90 1040 q 121 1213 49 1167 q 260 1285 193 1258 q 376 1311 328 1311 q 476 1282 439 1311 q 514 1215 514 1253 q 492 1146 514 1196 q 433 1026 469 1096 q 351 874 397 957 q 258 704 306 790 q 164 535 210 618 q 82 384 118 453 q 24 265 46 315 q 1 197 1 215 q 6 137 1 169 q 23 76 10 104 q 60 28 36 47 q 122 8 83 8 q 203 44 153 8 q 310 133 253 79 q 426 250 368 186 q 534 371 485 314 q 617 471 583 428 q 658 525 651 514 q 599 399 624 465 q 558 269 576 340 q 540 122 540 197 q 558 77 540 97 q 598 42 575 57 q 642 17 621 26 q 672 8 664 8 l 669 7 q 749 38 704 7 q 843 115 794 68 q 940 218 892 163 q 1027 324 988 274 q 1094 413 1067 375 q 1129 463 1122 451 q 1140 490 1140 479 q 1131 506 1139 501 q 1114 506 1124 510 q 1096 492 1104 503 q 991 353 1050 422 q 874 229 932 285 q 763 140 815 174 q 681 106 711 106 q 676 132 668 106 q 706 203 683 158 q 762 309 728 249 q 835 437 796 369 q 917 576 875 504 q 996 714 958 647 q 1046 803 1024 760 q 1071 874 1068 847 q 1065 954 1075 919 q 1040 1012 1056 989 q 1005 1046 1024 1035 q 972 1057 986 1057 q 951 1051 957 1057 q 942 1035 944 1044 q 938 1013 939 1025 q 932 989 936 1000 q 900 921 921 960 q 856 841 879 882 q 808 762 832 800 q 768 697 785 724 m 924 1185 q 876 1211 910 1185 q 808 1274 843 1238 q 745 1348 772 1311 q 718 1406 718 1385 q 739 1440 718 1421 q 784 1472 760 1460 q 829 1486 808 1485 q 850 1467 850 1488 q 860 1419 850 1447 q 885 1359 871 1390 q 913 1297 899 1328 q 935 1240 926 1265 q 942 1200 943 1215 q 924 1185 940 1185 z "},"":{"ha":899,"x_min":-424,"x_max":1140,"o":"m 768 697 q 507 453 624 560 q 408 363 457 407 q 320 285 360 319 q 253 229 281 250 q 218 208 225 208 q 217 240 206 208 q 256 324 229 271 q 321 445 282 376 q 401 590 360 514 q 483 745 442 667 q 555 894 524 824 q 604 1022 586 964 q 619 1117 622 1081 q 606 1184 617 1143 q 570 1263 596 1225 q 501 1328 544 1301 q 386 1356 457 1356 q 180 1326 282 1356 q -13 1248 78 1297 q -181 1133 -104 1199 q -312 992 -258 1067 q -395 838 -367 917 q -417 683 -424 758 q -397 603 -414 646 q -346 522 -381 560 q -258 460 -311 485 q -129 435 -206 435 q -13 457 -53 435 q 40 506 26 479 q 47 556 54 533 q 24 578 40 578 q 2 563 7 578 q -11 529 -3 547 q -40 496 -19 511 q -107 481 -60 481 q -142 485 -119 481 q -186 505 -164 489 q -226 553 -208 521 q -249 640 -244 585 q -227 808 -257 725 q -144 965 -197 890 q -21 1103 -90 1040 q 121 1213 49 1167 q 260 1285 193 1258 q 376 1311 328 1311 q 476 1282 439 1311 q 514 1215 514 1253 q 492 1146 514 1196 q 433 1026 469 1096 q 351 874 397 957 q 258 704 306 790 q 164 535 210 618 q 82 384 118 453 q 24 265 46 315 q 1 197 1 215 q 6 137 1 169 q 23 76 10 104 q 60 28 36 47 q 122 8 83 8 q 203 44 153 8 q 310 133 253 79 q 426 250 368 186 q 534 371 485 314 q 617 471 583 428 q 658 525 651 514 q 599 399 624 465 q 558 269 576 340 q 540 122 540 197 q 558 77 540 97 q 598 42 575 57 q 642 17 621 26 q 672 8 664 8 l 669 7 q 749 38 704 7 q 843 115 794 68 q 940 218 892 163 q 1027 324 988 274 q 1094 413 1067 375 q 1129 463 1122 451 q 1140 490 1140 479 q 1131 506 1139 501 q 1114 506 1124 510 q 1096 492 1104 503 q 991 353 1050 422 q 874 229 932 285 q 763 140 815 174 q 681 106 711 106 q 676 132 668 106 q 706 203 683 158 q 762 309 728 249 q 835 437 796 369 q 917 576 875 504 q 996 714 958 647 q 1046 803 1024 760 q 1071 874 1068 847 q 1065 954 1075 919 q 1040 1012 1056 989 q 1005 1046 1024 1035 q 972 1057 986 1057 q 951 1051 957 1057 q 942 1035 944 1044 q 938 1013 939 1025 q 932 989 936 1000 q 900 921 921 960 q 856 841 879 882 q 808 762 832 800 q 768 697 785 724 m 786 1185 q 768 1200 769 1185 q 775 1240 767 1215 q 797 1297 783 1265 q 825 1359 811 1328 q 849 1419 839 1390 q 860 1467 860 1447 q 881 1486 860 1488 q 926 1472 901 1485 q 971 1440 950 1460 q 992 1406 992 1421 q 965 1348 992 1385 q 902 1274 938 1311 q 833 1211 867 1238 q 786 1185 800 1185 z "},"":{"ha":899,"x_min":-424,"x_max":1140,"o":"m 768 697 q 808 762 785 724 q 856 841 832 800 q 900 921 879 882 q 932 989 921 960 q 938 1013 936 1000 q 942 1035 939 1025 q 951 1051 944 1044 q 972 1057 957 1057 q 1005 1046 986 1057 q 1040 1012 1024 1035 q 1065 954 1056 989 q 1071 874 1075 919 q 1046 803 1068 847 q 996 714 1024 760 q 917 576 958 647 q 835 437 875 504 q 762 309 796 369 q 706 203 728 249 q 676 132 683 158 q 681 106 668 106 q 763 140 711 106 q 874 229 815 174 q 991 353 932 285 q 1096 492 1050 422 q 1114 506 1104 503 q 1131 506 1124 510 q 1140 490 1139 501 q 1129 463 1140 479 q 1094 413 1122 451 q 1027 324 1067 375 q 940 218 988 274 q 843 115 892 163 q 749 38 794 68 q 669 7 704 7 l 672 8 q 642 17 664 8 q 598 42 621 26 q 558 77 575 57 q 540 122 540 97 q 558 269 540 197 q 599 399 576 340 q 658 525 624 465 q 617 471 651 514 q 534 371 583 428 q 426 250 485 314 q 310 133 368 186 q 203 44 253 79 q 122 8 153 8 q 60 28 83 8 q 23 76 36 47 q 6 137 10 104 q 1 197 1 169 q 24 265 1 215 q 82 384 46 315 q 164 535 118 453 q 258 704 210 618 q 351 874 306 790 q 433 1026 397 957 q 492 1146 469 1096 q 514 1215 514 1196 q 476 1282 514 1253 q 376 1311 439 1311 q 260 1285 328 1311 q 121 1213 193 1258 q -21 1103 49 1167 q -144 965 -90 1040 q -227 808 -197 890 q -249 640 -257 725 q -226 553 -244 585 q -186 505 -208 521 q -142 485 -164 489 q -107 481 -119 481 q -40 496 -60 481 q -11 529 -19 511 q 2 563 -3 547 q 24 578 7 578 q 47 556 40 578 q 40 506 54 533 q -13 457 26 479 q -129 435 -53 435 q -258 460 -206 435 q -346 522 -311 485 q -397 603 -381 560 q -417 683 -414 646 q -395 838 -424 758 q -312 992 -367 917 q -181 1133 -258 1067 q -13 1248 -104 1199 q 180 1326 78 1297 q 386 1356 282 1356 q 501 1328 457 1356 q 570 1263 544 1301 q 606 1184 596 1225 q 619 1117 617 1143 q 604 1022 622 1081 q 555 894 586 964 q 483 745 524 824 q 401 590 442 667 q 321 445 360 514 q 256 324 282 376 q 217 240 229 271 q 218 208 206 208 q 253 229 225 208 q 320 285 281 250 q 408 363 360 319 q 507 453 457 407 q 768 697 624 560 m 953 1367 q 957 1359 953 1367 q 967 1340 961 1351 q 978 1317 972 1329 q 990 1294 985 1304 q 1009 1259 999 1278 q 1028 1224 1019 1240 q 1041 1195 1036 1207 q 1044 1179 1046 1183 q 1041 1176 1043 1178 q 1036 1175 1039 1174 q 1010 1183 1026 1175 q 974 1203 993 1190 q 936 1233 956 1217 q 901 1265 917 1250 q 848 1242 876 1254 q 793 1222 819 1231 q 746 1209 767 1214 q 715 1207 725 1204 q 713 1210 714 1207 q 711 1214 711 1213 q 742 1241 715 1221 q 803 1285 769 1261 q 868 1331 836 1308 q 914 1368 900 1354 l 921 1375 q 939 1382 928 1382 q 947 1376 944 1381 q 953 1367 950 1371 z "},"":{"ha":899,"x_min":-424,"x_max":1178,"o":"m 768 697 q 808 762 785 724 q 856 841 832 800 q 900 921 879 882 q 932 989 921 960 q 938 1013 936 1000 q 942 1035 939 1025 q 951 1051 944 1044 q 972 1057 957 1057 q 1005 1046 986 1057 q 1040 1012 1024 1035 q 1065 954 1056 989 q 1071 874 1075 919 q 1046 803 1068 847 q 996 714 1024 760 q 917 576 958 647 q 835 437 875 504 q 762 309 796 369 q 706 203 728 249 q 676 132 683 158 q 681 106 668 106 q 763 140 711 106 q 874 229 815 174 q 991 353 932 285 q 1096 492 1050 422 q 1114 506 1104 503 q 1131 506 1124 510 q 1140 490 1139 501 q 1129 463 1140 479 q 1094 413 1122 451 q 1027 324 1067 375 q 940 218 988 274 q 843 115 892 163 q 749 38 794 68 q 669 7 704 7 l 672 8 q 642 17 664 8 q 598 42 621 26 q 558 77 575 57 q 540 122 540 97 q 558 269 540 197 q 599 399 576 340 q 658 525 624 465 q 617 471 651 514 q 534 371 583 428 q 426 250 485 314 q 310 133 368 186 q 203 44 253 79 q 122 8 153 8 q 60 28 83 8 q 23 76 36 47 q 6 137 10 104 q 1 197 1 169 q 24 265 1 215 q 82 384 46 315 q 164 535 118 453 q 258 704 210 618 q 351 874 306 790 q 433 1026 397 957 q 492 1146 469 1096 q 514 1215 514 1196 q 476 1282 514 1253 q 376 1311 439 1311 q 260 1285 328 1311 q 121 1213 193 1258 q -21 1103 49 1167 q -144 965 -90 1040 q -227 808 -197 890 q -249 640 -257 725 q -226 553 -244 585 q -186 505 -208 521 q -142 485 -164 489 q -107 481 -119 481 q -40 496 -60 481 q -11 529 -19 511 q 2 563 -3 547 q 24 578 7 578 q 47 556 40 578 q 40 506 54 533 q -13 457 26 479 q -129 435 -53 435 q -258 460 -206 435 q -346 522 -311 485 q -397 603 -381 560 q -417 683 -414 646 q -395 838 -424 758 q -312 992 -367 917 q -181 1133 -258 1067 q -13 1248 -104 1199 q 180 1326 78 1297 q 386 1356 282 1356 q 501 1328 457 1356 q 570 1263 544 1301 q 606 1184 596 1225 q 619 1117 617 1143 q 604 1022 622 1081 q 555 894 586 964 q 483 745 524 824 q 401 590 442 667 q 321 445 360 514 q 256 324 282 376 q 217 240 229 271 q 218 208 206 208 q 253 229 225 208 q 320 285 281 250 q 408 363 360 319 q 507 453 457 407 q 768 697 624 560 m 775 1168 q 713 1189 742 1168 q 683 1249 683 1210 q 710 1308 683 1289 q 769 1326 738 1326 q 832 1308 803 1326 q 861 1249 861 1290 q 849 1202 861 1218 q 820 1178 836 1186 q 790 1169 804 1171 q 775 1168 776 1168 m 1092 1168 q 1029 1189 1058 1168 q 1000 1249 1000 1210 q 1027 1308 1000 1289 q 1086 1326 1054 1326 q 1149 1308 1119 1326 q 1178 1249 1178 1290 q 1165 1202 1178 1218 q 1137 1178 1153 1186 q 1107 1169 1121 1171 q 1092 1168 1093 1168 z "},"":{"ha":868,"x_min":-508,"x_max":1108,"o":"m 1056 722 q 1094 807 1081 771 q 1108 863 1108 843 q 1085 958 1108 919 q 1035 1016 1063 996 q 985 1038 1008 1036 q 963 1024 963 1040 q 926 904 963 986 q 833 718 890 822 l 782 622 q 510 397 632 496 q 406 315 457 356 q 311 244 354 275 q 238 193 268 213 q 197 174 207 174 q 201 206 188 174 q 244 293 215 239 q 312 419 272 347 q 393 571 351 492 q 476 732 435 650 q 549 888 518 814 q 599 1024 581 963 q 614 1124 617 1085 q 599 1192 611 1153 q 560 1268 588 1232 q 485 1330 533 1304 q 363 1356 438 1356 q 140 1326 250 1356 q -67 1247 31 1297 q -249 1127 -165 1196 q -390 981 -332 1058 q -478 819 -449 903 q -501 654 -508 736 q -481 569 -499 615 q -426 483 -462 524 q -332 416 -389 443 q -193 389 -275 389 q -68 413 -111 389 q -10 466 -25 438 q -1 519 6 494 q -26 543 -8 543 q -51 526 -46 543 q -65 490 -56 510 q -95 454 -74 471 q -168 438 -117 438 q -206 442 -182 438 q -253 465 -229 447 q -296 516 -276 482 q -319 610 -315 550 q -296 790 -328 701 q -207 960 -264 879 q -75 1108 -150 1040 q 77 1225 0 1175 q 227 1303 154 1275 q 353 1331 300 1331 q 460 1300 419 1331 q 501 1228 501 1269 q 480 1145 501 1199 q 423 1024 458 1092 q 343 877 388 956 q 251 718 299 799 q 160 559 204 638 q 80 414 115 481 q 23 295 44 347 q 1 217 1 243 q 6 148 1 185 q 26 79 11 111 q 68 26 40 47 q 140 4 96 4 q 231 39 175 4 q 351 126 288 74 q 479 243 414 179 q 599 364 544 307 q 692 465 654 421 q 739 521 731 508 q 615 263 676 386 q 560 155 589 210 q 503 48 532 100 q 448 -49 475 -4 q 399 -128 421 -94 q 129 -362 246 -254 q 33 -457 79 -410 q -49 -547 -14 -504 q -103 -624 -85 -590 q -117 -679 -122 -658 q -83 -745 -106 -719 q -35 -785 -61 -771 q 19 -803 -10 -800 q 71 -800 47 -807 q 176 -750 125 -785 q 276 -665 228 -715 q 369 -553 324 -615 q 456 -421 414 -490 q 490 -360 474 -390 q 521 -299 506 -331 q 574 -198 540 -261 q 649 -56 607 -135 q 736 112 690 24 q 828 286 782 200 q 1056 722 935 489 m -4 -707 q -45 -706 -26 -714 q -71 -676 -64 -699 q -57 -640 -74 -665 q -11 -581 -40 -615 q 56 -508 18 -547 q 136 -428 94 -468 q 357 -222 232 -335 q 236 -447 297 -346 q 180 -533 210 -490 q 119 -612 150 -576 q 58 -673 89 -647 q -4 -707 26 -699 m 806 1150 q 788 1165 789 1150 q 794 1206 786 1181 q 817 1262 803 1231 q 844 1324 831 1293 q 869 1384 858 1356 q 879 1432 879 1413 q 900 1451 879 1453 q 945 1438 921 1450 q 990 1406 969 1425 q 1011 1371 1011 1386 q 984 1313 1011 1350 q 922 1240 957 1276 q 853 1176 886 1203 q 806 1150 819 1150 z "},"":{"ha":669,"x_min":0,"x_max":904,"o":"m 493 693 q 403 665 454 693 q 297 592 351 638 q 188 488 242 546 q 93 372 135 431 q 26 258 51 313 q 0 163 0 203 q 13 95 0 125 q 47 44 26 65 q 89 12 67 24 q 131 0 111 0 q 188 32 150 0 q 263 103 225 64 q 357 206 307 149 q 344 175 350 190 q 337 148 340 163 q 333 121 333 133 q 343 88 333 108 q 368 47 353 67 q 404 14 383 28 q 446 0 425 0 q 521 31 478 0 q 611 108 564 61 q 706 212 658 156 q 792 319 753 268 q 858 408 831 369 q 893 457 885 446 q 903 485 904 474 q 895 500 903 496 q 878 501 888 504 q 860 486 868 497 q 756 344 814 417 q 643 210 697 271 q 546 111 589 150 q 486 72 503 72 q 481 97 469 72 q 513 158 492 121 q 553 238 533 194 q 572 319 572 282 q 555 381 572 357 q 517 415 538 404 q 483 426 497 426 q 474 417 468 426 q 458 382 476 410 q 408 317 439 354 q 338 236 376 279 q 265 157 300 193 q 202 97 229 121 q 167 74 175 74 q 153 108 142 74 q 198 196 164 143 q 284 310 232 249 q 392 424 336 371 q 503 511 449 476 q 599 546 558 546 q 606 569 610 546 q 588 619 603 592 q 549 670 574 647 q 493 693 524 693 m 693 740 q 646 767 679 740 q 577 830 613 793 q 515 903 542 867 q 488 961 488 940 q 508 996 488 976 q 553 1028 529 1015 q 599 1042 578 1040 q 619 1022 619 1043 q 630 974 619 1003 q 654 915 640 946 q 682 852 668 883 q 704 796 696 821 q 711 756 713 771 q 693 740 710 740 z "}}}
